%TF.GenerationSoftware,KiCad,Pcbnew,9.0.3*%
%TF.CreationDate,2025-10-16T10:39:48+02:00*%
%TF.ProjectId,usb3-gmm7550,75736233-2d67-46d6-9d37-3535302e6b69,1.0*%
%TF.SameCoordinates,Original*%
%TF.FileFunction,Soldermask,Top*%
%TF.FilePolarity,Negative*%
%FSLAX46Y46*%
G04 Gerber Fmt 4.6, Leading zero omitted, Abs format (unit mm)*
G04 Created by KiCad (PCBNEW 9.0.3) date 2025-10-16 10:39:48*
%MOMM*%
%LPD*%
G01*
G04 APERTURE LIST*
G04 Aperture macros list*
%AMRoundRect*
0 Rectangle with rounded corners*
0 $1 Rounding radius*
0 $2 $3 $4 $5 $6 $7 $8 $9 X,Y pos of 4 corners*
0 Add a 4 corners polygon primitive as box body*
4,1,4,$2,$3,$4,$5,$6,$7,$8,$9,$2,$3,0*
0 Add four circle primitives for the rounded corners*
1,1,$1+$1,$2,$3*
1,1,$1+$1,$4,$5*
1,1,$1+$1,$6,$7*
1,1,$1+$1,$8,$9*
0 Add four rect primitives between the rounded corners*
20,1,$1+$1,$2,$3,$4,$5,0*
20,1,$1+$1,$4,$5,$6,$7,0*
20,1,$1+$1,$6,$7,$8,$9,0*
20,1,$1+$1,$8,$9,$2,$3,0*%
G04 Aperture macros list end*
%ADD10C,0.100000*%
%ADD11C,0.150000*%
%ADD12C,0.300000*%
%ADD13C,0.400000*%
%ADD14R,0.700000X0.300000*%
%ADD15R,0.700000X1.000000*%
%ADD16O,2.100000X1.100000*%
%ADD17O,2.600000X1.100000*%
%ADD18RoundRect,0.050000X0.050000X-0.387500X0.050000X0.387500X-0.050000X0.387500X-0.050000X-0.387500X0*%
%ADD19RoundRect,0.050000X0.387500X-0.050000X0.387500X0.050000X-0.387500X0.050000X-0.387500X-0.050000X0*%
%ADD20R,3.200000X3.200000*%
%ADD21RoundRect,0.140000X-0.170000X0.140000X-0.170000X-0.140000X0.170000X-0.140000X0.170000X0.140000X0*%
%ADD22RoundRect,0.218750X0.256250X-0.218750X0.256250X0.218750X-0.256250X0.218750X-0.256250X-0.218750X0*%
%ADD23RoundRect,0.062500X0.387500X0.062500X-0.387500X0.062500X-0.387500X-0.062500X0.387500X-0.062500X0*%
%ADD24R,0.200000X1.600000*%
%ADD25RoundRect,0.140000X0.140000X0.170000X-0.140000X0.170000X-0.140000X-0.170000X0.140000X-0.170000X0*%
%ADD26RoundRect,0.140000X0.170000X-0.140000X0.170000X0.140000X-0.170000X0.140000X-0.170000X-0.140000X0*%
%ADD27RoundRect,0.135000X0.135000X0.185000X-0.135000X0.185000X-0.135000X-0.185000X0.135000X-0.185000X0*%
%ADD28RoundRect,0.062500X0.350000X0.062500X-0.350000X0.062500X-0.350000X-0.062500X0.350000X-0.062500X0*%
%ADD29RoundRect,0.140000X-0.140000X-0.170000X0.140000X-0.170000X0.140000X0.170000X-0.140000X0.170000X0*%
%ADD30RoundRect,0.150000X-0.150000X0.587500X-0.150000X-0.587500X0.150000X-0.587500X0.150000X0.587500X0*%
%ADD31RoundRect,0.135000X-0.135000X-0.185000X0.135000X-0.185000X0.135000X0.185000X-0.135000X0.185000X0*%
%ADD32RoundRect,0.218750X-0.218750X-0.256250X0.218750X-0.256250X0.218750X0.256250X-0.218750X0.256250X0*%
%ADD33RoundRect,0.135000X-0.185000X0.135000X-0.185000X-0.135000X0.185000X-0.135000X0.185000X0.135000X0*%
%ADD34C,2.000000*%
%ADD35RoundRect,0.135000X0.185000X-0.135000X0.185000X0.135000X-0.185000X0.135000X-0.185000X-0.135000X0*%
%ADD36RoundRect,0.250000X0.475000X-0.250000X0.475000X0.250000X-0.475000X0.250000X-0.475000X-0.250000X0*%
%ADD37C,3.200000*%
%ADD38C,0.650000*%
%ADD39RoundRect,0.150000X-0.425000X0.150000X-0.425000X-0.150000X0.425000X-0.150000X0.425000X0.150000X0*%
%ADD40RoundRect,0.075000X-0.500000X0.075000X-0.500000X-0.075000X0.500000X-0.075000X0.500000X0.075000X0*%
%ADD41O,2.100000X1.000000*%
%ADD42O,1.800000X1.000000*%
%ADD43RoundRect,0.218750X-0.256250X0.218750X-0.256250X-0.218750X0.256250X-0.218750X0.256250X0.218750X0*%
%ADD44RoundRect,0.150000X0.200000X-0.150000X0.200000X0.150000X-0.200000X0.150000X-0.200000X-0.150000X0*%
%ADD45RoundRect,0.225000X-0.225000X-0.250000X0.225000X-0.250000X0.225000X0.250000X-0.225000X0.250000X0*%
%ADD46R,0.909599X0.204000*%
%ADD47RoundRect,0.150000X0.512500X0.150000X-0.512500X0.150000X-0.512500X-0.150000X0.512500X-0.150000X0*%
%ADD48RoundRect,0.225000X0.225000X0.250000X-0.225000X0.250000X-0.225000X-0.250000X0.225000X-0.250000X0*%
%ADD49RoundRect,0.150000X-0.512500X-0.150000X0.512500X-0.150000X0.512500X0.150000X-0.512500X0.150000X0*%
%ADD50RoundRect,0.150000X-0.150000X-0.200000X0.150000X-0.200000X0.150000X0.200000X-0.150000X0.200000X0*%
%ADD51RoundRect,0.062500X0.062500X-0.350000X0.062500X0.350000X-0.062500X0.350000X-0.062500X-0.350000X0*%
%ADD52RoundRect,0.062500X0.350000X-0.062500X0.350000X0.062500X-0.350000X0.062500X-0.350000X-0.062500X0*%
%ADD53R,1.700000X1.700000*%
%ADD54R,1.050000X0.650000*%
%ADD55RoundRect,0.190000X0.435000X0.190000X-0.435000X0.190000X-0.435000X-0.190000X0.435000X-0.190000X0*%
%ADD56RoundRect,0.250000X0.250000X0.475000X-0.250000X0.475000X-0.250000X-0.475000X0.250000X-0.475000X0*%
%ADD57R,0.700000X0.200000*%
%ADD58R,0.200000X0.500000*%
%ADD59C,0.830000*%
%ADD60C,1.230000*%
%ADD61R,2.000000X0.500000*%
%ADD62RoundRect,0.150000X0.150000X0.625000X-0.150000X0.625000X-0.150000X-0.625000X0.150000X-0.625000X0*%
%ADD63RoundRect,0.250000X0.350000X0.650000X-0.350000X0.650000X-0.350000X-0.650000X0.350000X-0.650000X0*%
%ADD64R,0.845299X0.304800*%
%ADD65RoundRect,0.150000X0.150000X-0.512500X0.150000X0.512500X-0.150000X0.512500X-0.150000X-0.512500X0*%
%ADD66RoundRect,0.250000X0.945000X-0.785000X0.945000X0.785000X-0.945000X0.785000X-0.945000X-0.785000X0*%
%ADD67RoundRect,0.150000X0.150000X-0.587500X0.150000X0.587500X-0.150000X0.587500X-0.150000X-0.587500X0*%
%ADD68C,3.000000*%
%ADD69RoundRect,0.250001X0.499999X-0.499999X0.499999X0.499999X-0.499999X0.499999X-0.499999X-0.499999X0*%
%ADD70C,1.500000*%
%ADD71RoundRect,0.062500X0.375000X0.062500X-0.375000X0.062500X-0.375000X-0.062500X0.375000X-0.062500X0*%
%ADD72RoundRect,0.062500X0.062500X0.375000X-0.062500X0.375000X-0.062500X-0.375000X0.062500X-0.375000X0*%
%ADD73R,3.300000X3.300000*%
%ADD74C,0.500000*%
%ADD75R,0.706399X0.229400*%
%ADD76RoundRect,0.250000X0.450000X-0.262500X0.450000X0.262500X-0.450000X0.262500X-0.450000X-0.262500X0*%
%ADD77R,2.400000X2.000000*%
%ADD78R,0.704800X0.300000*%
%ADD79R,0.704850X0.249936*%
%ADD80R,0.350012X0.754888*%
%ADD81RoundRect,0.150000X-0.150000X0.512500X-0.150000X-0.512500X0.150000X-0.512500X0.150000X0.512500X0*%
%ADD82RoundRect,0.150000X-0.587500X-0.150000X0.587500X-0.150000X0.587500X0.150000X-0.587500X0.150000X0*%
%ADD83RoundRect,0.150000X0.587500X0.150000X-0.587500X0.150000X-0.587500X-0.150000X0.587500X-0.150000X0*%
%ADD84RoundRect,0.218750X0.218750X0.256250X-0.218750X0.256250X-0.218750X-0.256250X0.218750X-0.256250X0*%
%ADD85RoundRect,0.050000X-0.050000X-0.100000X0.050000X-0.100000X0.050000X0.100000X-0.050000X0.100000X0*%
%ADD86RoundRect,0.050000X-0.100000X0.050000X-0.100000X-0.050000X0.100000X-0.050000X0.100000X0.050000X0*%
%ADD87C,0.400000*%
%ADD88RoundRect,0.050000X-0.650000X0.450000X-0.650000X-0.450000X0.650000X-0.450000X0.650000X0.450000X0*%
%TA.AperFunction,Profile*%
%ADD89C,0.100000*%
%TD*%
G04 APERTURE END LIST*
D10*
D11*
X177002200Y-166007200D02*
X285002200Y-166007200D01*
X285002200Y-198007200D01*
X177002200Y-198007200D01*
X177002200Y-166007200D01*
D10*
D11*
X10000000Y-10000000D02*
X287002200Y-10000000D01*
X287002200Y-200007200D01*
X10000000Y-200007200D01*
X10000000Y-10000000D01*
D10*
D11*
X12000000Y-12000000D02*
X285002200Y-12000000D01*
X285002200Y-198007200D01*
X12000000Y-198007200D01*
X12000000Y-12000000D01*
D10*
D11*
X60000000Y-12000000D02*
X60000000Y-10000000D01*
D10*
D11*
X110000000Y-12000000D02*
X110000000Y-10000000D01*
D10*
D11*
X160000000Y-12000000D02*
X160000000Y-10000000D01*
D10*
D11*
X210000000Y-12000000D02*
X210000000Y-10000000D01*
D10*
D11*
X260000000Y-12000000D02*
X260000000Y-10000000D01*
D10*
D11*
X36089160Y-11593604D02*
X35346303Y-11593604D01*
X35717731Y-11593604D02*
X35717731Y-10293604D01*
X35717731Y-10293604D02*
X35593922Y-10479319D01*
X35593922Y-10479319D02*
X35470112Y-10603128D01*
X35470112Y-10603128D02*
X35346303Y-10665033D01*
D10*
D11*
X85346303Y-10417414D02*
X85408207Y-10355509D01*
X85408207Y-10355509D02*
X85532017Y-10293604D01*
X85532017Y-10293604D02*
X85841541Y-10293604D01*
X85841541Y-10293604D02*
X85965350Y-10355509D01*
X85965350Y-10355509D02*
X86027255Y-10417414D01*
X86027255Y-10417414D02*
X86089160Y-10541223D01*
X86089160Y-10541223D02*
X86089160Y-10665033D01*
X86089160Y-10665033D02*
X86027255Y-10850747D01*
X86027255Y-10850747D02*
X85284398Y-11593604D01*
X85284398Y-11593604D02*
X86089160Y-11593604D01*
D10*
D11*
X135284398Y-10293604D02*
X136089160Y-10293604D01*
X136089160Y-10293604D02*
X135655826Y-10788842D01*
X135655826Y-10788842D02*
X135841541Y-10788842D01*
X135841541Y-10788842D02*
X135965350Y-10850747D01*
X135965350Y-10850747D02*
X136027255Y-10912652D01*
X136027255Y-10912652D02*
X136089160Y-11036461D01*
X136089160Y-11036461D02*
X136089160Y-11345985D01*
X136089160Y-11345985D02*
X136027255Y-11469795D01*
X136027255Y-11469795D02*
X135965350Y-11531700D01*
X135965350Y-11531700D02*
X135841541Y-11593604D01*
X135841541Y-11593604D02*
X135470112Y-11593604D01*
X135470112Y-11593604D02*
X135346303Y-11531700D01*
X135346303Y-11531700D02*
X135284398Y-11469795D01*
D10*
D11*
X185965350Y-10726938D02*
X185965350Y-11593604D01*
X185655826Y-10231700D02*
X185346303Y-11160271D01*
X185346303Y-11160271D02*
X186151064Y-11160271D01*
D10*
D11*
X236027255Y-10293604D02*
X235408207Y-10293604D01*
X235408207Y-10293604D02*
X235346303Y-10912652D01*
X235346303Y-10912652D02*
X235408207Y-10850747D01*
X235408207Y-10850747D02*
X235532017Y-10788842D01*
X235532017Y-10788842D02*
X235841541Y-10788842D01*
X235841541Y-10788842D02*
X235965350Y-10850747D01*
X235965350Y-10850747D02*
X236027255Y-10912652D01*
X236027255Y-10912652D02*
X236089160Y-11036461D01*
X236089160Y-11036461D02*
X236089160Y-11345985D01*
X236089160Y-11345985D02*
X236027255Y-11469795D01*
X236027255Y-11469795D02*
X235965350Y-11531700D01*
X235965350Y-11531700D02*
X235841541Y-11593604D01*
X235841541Y-11593604D02*
X235532017Y-11593604D01*
X235532017Y-11593604D02*
X235408207Y-11531700D01*
X235408207Y-11531700D02*
X235346303Y-11469795D01*
D10*
D11*
X285965350Y-10293604D02*
X285717731Y-10293604D01*
X285717731Y-10293604D02*
X285593922Y-10355509D01*
X285593922Y-10355509D02*
X285532017Y-10417414D01*
X285532017Y-10417414D02*
X285408207Y-10603128D01*
X285408207Y-10603128D02*
X285346303Y-10850747D01*
X285346303Y-10850747D02*
X285346303Y-11345985D01*
X285346303Y-11345985D02*
X285408207Y-11469795D01*
X285408207Y-11469795D02*
X285470112Y-11531700D01*
X285470112Y-11531700D02*
X285593922Y-11593604D01*
X285593922Y-11593604D02*
X285841541Y-11593604D01*
X285841541Y-11593604D02*
X285965350Y-11531700D01*
X285965350Y-11531700D02*
X286027255Y-11469795D01*
X286027255Y-11469795D02*
X286089160Y-11345985D01*
X286089160Y-11345985D02*
X286089160Y-11036461D01*
X286089160Y-11036461D02*
X286027255Y-10912652D01*
X286027255Y-10912652D02*
X285965350Y-10850747D01*
X285965350Y-10850747D02*
X285841541Y-10788842D01*
X285841541Y-10788842D02*
X285593922Y-10788842D01*
X285593922Y-10788842D02*
X285470112Y-10850747D01*
X285470112Y-10850747D02*
X285408207Y-10912652D01*
X285408207Y-10912652D02*
X285346303Y-11036461D01*
D10*
D11*
X60000000Y-198007200D02*
X60000000Y-200007200D01*
D10*
D11*
X110000000Y-198007200D02*
X110000000Y-200007200D01*
D10*
D11*
X160000000Y-198007200D02*
X160000000Y-200007200D01*
D10*
D11*
X210000000Y-198007200D02*
X210000000Y-200007200D01*
D10*
D11*
X260000000Y-198007200D02*
X260000000Y-200007200D01*
D10*
D11*
X36089160Y-199600804D02*
X35346303Y-199600804D01*
X35717731Y-199600804D02*
X35717731Y-198300804D01*
X35717731Y-198300804D02*
X35593922Y-198486519D01*
X35593922Y-198486519D02*
X35470112Y-198610328D01*
X35470112Y-198610328D02*
X35346303Y-198672233D01*
D10*
D11*
X85346303Y-198424614D02*
X85408207Y-198362709D01*
X85408207Y-198362709D02*
X85532017Y-198300804D01*
X85532017Y-198300804D02*
X85841541Y-198300804D01*
X85841541Y-198300804D02*
X85965350Y-198362709D01*
X85965350Y-198362709D02*
X86027255Y-198424614D01*
X86027255Y-198424614D02*
X86089160Y-198548423D01*
X86089160Y-198548423D02*
X86089160Y-198672233D01*
X86089160Y-198672233D02*
X86027255Y-198857947D01*
X86027255Y-198857947D02*
X85284398Y-199600804D01*
X85284398Y-199600804D02*
X86089160Y-199600804D01*
D10*
D11*
X135284398Y-198300804D02*
X136089160Y-198300804D01*
X136089160Y-198300804D02*
X135655826Y-198796042D01*
X135655826Y-198796042D02*
X135841541Y-198796042D01*
X135841541Y-198796042D02*
X135965350Y-198857947D01*
X135965350Y-198857947D02*
X136027255Y-198919852D01*
X136027255Y-198919852D02*
X136089160Y-199043661D01*
X136089160Y-199043661D02*
X136089160Y-199353185D01*
X136089160Y-199353185D02*
X136027255Y-199476995D01*
X136027255Y-199476995D02*
X135965350Y-199538900D01*
X135965350Y-199538900D02*
X135841541Y-199600804D01*
X135841541Y-199600804D02*
X135470112Y-199600804D01*
X135470112Y-199600804D02*
X135346303Y-199538900D01*
X135346303Y-199538900D02*
X135284398Y-199476995D01*
D10*
D11*
X185965350Y-198734138D02*
X185965350Y-199600804D01*
X185655826Y-198238900D02*
X185346303Y-199167471D01*
X185346303Y-199167471D02*
X186151064Y-199167471D01*
D10*
D11*
X236027255Y-198300804D02*
X235408207Y-198300804D01*
X235408207Y-198300804D02*
X235346303Y-198919852D01*
X235346303Y-198919852D02*
X235408207Y-198857947D01*
X235408207Y-198857947D02*
X235532017Y-198796042D01*
X235532017Y-198796042D02*
X235841541Y-198796042D01*
X235841541Y-198796042D02*
X235965350Y-198857947D01*
X235965350Y-198857947D02*
X236027255Y-198919852D01*
X236027255Y-198919852D02*
X236089160Y-199043661D01*
X236089160Y-199043661D02*
X236089160Y-199353185D01*
X236089160Y-199353185D02*
X236027255Y-199476995D01*
X236027255Y-199476995D02*
X235965350Y-199538900D01*
X235965350Y-199538900D02*
X235841541Y-199600804D01*
X235841541Y-199600804D02*
X235532017Y-199600804D01*
X235532017Y-199600804D02*
X235408207Y-199538900D01*
X235408207Y-199538900D02*
X235346303Y-199476995D01*
D10*
D11*
X285965350Y-198300804D02*
X285717731Y-198300804D01*
X285717731Y-198300804D02*
X285593922Y-198362709D01*
X285593922Y-198362709D02*
X285532017Y-198424614D01*
X285532017Y-198424614D02*
X285408207Y-198610328D01*
X285408207Y-198610328D02*
X285346303Y-198857947D01*
X285346303Y-198857947D02*
X285346303Y-199353185D01*
X285346303Y-199353185D02*
X285408207Y-199476995D01*
X285408207Y-199476995D02*
X285470112Y-199538900D01*
X285470112Y-199538900D02*
X285593922Y-199600804D01*
X285593922Y-199600804D02*
X285841541Y-199600804D01*
X285841541Y-199600804D02*
X285965350Y-199538900D01*
X285965350Y-199538900D02*
X286027255Y-199476995D01*
X286027255Y-199476995D02*
X286089160Y-199353185D01*
X286089160Y-199353185D02*
X286089160Y-199043661D01*
X286089160Y-199043661D02*
X286027255Y-198919852D01*
X286027255Y-198919852D02*
X285965350Y-198857947D01*
X285965350Y-198857947D02*
X285841541Y-198796042D01*
X285841541Y-198796042D02*
X285593922Y-198796042D01*
X285593922Y-198796042D02*
X285470112Y-198857947D01*
X285470112Y-198857947D02*
X285408207Y-198919852D01*
X285408207Y-198919852D02*
X285346303Y-199043661D01*
D10*
D11*
X10000000Y-60000000D02*
X12000000Y-60000000D01*
D10*
D11*
X10000000Y-110000000D02*
X12000000Y-110000000D01*
D10*
D11*
X10000000Y-160000000D02*
X12000000Y-160000000D01*
D10*
D11*
X10690476Y-35222176D02*
X11309523Y-35222176D01*
X10566666Y-35593604D02*
X10999999Y-34293604D01*
X10999999Y-34293604D02*
X11433333Y-35593604D01*
D10*
D11*
X11092857Y-84912652D02*
X11278571Y-84974557D01*
X11278571Y-84974557D02*
X11340476Y-85036461D01*
X11340476Y-85036461D02*
X11402380Y-85160271D01*
X11402380Y-85160271D02*
X11402380Y-85345985D01*
X11402380Y-85345985D02*
X11340476Y-85469795D01*
X11340476Y-85469795D02*
X11278571Y-85531700D01*
X11278571Y-85531700D02*
X11154761Y-85593604D01*
X11154761Y-85593604D02*
X10659523Y-85593604D01*
X10659523Y-85593604D02*
X10659523Y-84293604D01*
X10659523Y-84293604D02*
X11092857Y-84293604D01*
X11092857Y-84293604D02*
X11216666Y-84355509D01*
X11216666Y-84355509D02*
X11278571Y-84417414D01*
X11278571Y-84417414D02*
X11340476Y-84541223D01*
X11340476Y-84541223D02*
X11340476Y-84665033D01*
X11340476Y-84665033D02*
X11278571Y-84788842D01*
X11278571Y-84788842D02*
X11216666Y-84850747D01*
X11216666Y-84850747D02*
X11092857Y-84912652D01*
X11092857Y-84912652D02*
X10659523Y-84912652D01*
D10*
D11*
X11402380Y-135469795D02*
X11340476Y-135531700D01*
X11340476Y-135531700D02*
X11154761Y-135593604D01*
X11154761Y-135593604D02*
X11030952Y-135593604D01*
X11030952Y-135593604D02*
X10845238Y-135531700D01*
X10845238Y-135531700D02*
X10721428Y-135407890D01*
X10721428Y-135407890D02*
X10659523Y-135284080D01*
X10659523Y-135284080D02*
X10597619Y-135036461D01*
X10597619Y-135036461D02*
X10597619Y-134850747D01*
X10597619Y-134850747D02*
X10659523Y-134603128D01*
X10659523Y-134603128D02*
X10721428Y-134479319D01*
X10721428Y-134479319D02*
X10845238Y-134355509D01*
X10845238Y-134355509D02*
X11030952Y-134293604D01*
X11030952Y-134293604D02*
X11154761Y-134293604D01*
X11154761Y-134293604D02*
X11340476Y-134355509D01*
X11340476Y-134355509D02*
X11402380Y-134417414D01*
D10*
D11*
X10659523Y-185593604D02*
X10659523Y-184293604D01*
X10659523Y-184293604D02*
X10969047Y-184293604D01*
X10969047Y-184293604D02*
X11154761Y-184355509D01*
X11154761Y-184355509D02*
X11278571Y-184479319D01*
X11278571Y-184479319D02*
X11340476Y-184603128D01*
X11340476Y-184603128D02*
X11402380Y-184850747D01*
X11402380Y-184850747D02*
X11402380Y-185036461D01*
X11402380Y-185036461D02*
X11340476Y-185284080D01*
X11340476Y-185284080D02*
X11278571Y-185407890D01*
X11278571Y-185407890D02*
X11154761Y-185531700D01*
X11154761Y-185531700D02*
X10969047Y-185593604D01*
X10969047Y-185593604D02*
X10659523Y-185593604D01*
D10*
D11*
X287002200Y-60000000D02*
X285002200Y-60000000D01*
D10*
D11*
X287002200Y-110000000D02*
X285002200Y-110000000D01*
D10*
D11*
X287002200Y-160000000D02*
X285002200Y-160000000D01*
D10*
D11*
X285692676Y-35222176D02*
X286311723Y-35222176D01*
X285568866Y-35593604D02*
X286002199Y-34293604D01*
X286002199Y-34293604D02*
X286435533Y-35593604D01*
D10*
D11*
X286095057Y-84912652D02*
X286280771Y-84974557D01*
X286280771Y-84974557D02*
X286342676Y-85036461D01*
X286342676Y-85036461D02*
X286404580Y-85160271D01*
X286404580Y-85160271D02*
X286404580Y-85345985D01*
X286404580Y-85345985D02*
X286342676Y-85469795D01*
X286342676Y-85469795D02*
X286280771Y-85531700D01*
X286280771Y-85531700D02*
X286156961Y-85593604D01*
X286156961Y-85593604D02*
X285661723Y-85593604D01*
X285661723Y-85593604D02*
X285661723Y-84293604D01*
X285661723Y-84293604D02*
X286095057Y-84293604D01*
X286095057Y-84293604D02*
X286218866Y-84355509D01*
X286218866Y-84355509D02*
X286280771Y-84417414D01*
X286280771Y-84417414D02*
X286342676Y-84541223D01*
X286342676Y-84541223D02*
X286342676Y-84665033D01*
X286342676Y-84665033D02*
X286280771Y-84788842D01*
X286280771Y-84788842D02*
X286218866Y-84850747D01*
X286218866Y-84850747D02*
X286095057Y-84912652D01*
X286095057Y-84912652D02*
X285661723Y-84912652D01*
D10*
D11*
X286404580Y-135469795D02*
X286342676Y-135531700D01*
X286342676Y-135531700D02*
X286156961Y-135593604D01*
X286156961Y-135593604D02*
X286033152Y-135593604D01*
X286033152Y-135593604D02*
X285847438Y-135531700D01*
X285847438Y-135531700D02*
X285723628Y-135407890D01*
X285723628Y-135407890D02*
X285661723Y-135284080D01*
X285661723Y-135284080D02*
X285599819Y-135036461D01*
X285599819Y-135036461D02*
X285599819Y-134850747D01*
X285599819Y-134850747D02*
X285661723Y-134603128D01*
X285661723Y-134603128D02*
X285723628Y-134479319D01*
X285723628Y-134479319D02*
X285847438Y-134355509D01*
X285847438Y-134355509D02*
X286033152Y-134293604D01*
X286033152Y-134293604D02*
X286156961Y-134293604D01*
X286156961Y-134293604D02*
X286342676Y-134355509D01*
X286342676Y-134355509D02*
X286404580Y-134417414D01*
D10*
D11*
X285661723Y-185593604D02*
X285661723Y-184293604D01*
X285661723Y-184293604D02*
X285971247Y-184293604D01*
X285971247Y-184293604D02*
X286156961Y-184355509D01*
X286156961Y-184355509D02*
X286280771Y-184479319D01*
X286280771Y-184479319D02*
X286342676Y-184603128D01*
X286342676Y-184603128D02*
X286404580Y-184850747D01*
X286404580Y-184850747D02*
X286404580Y-185036461D01*
X286404580Y-185036461D02*
X286342676Y-185284080D01*
X286342676Y-185284080D02*
X286280771Y-185407890D01*
X286280771Y-185407890D02*
X286156961Y-185531700D01*
X286156961Y-185531700D02*
X285971247Y-185593604D01*
X285971247Y-185593604D02*
X285661723Y-185593604D01*
D10*
D11*
X200458026Y-193793328D02*
X200458026Y-192293328D01*
X200458026Y-192293328D02*
X200815169Y-192293328D01*
X200815169Y-192293328D02*
X201029455Y-192364757D01*
X201029455Y-192364757D02*
X201172312Y-192507614D01*
X201172312Y-192507614D02*
X201243741Y-192650471D01*
X201243741Y-192650471D02*
X201315169Y-192936185D01*
X201315169Y-192936185D02*
X201315169Y-193150471D01*
X201315169Y-193150471D02*
X201243741Y-193436185D01*
X201243741Y-193436185D02*
X201172312Y-193579042D01*
X201172312Y-193579042D02*
X201029455Y-193721900D01*
X201029455Y-193721900D02*
X200815169Y-193793328D01*
X200815169Y-193793328D02*
X200458026Y-193793328D01*
X202600884Y-193793328D02*
X202600884Y-193007614D01*
X202600884Y-193007614D02*
X202529455Y-192864757D01*
X202529455Y-192864757D02*
X202386598Y-192793328D01*
X202386598Y-192793328D02*
X202100884Y-192793328D01*
X202100884Y-192793328D02*
X201958026Y-192864757D01*
X202600884Y-193721900D02*
X202458026Y-193793328D01*
X202458026Y-193793328D02*
X202100884Y-193793328D01*
X202100884Y-193793328D02*
X201958026Y-193721900D01*
X201958026Y-193721900D02*
X201886598Y-193579042D01*
X201886598Y-193579042D02*
X201886598Y-193436185D01*
X201886598Y-193436185D02*
X201958026Y-193293328D01*
X201958026Y-193293328D02*
X202100884Y-193221900D01*
X202100884Y-193221900D02*
X202458026Y-193221900D01*
X202458026Y-193221900D02*
X202600884Y-193150471D01*
X203100884Y-192793328D02*
X203672312Y-192793328D01*
X203315169Y-192293328D02*
X203315169Y-193579042D01*
X203315169Y-193579042D02*
X203386598Y-193721900D01*
X203386598Y-193721900D02*
X203529455Y-193793328D01*
X203529455Y-193793328D02*
X203672312Y-193793328D01*
X204743741Y-193721900D02*
X204600884Y-193793328D01*
X204600884Y-193793328D02*
X204315170Y-193793328D01*
X204315170Y-193793328D02*
X204172312Y-193721900D01*
X204172312Y-193721900D02*
X204100884Y-193579042D01*
X204100884Y-193579042D02*
X204100884Y-193007614D01*
X204100884Y-193007614D02*
X204172312Y-192864757D01*
X204172312Y-192864757D02*
X204315170Y-192793328D01*
X204315170Y-192793328D02*
X204600884Y-192793328D01*
X204600884Y-192793328D02*
X204743741Y-192864757D01*
X204743741Y-192864757D02*
X204815170Y-193007614D01*
X204815170Y-193007614D02*
X204815170Y-193150471D01*
X204815170Y-193150471D02*
X204100884Y-193293328D01*
X205458026Y-193650471D02*
X205529455Y-193721900D01*
X205529455Y-193721900D02*
X205458026Y-193793328D01*
X205458026Y-193793328D02*
X205386598Y-193721900D01*
X205386598Y-193721900D02*
X205458026Y-193650471D01*
X205458026Y-193650471D02*
X205458026Y-193793328D01*
X205458026Y-192864757D02*
X205529455Y-192936185D01*
X205529455Y-192936185D02*
X205458026Y-193007614D01*
X205458026Y-193007614D02*
X205386598Y-192936185D01*
X205386598Y-192936185D02*
X205458026Y-192864757D01*
X205458026Y-192864757D02*
X205458026Y-193007614D01*
X207243741Y-192436185D02*
X207315169Y-192364757D01*
X207315169Y-192364757D02*
X207458027Y-192293328D01*
X207458027Y-192293328D02*
X207815169Y-192293328D01*
X207815169Y-192293328D02*
X207958027Y-192364757D01*
X207958027Y-192364757D02*
X208029455Y-192436185D01*
X208029455Y-192436185D02*
X208100884Y-192579042D01*
X208100884Y-192579042D02*
X208100884Y-192721900D01*
X208100884Y-192721900D02*
X208029455Y-192936185D01*
X208029455Y-192936185D02*
X207172312Y-193793328D01*
X207172312Y-193793328D02*
X208100884Y-193793328D01*
X209029455Y-192293328D02*
X209172312Y-192293328D01*
X209172312Y-192293328D02*
X209315169Y-192364757D01*
X209315169Y-192364757D02*
X209386598Y-192436185D01*
X209386598Y-192436185D02*
X209458026Y-192579042D01*
X209458026Y-192579042D02*
X209529455Y-192864757D01*
X209529455Y-192864757D02*
X209529455Y-193221900D01*
X209529455Y-193221900D02*
X209458026Y-193507614D01*
X209458026Y-193507614D02*
X209386598Y-193650471D01*
X209386598Y-193650471D02*
X209315169Y-193721900D01*
X209315169Y-193721900D02*
X209172312Y-193793328D01*
X209172312Y-193793328D02*
X209029455Y-193793328D01*
X209029455Y-193793328D02*
X208886598Y-193721900D01*
X208886598Y-193721900D02*
X208815169Y-193650471D01*
X208815169Y-193650471D02*
X208743740Y-193507614D01*
X208743740Y-193507614D02*
X208672312Y-193221900D01*
X208672312Y-193221900D02*
X208672312Y-192864757D01*
X208672312Y-192864757D02*
X208743740Y-192579042D01*
X208743740Y-192579042D02*
X208815169Y-192436185D01*
X208815169Y-192436185D02*
X208886598Y-192364757D01*
X208886598Y-192364757D02*
X209029455Y-192293328D01*
X210100883Y-192436185D02*
X210172311Y-192364757D01*
X210172311Y-192364757D02*
X210315169Y-192293328D01*
X210315169Y-192293328D02*
X210672311Y-192293328D01*
X210672311Y-192293328D02*
X210815169Y-192364757D01*
X210815169Y-192364757D02*
X210886597Y-192436185D01*
X210886597Y-192436185D02*
X210958026Y-192579042D01*
X210958026Y-192579042D02*
X210958026Y-192721900D01*
X210958026Y-192721900D02*
X210886597Y-192936185D01*
X210886597Y-192936185D02*
X210029454Y-193793328D01*
X210029454Y-193793328D02*
X210958026Y-193793328D01*
X212315168Y-192293328D02*
X211600882Y-192293328D01*
X211600882Y-192293328D02*
X211529454Y-193007614D01*
X211529454Y-193007614D02*
X211600882Y-192936185D01*
X211600882Y-192936185D02*
X211743740Y-192864757D01*
X211743740Y-192864757D02*
X212100882Y-192864757D01*
X212100882Y-192864757D02*
X212243740Y-192936185D01*
X212243740Y-192936185D02*
X212315168Y-193007614D01*
X212315168Y-193007614D02*
X212386597Y-193150471D01*
X212386597Y-193150471D02*
X212386597Y-193507614D01*
X212386597Y-193507614D02*
X212315168Y-193650471D01*
X212315168Y-193650471D02*
X212243740Y-193721900D01*
X212243740Y-193721900D02*
X212100882Y-193793328D01*
X212100882Y-193793328D02*
X211743740Y-193793328D01*
X211743740Y-193793328D02*
X211600882Y-193721900D01*
X211600882Y-193721900D02*
X211529454Y-193650471D01*
X213029453Y-193221900D02*
X214172311Y-193221900D01*
X215672311Y-193793328D02*
X214815168Y-193793328D01*
X215243739Y-193793328D02*
X215243739Y-192293328D01*
X215243739Y-192293328D02*
X215100882Y-192507614D01*
X215100882Y-192507614D02*
X214958025Y-192650471D01*
X214958025Y-192650471D02*
X214815168Y-192721900D01*
X216600882Y-192293328D02*
X216743739Y-192293328D01*
X216743739Y-192293328D02*
X216886596Y-192364757D01*
X216886596Y-192364757D02*
X216958025Y-192436185D01*
X216958025Y-192436185D02*
X217029453Y-192579042D01*
X217029453Y-192579042D02*
X217100882Y-192864757D01*
X217100882Y-192864757D02*
X217100882Y-193221900D01*
X217100882Y-193221900D02*
X217029453Y-193507614D01*
X217029453Y-193507614D02*
X216958025Y-193650471D01*
X216958025Y-193650471D02*
X216886596Y-193721900D01*
X216886596Y-193721900D02*
X216743739Y-193793328D01*
X216743739Y-193793328D02*
X216600882Y-193793328D01*
X216600882Y-193793328D02*
X216458025Y-193721900D01*
X216458025Y-193721900D02*
X216386596Y-193650471D01*
X216386596Y-193650471D02*
X216315167Y-193507614D01*
X216315167Y-193507614D02*
X216243739Y-193221900D01*
X216243739Y-193221900D02*
X216243739Y-192864757D01*
X216243739Y-192864757D02*
X216315167Y-192579042D01*
X216315167Y-192579042D02*
X216386596Y-192436185D01*
X216386596Y-192436185D02*
X216458025Y-192364757D01*
X216458025Y-192364757D02*
X216600882Y-192293328D01*
X217743738Y-193221900D02*
X218886596Y-193221900D01*
X220386596Y-193793328D02*
X219529453Y-193793328D01*
X219958024Y-193793328D02*
X219958024Y-192293328D01*
X219958024Y-192293328D02*
X219815167Y-192507614D01*
X219815167Y-192507614D02*
X219672310Y-192650471D01*
X219672310Y-192650471D02*
X219529453Y-192721900D01*
X221672310Y-192293328D02*
X221386595Y-192293328D01*
X221386595Y-192293328D02*
X221243738Y-192364757D01*
X221243738Y-192364757D02*
X221172310Y-192436185D01*
X221172310Y-192436185D02*
X221029452Y-192650471D01*
X221029452Y-192650471D02*
X220958024Y-192936185D01*
X220958024Y-192936185D02*
X220958024Y-193507614D01*
X220958024Y-193507614D02*
X221029452Y-193650471D01*
X221029452Y-193650471D02*
X221100881Y-193721900D01*
X221100881Y-193721900D02*
X221243738Y-193793328D01*
X221243738Y-193793328D02*
X221529452Y-193793328D01*
X221529452Y-193793328D02*
X221672310Y-193721900D01*
X221672310Y-193721900D02*
X221743738Y-193650471D01*
X221743738Y-193650471D02*
X221815167Y-193507614D01*
X221815167Y-193507614D02*
X221815167Y-193150471D01*
X221815167Y-193150471D02*
X221743738Y-193007614D01*
X221743738Y-193007614D02*
X221672310Y-192936185D01*
X221672310Y-192936185D02*
X221529452Y-192864757D01*
X221529452Y-192864757D02*
X221243738Y-192864757D01*
X221243738Y-192864757D02*
X221100881Y-192936185D01*
X221100881Y-192936185D02*
X221029452Y-193007614D01*
X221029452Y-193007614D02*
X220958024Y-193150471D01*
D10*
D11*
X177002200Y-194507200D02*
X285002200Y-194507200D01*
D10*
D11*
X178458026Y-196593328D02*
X178458026Y-195093328D01*
X179315169Y-196593328D02*
X178672312Y-195736185D01*
X179315169Y-195093328D02*
X178458026Y-195950471D01*
X179958026Y-196593328D02*
X179958026Y-195593328D01*
X179958026Y-195093328D02*
X179886598Y-195164757D01*
X179886598Y-195164757D02*
X179958026Y-195236185D01*
X179958026Y-195236185D02*
X180029455Y-195164757D01*
X180029455Y-195164757D02*
X179958026Y-195093328D01*
X179958026Y-195093328D02*
X179958026Y-195236185D01*
X181529455Y-196450471D02*
X181458027Y-196521900D01*
X181458027Y-196521900D02*
X181243741Y-196593328D01*
X181243741Y-196593328D02*
X181100884Y-196593328D01*
X181100884Y-196593328D02*
X180886598Y-196521900D01*
X180886598Y-196521900D02*
X180743741Y-196379042D01*
X180743741Y-196379042D02*
X180672312Y-196236185D01*
X180672312Y-196236185D02*
X180600884Y-195950471D01*
X180600884Y-195950471D02*
X180600884Y-195736185D01*
X180600884Y-195736185D02*
X180672312Y-195450471D01*
X180672312Y-195450471D02*
X180743741Y-195307614D01*
X180743741Y-195307614D02*
X180886598Y-195164757D01*
X180886598Y-195164757D02*
X181100884Y-195093328D01*
X181100884Y-195093328D02*
X181243741Y-195093328D01*
X181243741Y-195093328D02*
X181458027Y-195164757D01*
X181458027Y-195164757D02*
X181529455Y-195236185D01*
X182815170Y-196593328D02*
X182815170Y-195807614D01*
X182815170Y-195807614D02*
X182743741Y-195664757D01*
X182743741Y-195664757D02*
X182600884Y-195593328D01*
X182600884Y-195593328D02*
X182315170Y-195593328D01*
X182315170Y-195593328D02*
X182172312Y-195664757D01*
X182815170Y-196521900D02*
X182672312Y-196593328D01*
X182672312Y-196593328D02*
X182315170Y-196593328D01*
X182315170Y-196593328D02*
X182172312Y-196521900D01*
X182172312Y-196521900D02*
X182100884Y-196379042D01*
X182100884Y-196379042D02*
X182100884Y-196236185D01*
X182100884Y-196236185D02*
X182172312Y-196093328D01*
X182172312Y-196093328D02*
X182315170Y-196021900D01*
X182315170Y-196021900D02*
X182672312Y-196021900D01*
X182672312Y-196021900D02*
X182815170Y-195950471D01*
X184172313Y-196593328D02*
X184172313Y-195093328D01*
X184172313Y-196521900D02*
X184029455Y-196593328D01*
X184029455Y-196593328D02*
X183743741Y-196593328D01*
X183743741Y-196593328D02*
X183600884Y-196521900D01*
X183600884Y-196521900D02*
X183529455Y-196450471D01*
X183529455Y-196450471D02*
X183458027Y-196307614D01*
X183458027Y-196307614D02*
X183458027Y-195879042D01*
X183458027Y-195879042D02*
X183529455Y-195736185D01*
X183529455Y-195736185D02*
X183600884Y-195664757D01*
X183600884Y-195664757D02*
X183743741Y-195593328D01*
X183743741Y-195593328D02*
X184029455Y-195593328D01*
X184029455Y-195593328D02*
X184172313Y-195664757D01*
X186029455Y-195807614D02*
X186529455Y-195807614D01*
X186743741Y-196593328D02*
X186029455Y-196593328D01*
X186029455Y-196593328D02*
X186029455Y-195093328D01*
X186029455Y-195093328D02*
X186743741Y-195093328D01*
X187386598Y-196450471D02*
X187458027Y-196521900D01*
X187458027Y-196521900D02*
X187386598Y-196593328D01*
X187386598Y-196593328D02*
X187315170Y-196521900D01*
X187315170Y-196521900D02*
X187386598Y-196450471D01*
X187386598Y-196450471D02*
X187386598Y-196593328D01*
X188100884Y-196593328D02*
X188100884Y-195093328D01*
X188100884Y-195093328D02*
X188458027Y-195093328D01*
X188458027Y-195093328D02*
X188672313Y-195164757D01*
X188672313Y-195164757D02*
X188815170Y-195307614D01*
X188815170Y-195307614D02*
X188886599Y-195450471D01*
X188886599Y-195450471D02*
X188958027Y-195736185D01*
X188958027Y-195736185D02*
X188958027Y-195950471D01*
X188958027Y-195950471D02*
X188886599Y-196236185D01*
X188886599Y-196236185D02*
X188815170Y-196379042D01*
X188815170Y-196379042D02*
X188672313Y-196521900D01*
X188672313Y-196521900D02*
X188458027Y-196593328D01*
X188458027Y-196593328D02*
X188100884Y-196593328D01*
X189600884Y-196450471D02*
X189672313Y-196521900D01*
X189672313Y-196521900D02*
X189600884Y-196593328D01*
X189600884Y-196593328D02*
X189529456Y-196521900D01*
X189529456Y-196521900D02*
X189600884Y-196450471D01*
X189600884Y-196450471D02*
X189600884Y-196593328D01*
X190243742Y-196164757D02*
X190958028Y-196164757D01*
X190100885Y-196593328D02*
X190600885Y-195093328D01*
X190600885Y-195093328D02*
X191100885Y-196593328D01*
X191600884Y-196450471D02*
X191672313Y-196521900D01*
X191672313Y-196521900D02*
X191600884Y-196593328D01*
X191600884Y-196593328D02*
X191529456Y-196521900D01*
X191529456Y-196521900D02*
X191600884Y-196450471D01*
X191600884Y-196450471D02*
X191600884Y-196593328D01*
X193529456Y-196593328D02*
X193815170Y-196593328D01*
X193815170Y-196593328D02*
X193958027Y-196521900D01*
X193958027Y-196521900D02*
X194029456Y-196450471D01*
X194029456Y-196450471D02*
X194172313Y-196236185D01*
X194172313Y-196236185D02*
X194243742Y-195950471D01*
X194243742Y-195950471D02*
X194243742Y-195379042D01*
X194243742Y-195379042D02*
X194172313Y-195236185D01*
X194172313Y-195236185D02*
X194100885Y-195164757D01*
X194100885Y-195164757D02*
X193958027Y-195093328D01*
X193958027Y-195093328D02*
X193672313Y-195093328D01*
X193672313Y-195093328D02*
X193529456Y-195164757D01*
X193529456Y-195164757D02*
X193458027Y-195236185D01*
X193458027Y-195236185D02*
X193386599Y-195379042D01*
X193386599Y-195379042D02*
X193386599Y-195736185D01*
X193386599Y-195736185D02*
X193458027Y-195879042D01*
X193458027Y-195879042D02*
X193529456Y-195950471D01*
X193529456Y-195950471D02*
X193672313Y-196021900D01*
X193672313Y-196021900D02*
X193958027Y-196021900D01*
X193958027Y-196021900D02*
X194100885Y-195950471D01*
X194100885Y-195950471D02*
X194172313Y-195879042D01*
X194172313Y-195879042D02*
X194243742Y-195736185D01*
X194886598Y-196450471D02*
X194958027Y-196521900D01*
X194958027Y-196521900D02*
X194886598Y-196593328D01*
X194886598Y-196593328D02*
X194815170Y-196521900D01*
X194815170Y-196521900D02*
X194886598Y-196450471D01*
X194886598Y-196450471D02*
X194886598Y-196593328D01*
X195886599Y-195093328D02*
X196029456Y-195093328D01*
X196029456Y-195093328D02*
X196172313Y-195164757D01*
X196172313Y-195164757D02*
X196243742Y-195236185D01*
X196243742Y-195236185D02*
X196315170Y-195379042D01*
X196315170Y-195379042D02*
X196386599Y-195664757D01*
X196386599Y-195664757D02*
X196386599Y-196021900D01*
X196386599Y-196021900D02*
X196315170Y-196307614D01*
X196315170Y-196307614D02*
X196243742Y-196450471D01*
X196243742Y-196450471D02*
X196172313Y-196521900D01*
X196172313Y-196521900D02*
X196029456Y-196593328D01*
X196029456Y-196593328D02*
X195886599Y-196593328D01*
X195886599Y-196593328D02*
X195743742Y-196521900D01*
X195743742Y-196521900D02*
X195672313Y-196450471D01*
X195672313Y-196450471D02*
X195600884Y-196307614D01*
X195600884Y-196307614D02*
X195529456Y-196021900D01*
X195529456Y-196021900D02*
X195529456Y-195664757D01*
X195529456Y-195664757D02*
X195600884Y-195379042D01*
X195600884Y-195379042D02*
X195672313Y-195236185D01*
X195672313Y-195236185D02*
X195743742Y-195164757D01*
X195743742Y-195164757D02*
X195886599Y-195093328D01*
X197029455Y-196450471D02*
X197100884Y-196521900D01*
X197100884Y-196521900D02*
X197029455Y-196593328D01*
X197029455Y-196593328D02*
X196958027Y-196521900D01*
X196958027Y-196521900D02*
X197029455Y-196450471D01*
X197029455Y-196450471D02*
X197029455Y-196593328D01*
X197600884Y-195093328D02*
X198529456Y-195093328D01*
X198529456Y-195093328D02*
X198029456Y-195664757D01*
X198029456Y-195664757D02*
X198243741Y-195664757D01*
X198243741Y-195664757D02*
X198386599Y-195736185D01*
X198386599Y-195736185D02*
X198458027Y-195807614D01*
X198458027Y-195807614D02*
X198529456Y-195950471D01*
X198529456Y-195950471D02*
X198529456Y-196307614D01*
X198529456Y-196307614D02*
X198458027Y-196450471D01*
X198458027Y-196450471D02*
X198386599Y-196521900D01*
X198386599Y-196521900D02*
X198243741Y-196593328D01*
X198243741Y-196593328D02*
X197815170Y-196593328D01*
X197815170Y-196593328D02*
X197672313Y-196521900D01*
X197672313Y-196521900D02*
X197600884Y-196450471D01*
D10*
D11*
X177002200Y-191507200D02*
X285002200Y-191507200D01*
D10*
D12*
X264413853Y-193785528D02*
X263913853Y-193071242D01*
X263556710Y-193785528D02*
X263556710Y-192285528D01*
X263556710Y-192285528D02*
X264128139Y-192285528D01*
X264128139Y-192285528D02*
X264270996Y-192356957D01*
X264270996Y-192356957D02*
X264342425Y-192428385D01*
X264342425Y-192428385D02*
X264413853Y-192571242D01*
X264413853Y-192571242D02*
X264413853Y-192785528D01*
X264413853Y-192785528D02*
X264342425Y-192928385D01*
X264342425Y-192928385D02*
X264270996Y-192999814D01*
X264270996Y-192999814D02*
X264128139Y-193071242D01*
X264128139Y-193071242D02*
X263556710Y-193071242D01*
X265628139Y-193714100D02*
X265485282Y-193785528D01*
X265485282Y-193785528D02*
X265199568Y-193785528D01*
X265199568Y-193785528D02*
X265056710Y-193714100D01*
X265056710Y-193714100D02*
X264985282Y-193571242D01*
X264985282Y-193571242D02*
X264985282Y-192999814D01*
X264985282Y-192999814D02*
X265056710Y-192856957D01*
X265056710Y-192856957D02*
X265199568Y-192785528D01*
X265199568Y-192785528D02*
X265485282Y-192785528D01*
X265485282Y-192785528D02*
X265628139Y-192856957D01*
X265628139Y-192856957D02*
X265699568Y-192999814D01*
X265699568Y-192999814D02*
X265699568Y-193142671D01*
X265699568Y-193142671D02*
X264985282Y-193285528D01*
X266199567Y-192785528D02*
X266556710Y-193785528D01*
X266556710Y-193785528D02*
X266913853Y-192785528D01*
X267485281Y-193642671D02*
X267556710Y-193714100D01*
X267556710Y-193714100D02*
X267485281Y-193785528D01*
X267485281Y-193785528D02*
X267413853Y-193714100D01*
X267413853Y-193714100D02*
X267485281Y-193642671D01*
X267485281Y-193642671D02*
X267485281Y-193785528D01*
X267485281Y-192856957D02*
X267556710Y-192928385D01*
X267556710Y-192928385D02*
X267485281Y-192999814D01*
X267485281Y-192999814D02*
X267413853Y-192928385D01*
X267413853Y-192928385D02*
X267485281Y-192856957D01*
X267485281Y-192856957D02*
X267485281Y-192999814D01*
X270128139Y-193785528D02*
X269270996Y-193785528D01*
X269699567Y-193785528D02*
X269699567Y-192285528D01*
X269699567Y-192285528D02*
X269556710Y-192499814D01*
X269556710Y-192499814D02*
X269413853Y-192642671D01*
X269413853Y-192642671D02*
X269270996Y-192714100D01*
X270770995Y-193642671D02*
X270842424Y-193714100D01*
X270842424Y-193714100D02*
X270770995Y-193785528D01*
X270770995Y-193785528D02*
X270699567Y-193714100D01*
X270699567Y-193714100D02*
X270770995Y-193642671D01*
X270770995Y-193642671D02*
X270770995Y-193785528D01*
X271770996Y-192285528D02*
X271913853Y-192285528D01*
X271913853Y-192285528D02*
X272056710Y-192356957D01*
X272056710Y-192356957D02*
X272128139Y-192428385D01*
X272128139Y-192428385D02*
X272199567Y-192571242D01*
X272199567Y-192571242D02*
X272270996Y-192856957D01*
X272270996Y-192856957D02*
X272270996Y-193214100D01*
X272270996Y-193214100D02*
X272199567Y-193499814D01*
X272199567Y-193499814D02*
X272128139Y-193642671D01*
X272128139Y-193642671D02*
X272056710Y-193714100D01*
X272056710Y-193714100D02*
X271913853Y-193785528D01*
X271913853Y-193785528D02*
X271770996Y-193785528D01*
X271770996Y-193785528D02*
X271628139Y-193714100D01*
X271628139Y-193714100D02*
X271556710Y-193642671D01*
X271556710Y-193642671D02*
X271485281Y-193499814D01*
X271485281Y-193499814D02*
X271413853Y-193214100D01*
X271413853Y-193214100D02*
X271413853Y-192856957D01*
X271413853Y-192856957D02*
X271485281Y-192571242D01*
X271485281Y-192571242D02*
X271556710Y-192428385D01*
X271556710Y-192428385D02*
X271628139Y-192356957D01*
X271628139Y-192356957D02*
X271770996Y-192285528D01*
D10*
D11*
X178386598Y-193721900D02*
X178600884Y-193793328D01*
X178600884Y-193793328D02*
X178958026Y-193793328D01*
X178958026Y-193793328D02*
X179100884Y-193721900D01*
X179100884Y-193721900D02*
X179172312Y-193650471D01*
X179172312Y-193650471D02*
X179243741Y-193507614D01*
X179243741Y-193507614D02*
X179243741Y-193364757D01*
X179243741Y-193364757D02*
X179172312Y-193221900D01*
X179172312Y-193221900D02*
X179100884Y-193150471D01*
X179100884Y-193150471D02*
X178958026Y-193079042D01*
X178958026Y-193079042D02*
X178672312Y-193007614D01*
X178672312Y-193007614D02*
X178529455Y-192936185D01*
X178529455Y-192936185D02*
X178458026Y-192864757D01*
X178458026Y-192864757D02*
X178386598Y-192721900D01*
X178386598Y-192721900D02*
X178386598Y-192579042D01*
X178386598Y-192579042D02*
X178458026Y-192436185D01*
X178458026Y-192436185D02*
X178529455Y-192364757D01*
X178529455Y-192364757D02*
X178672312Y-192293328D01*
X178672312Y-192293328D02*
X179029455Y-192293328D01*
X179029455Y-192293328D02*
X179243741Y-192364757D01*
X179886597Y-193793328D02*
X179886597Y-192793328D01*
X179886597Y-192293328D02*
X179815169Y-192364757D01*
X179815169Y-192364757D02*
X179886597Y-192436185D01*
X179886597Y-192436185D02*
X179958026Y-192364757D01*
X179958026Y-192364757D02*
X179886597Y-192293328D01*
X179886597Y-192293328D02*
X179886597Y-192436185D01*
X180458026Y-192793328D02*
X181243741Y-192793328D01*
X181243741Y-192793328D02*
X180458026Y-193793328D01*
X180458026Y-193793328D02*
X181243741Y-193793328D01*
X182386598Y-193721900D02*
X182243741Y-193793328D01*
X182243741Y-193793328D02*
X181958027Y-193793328D01*
X181958027Y-193793328D02*
X181815169Y-193721900D01*
X181815169Y-193721900D02*
X181743741Y-193579042D01*
X181743741Y-193579042D02*
X181743741Y-193007614D01*
X181743741Y-193007614D02*
X181815169Y-192864757D01*
X181815169Y-192864757D02*
X181958027Y-192793328D01*
X181958027Y-192793328D02*
X182243741Y-192793328D01*
X182243741Y-192793328D02*
X182386598Y-192864757D01*
X182386598Y-192864757D02*
X182458027Y-193007614D01*
X182458027Y-193007614D02*
X182458027Y-193150471D01*
X182458027Y-193150471D02*
X181743741Y-193293328D01*
X183100883Y-193650471D02*
X183172312Y-193721900D01*
X183172312Y-193721900D02*
X183100883Y-193793328D01*
X183100883Y-193793328D02*
X183029455Y-193721900D01*
X183029455Y-193721900D02*
X183100883Y-193650471D01*
X183100883Y-193650471D02*
X183100883Y-193793328D01*
X183100883Y-192864757D02*
X183172312Y-192936185D01*
X183172312Y-192936185D02*
X183100883Y-193007614D01*
X183100883Y-193007614D02*
X183029455Y-192936185D01*
X183029455Y-192936185D02*
X183100883Y-192864757D01*
X183100883Y-192864757D02*
X183100883Y-193007614D01*
X184886598Y-193364757D02*
X185600884Y-193364757D01*
X184743741Y-193793328D02*
X185243741Y-192293328D01*
X185243741Y-192293328D02*
X185743741Y-193793328D01*
X186886598Y-192793328D02*
X186886598Y-193793328D01*
X186529455Y-192221900D02*
X186172312Y-193293328D01*
X186172312Y-193293328D02*
X187100883Y-193293328D01*
D10*
D11*
X263458026Y-196593328D02*
X263458026Y-195093328D01*
X264815170Y-196593328D02*
X264815170Y-195093328D01*
X264815170Y-196521900D02*
X264672312Y-196593328D01*
X264672312Y-196593328D02*
X264386598Y-196593328D01*
X264386598Y-196593328D02*
X264243741Y-196521900D01*
X264243741Y-196521900D02*
X264172312Y-196450471D01*
X264172312Y-196450471D02*
X264100884Y-196307614D01*
X264100884Y-196307614D02*
X264100884Y-195879042D01*
X264100884Y-195879042D02*
X264172312Y-195736185D01*
X264172312Y-195736185D02*
X264243741Y-195664757D01*
X264243741Y-195664757D02*
X264386598Y-195593328D01*
X264386598Y-195593328D02*
X264672312Y-195593328D01*
X264672312Y-195593328D02*
X264815170Y-195664757D01*
X265529455Y-196450471D02*
X265600884Y-196521900D01*
X265600884Y-196521900D02*
X265529455Y-196593328D01*
X265529455Y-196593328D02*
X265458027Y-196521900D01*
X265458027Y-196521900D02*
X265529455Y-196450471D01*
X265529455Y-196450471D02*
X265529455Y-196593328D01*
X265529455Y-195664757D02*
X265600884Y-195736185D01*
X265600884Y-195736185D02*
X265529455Y-195807614D01*
X265529455Y-195807614D02*
X265458027Y-195736185D01*
X265458027Y-195736185D02*
X265529455Y-195664757D01*
X265529455Y-195664757D02*
X265529455Y-195807614D01*
X267243741Y-195093328D02*
X268243741Y-195093328D01*
X268243741Y-195093328D02*
X267600884Y-196593328D01*
X269886598Y-195021900D02*
X268600884Y-196950471D01*
X271172313Y-196593328D02*
X270315170Y-196593328D01*
X270743741Y-196593328D02*
X270743741Y-195093328D01*
X270743741Y-195093328D02*
X270600884Y-195307614D01*
X270600884Y-195307614D02*
X270458027Y-195450471D01*
X270458027Y-195450471D02*
X270315170Y-195521900D01*
X272600884Y-196593328D02*
X271743741Y-196593328D01*
X272172312Y-196593328D02*
X272172312Y-195093328D01*
X272172312Y-195093328D02*
X272029455Y-195307614D01*
X272029455Y-195307614D02*
X271886598Y-195450471D01*
X271886598Y-195450471D02*
X271743741Y-195521900D01*
D10*
D11*
X177002200Y-187507200D02*
X285002200Y-187507200D01*
D10*
D13*
X178693928Y-188211638D02*
X179836785Y-188211638D01*
X179015357Y-190211638D02*
X179265357Y-188211638D01*
X180253452Y-190211638D02*
X180420119Y-188878304D01*
X180503452Y-188211638D02*
X180396309Y-188306876D01*
X180396309Y-188306876D02*
X180479643Y-188402114D01*
X180479643Y-188402114D02*
X180586786Y-188306876D01*
X180586786Y-188306876D02*
X180503452Y-188211638D01*
X180503452Y-188211638D02*
X180479643Y-188402114D01*
X181086786Y-188878304D02*
X181848690Y-188878304D01*
X181455833Y-188211638D02*
X181241548Y-189925923D01*
X181241548Y-189925923D02*
X181312976Y-190116400D01*
X181312976Y-190116400D02*
X181491548Y-190211638D01*
X181491548Y-190211638D02*
X181682024Y-190211638D01*
X182634405Y-190211638D02*
X182455833Y-190116400D01*
X182455833Y-190116400D02*
X182384405Y-189925923D01*
X182384405Y-189925923D02*
X182598690Y-188211638D01*
X184170119Y-190116400D02*
X183967738Y-190211638D01*
X183967738Y-190211638D02*
X183586785Y-190211638D01*
X183586785Y-190211638D02*
X183408214Y-190116400D01*
X183408214Y-190116400D02*
X183336785Y-189925923D01*
X183336785Y-189925923D02*
X183432024Y-189164019D01*
X183432024Y-189164019D02*
X183551071Y-188973542D01*
X183551071Y-188973542D02*
X183753452Y-188878304D01*
X183753452Y-188878304D02*
X184134404Y-188878304D01*
X184134404Y-188878304D02*
X184312976Y-188973542D01*
X184312976Y-188973542D02*
X184384404Y-189164019D01*
X184384404Y-189164019D02*
X184360595Y-189354495D01*
X184360595Y-189354495D02*
X183384404Y-189544971D01*
X185134405Y-190021161D02*
X185217738Y-190116400D01*
X185217738Y-190116400D02*
X185110595Y-190211638D01*
X185110595Y-190211638D02*
X185027262Y-190116400D01*
X185027262Y-190116400D02*
X185134405Y-190021161D01*
X185134405Y-190021161D02*
X185110595Y-190211638D01*
X185265357Y-188973542D02*
X185348690Y-189068780D01*
X185348690Y-189068780D02*
X185241548Y-189164019D01*
X185241548Y-189164019D02*
X185158214Y-189068780D01*
X185158214Y-189068780D02*
X185265357Y-188973542D01*
X185265357Y-188973542D02*
X185241548Y-189164019D01*
X188872501Y-188306876D02*
X188693929Y-188211638D01*
X188693929Y-188211638D02*
X188408215Y-188211638D01*
X188408215Y-188211638D02*
X188110596Y-188306876D01*
X188110596Y-188306876D02*
X187896310Y-188497352D01*
X187896310Y-188497352D02*
X187777262Y-188687828D01*
X187777262Y-188687828D02*
X187634405Y-189068780D01*
X187634405Y-189068780D02*
X187598691Y-189354495D01*
X187598691Y-189354495D02*
X187646310Y-189735447D01*
X187646310Y-189735447D02*
X187717739Y-189925923D01*
X187717739Y-189925923D02*
X187884405Y-190116400D01*
X187884405Y-190116400D02*
X188158215Y-190211638D01*
X188158215Y-190211638D02*
X188348691Y-190211638D01*
X188348691Y-190211638D02*
X188646310Y-190116400D01*
X188646310Y-190116400D02*
X188753453Y-190021161D01*
X188753453Y-190021161D02*
X188836786Y-189354495D01*
X188836786Y-189354495D02*
X188455834Y-189354495D01*
X189586786Y-190211638D02*
X189836786Y-188211638D01*
X189836786Y-188211638D02*
X190324881Y-189640209D01*
X190324881Y-189640209D02*
X191170120Y-188211638D01*
X191170120Y-188211638D02*
X190920120Y-190211638D01*
X191872500Y-190211638D02*
X192122500Y-188211638D01*
X192122500Y-188211638D02*
X192610595Y-189640209D01*
X192610595Y-189640209D02*
X193455834Y-188211638D01*
X193455834Y-188211638D02*
X193205834Y-190211638D01*
X194253452Y-189449733D02*
X195777262Y-189449733D01*
X196693928Y-188211638D02*
X198027261Y-188211638D01*
X198027261Y-188211638D02*
X196920119Y-190211638D01*
X199741547Y-188211638D02*
X198789166Y-188211638D01*
X198789166Y-188211638D02*
X198574881Y-189164019D01*
X198574881Y-189164019D02*
X198682023Y-189068780D01*
X198682023Y-189068780D02*
X198884404Y-188973542D01*
X198884404Y-188973542D02*
X199360595Y-188973542D01*
X199360595Y-188973542D02*
X199539166Y-189068780D01*
X199539166Y-189068780D02*
X199622500Y-189164019D01*
X199622500Y-189164019D02*
X199693928Y-189354495D01*
X199693928Y-189354495D02*
X199634404Y-189830685D01*
X199634404Y-189830685D02*
X199515357Y-190021161D01*
X199515357Y-190021161D02*
X199408214Y-190116400D01*
X199408214Y-190116400D02*
X199205833Y-190211638D01*
X199205833Y-190211638D02*
X198729642Y-190211638D01*
X198729642Y-190211638D02*
X198551071Y-190116400D01*
X198551071Y-190116400D02*
X198467738Y-190021161D01*
X201646309Y-188211638D02*
X200693928Y-188211638D01*
X200693928Y-188211638D02*
X200479643Y-189164019D01*
X200479643Y-189164019D02*
X200586785Y-189068780D01*
X200586785Y-189068780D02*
X200789166Y-188973542D01*
X200789166Y-188973542D02*
X201265357Y-188973542D01*
X201265357Y-188973542D02*
X201443928Y-189068780D01*
X201443928Y-189068780D02*
X201527262Y-189164019D01*
X201527262Y-189164019D02*
X201598690Y-189354495D01*
X201598690Y-189354495D02*
X201539166Y-189830685D01*
X201539166Y-189830685D02*
X201420119Y-190021161D01*
X201420119Y-190021161D02*
X201312976Y-190116400D01*
X201312976Y-190116400D02*
X201110595Y-190211638D01*
X201110595Y-190211638D02*
X200634404Y-190211638D01*
X200634404Y-190211638D02*
X200455833Y-190116400D01*
X200455833Y-190116400D02*
X200372500Y-190021161D01*
X202979643Y-188211638D02*
X203170119Y-188211638D01*
X203170119Y-188211638D02*
X203348690Y-188306876D01*
X203348690Y-188306876D02*
X203432024Y-188402114D01*
X203432024Y-188402114D02*
X203503452Y-188592590D01*
X203503452Y-188592590D02*
X203551071Y-188973542D01*
X203551071Y-188973542D02*
X203491547Y-189449733D01*
X203491547Y-189449733D02*
X203348690Y-189830685D01*
X203348690Y-189830685D02*
X203229643Y-190021161D01*
X203229643Y-190021161D02*
X203122500Y-190116400D01*
X203122500Y-190116400D02*
X202920119Y-190211638D01*
X202920119Y-190211638D02*
X202729643Y-190211638D01*
X202729643Y-190211638D02*
X202551071Y-190116400D01*
X202551071Y-190116400D02*
X202467738Y-190021161D01*
X202467738Y-190021161D02*
X202396309Y-189830685D01*
X202396309Y-189830685D02*
X202348690Y-189449733D01*
X202348690Y-189449733D02*
X202408214Y-188973542D01*
X202408214Y-188973542D02*
X202551071Y-188592590D01*
X202551071Y-188592590D02*
X202670119Y-188402114D01*
X202670119Y-188402114D02*
X202777262Y-188306876D01*
X202777262Y-188306876D02*
X202979643Y-188211638D01*
X206027262Y-188211638D02*
X205824881Y-189830685D01*
X205824881Y-189830685D02*
X205896310Y-190021161D01*
X205896310Y-190021161D02*
X205979643Y-190116400D01*
X205979643Y-190116400D02*
X206158215Y-190211638D01*
X206158215Y-190211638D02*
X206539167Y-190211638D01*
X206539167Y-190211638D02*
X206741548Y-190116400D01*
X206741548Y-190116400D02*
X206848691Y-190021161D01*
X206848691Y-190021161D02*
X206967738Y-189830685D01*
X206967738Y-189830685D02*
X207170119Y-188211638D01*
X207789167Y-190116400D02*
X208062976Y-190211638D01*
X208062976Y-190211638D02*
X208539167Y-190211638D01*
X208539167Y-190211638D02*
X208741548Y-190116400D01*
X208741548Y-190116400D02*
X208848691Y-190021161D01*
X208848691Y-190021161D02*
X208967738Y-189830685D01*
X208967738Y-189830685D02*
X208991548Y-189640209D01*
X208991548Y-189640209D02*
X208920119Y-189449733D01*
X208920119Y-189449733D02*
X208836786Y-189354495D01*
X208836786Y-189354495D02*
X208658215Y-189259257D01*
X208658215Y-189259257D02*
X208289167Y-189164019D01*
X208289167Y-189164019D02*
X208110595Y-189068780D01*
X208110595Y-189068780D02*
X208027262Y-188973542D01*
X208027262Y-188973542D02*
X207955834Y-188783066D01*
X207955834Y-188783066D02*
X207979643Y-188592590D01*
X207979643Y-188592590D02*
X208098691Y-188402114D01*
X208098691Y-188402114D02*
X208205834Y-188306876D01*
X208205834Y-188306876D02*
X208408215Y-188211638D01*
X208408215Y-188211638D02*
X208884405Y-188211638D01*
X208884405Y-188211638D02*
X209158215Y-188306876D01*
X210574881Y-189164019D02*
X210848691Y-189259257D01*
X210848691Y-189259257D02*
X210932024Y-189354495D01*
X210932024Y-189354495D02*
X211003453Y-189544971D01*
X211003453Y-189544971D02*
X210967738Y-189830685D01*
X210967738Y-189830685D02*
X210848691Y-190021161D01*
X210848691Y-190021161D02*
X210741548Y-190116400D01*
X210741548Y-190116400D02*
X210539167Y-190211638D01*
X210539167Y-190211638D02*
X209777262Y-190211638D01*
X209777262Y-190211638D02*
X210027262Y-188211638D01*
X210027262Y-188211638D02*
X210693929Y-188211638D01*
X210693929Y-188211638D02*
X210872500Y-188306876D01*
X210872500Y-188306876D02*
X210955834Y-188402114D01*
X210955834Y-188402114D02*
X211027262Y-188592590D01*
X211027262Y-188592590D02*
X211003453Y-188783066D01*
X211003453Y-188783066D02*
X210884405Y-188973542D01*
X210884405Y-188973542D02*
X210777262Y-189068780D01*
X210777262Y-189068780D02*
X210574881Y-189164019D01*
X210574881Y-189164019D02*
X209908215Y-189164019D01*
X211836786Y-188211638D02*
X213074881Y-188211638D01*
X213074881Y-188211638D02*
X212312977Y-188973542D01*
X212312977Y-188973542D02*
X212598691Y-188973542D01*
X212598691Y-188973542D02*
X212777262Y-189068780D01*
X212777262Y-189068780D02*
X212860596Y-189164019D01*
X212860596Y-189164019D02*
X212932024Y-189354495D01*
X212932024Y-189354495D02*
X212872500Y-189830685D01*
X212872500Y-189830685D02*
X212753453Y-190021161D01*
X212753453Y-190021161D02*
X212646310Y-190116400D01*
X212646310Y-190116400D02*
X212443929Y-190211638D01*
X212443929Y-190211638D02*
X211872500Y-190211638D01*
X211872500Y-190211638D02*
X211693929Y-190116400D01*
X211693929Y-190116400D02*
X211610596Y-190021161D01*
X215182025Y-189640209D02*
X216134406Y-189640209D01*
X214920120Y-190211638D02*
X215836787Y-188211638D01*
X215836787Y-188211638D02*
X216253453Y-190211638D01*
X217777263Y-190211638D02*
X218027263Y-188211638D01*
X217789168Y-190116400D02*
X217586787Y-190211638D01*
X217586787Y-190211638D02*
X217205835Y-190211638D01*
X217205835Y-190211638D02*
X217027263Y-190116400D01*
X217027263Y-190116400D02*
X216943930Y-190021161D01*
X216943930Y-190021161D02*
X216872501Y-189830685D01*
X216872501Y-189830685D02*
X216943930Y-189259257D01*
X216943930Y-189259257D02*
X217062977Y-189068780D01*
X217062977Y-189068780D02*
X217170120Y-188973542D01*
X217170120Y-188973542D02*
X217372501Y-188878304D01*
X217372501Y-188878304D02*
X217753454Y-188878304D01*
X217753454Y-188878304D02*
X217932025Y-188973542D01*
X219586787Y-190211638D02*
X219717739Y-189164019D01*
X219717739Y-189164019D02*
X219646311Y-188973542D01*
X219646311Y-188973542D02*
X219467739Y-188878304D01*
X219467739Y-188878304D02*
X219086787Y-188878304D01*
X219086787Y-188878304D02*
X218884406Y-188973542D01*
X219598692Y-190116400D02*
X219396311Y-190211638D01*
X219396311Y-190211638D02*
X218920120Y-190211638D01*
X218920120Y-190211638D02*
X218741549Y-190116400D01*
X218741549Y-190116400D02*
X218670120Y-189925923D01*
X218670120Y-189925923D02*
X218693930Y-189735447D01*
X218693930Y-189735447D02*
X218812978Y-189544971D01*
X218812978Y-189544971D02*
X219015359Y-189449733D01*
X219015359Y-189449733D02*
X219491549Y-189449733D01*
X219491549Y-189449733D02*
X219693930Y-189354495D01*
X220705835Y-188878304D02*
X220455835Y-190878304D01*
X220693930Y-188973542D02*
X220896311Y-188878304D01*
X220896311Y-188878304D02*
X221277263Y-188878304D01*
X221277263Y-188878304D02*
X221455835Y-188973542D01*
X221455835Y-188973542D02*
X221539168Y-189068780D01*
X221539168Y-189068780D02*
X221610597Y-189259257D01*
X221610597Y-189259257D02*
X221539168Y-189830685D01*
X221539168Y-189830685D02*
X221420121Y-190021161D01*
X221420121Y-190021161D02*
X221312978Y-190116400D01*
X221312978Y-190116400D02*
X221110597Y-190211638D01*
X221110597Y-190211638D02*
X220729644Y-190211638D01*
X220729644Y-190211638D02*
X220551073Y-190116400D01*
X222229645Y-188878304D02*
X222991549Y-188878304D01*
X222598692Y-188211638D02*
X222384407Y-189925923D01*
X222384407Y-189925923D02*
X222455835Y-190116400D01*
X222455835Y-190116400D02*
X222634407Y-190211638D01*
X222634407Y-190211638D02*
X222824883Y-190211638D01*
X224265359Y-190116400D02*
X224062978Y-190211638D01*
X224062978Y-190211638D02*
X223682025Y-190211638D01*
X223682025Y-190211638D02*
X223503454Y-190116400D01*
X223503454Y-190116400D02*
X223432025Y-189925923D01*
X223432025Y-189925923D02*
X223527264Y-189164019D01*
X223527264Y-189164019D02*
X223646311Y-188973542D01*
X223646311Y-188973542D02*
X223848692Y-188878304D01*
X223848692Y-188878304D02*
X224229644Y-188878304D01*
X224229644Y-188878304D02*
X224408216Y-188973542D01*
X224408216Y-188973542D02*
X224479644Y-189164019D01*
X224479644Y-189164019D02*
X224455835Y-189354495D01*
X224455835Y-189354495D02*
X223479644Y-189544971D01*
X225205835Y-190211638D02*
X225372502Y-188878304D01*
X225324883Y-189259257D02*
X225443930Y-189068780D01*
X225443930Y-189068780D02*
X225551073Y-188973542D01*
X225551073Y-188973542D02*
X225753454Y-188878304D01*
X225753454Y-188878304D02*
X225943930Y-188878304D01*
D10*
D11*
X178958026Y-185607614D02*
X178458026Y-185607614D01*
X178458026Y-186393328D02*
X178458026Y-184893328D01*
X178458026Y-184893328D02*
X179172312Y-184893328D01*
X179743740Y-186393328D02*
X179743740Y-185393328D01*
X179743740Y-184893328D02*
X179672312Y-184964757D01*
X179672312Y-184964757D02*
X179743740Y-185036185D01*
X179743740Y-185036185D02*
X179815169Y-184964757D01*
X179815169Y-184964757D02*
X179743740Y-184893328D01*
X179743740Y-184893328D02*
X179743740Y-185036185D01*
X180672312Y-186393328D02*
X180529455Y-186321900D01*
X180529455Y-186321900D02*
X180458026Y-186179042D01*
X180458026Y-186179042D02*
X180458026Y-184893328D01*
X181815169Y-186321900D02*
X181672312Y-186393328D01*
X181672312Y-186393328D02*
X181386598Y-186393328D01*
X181386598Y-186393328D02*
X181243740Y-186321900D01*
X181243740Y-186321900D02*
X181172312Y-186179042D01*
X181172312Y-186179042D02*
X181172312Y-185607614D01*
X181172312Y-185607614D02*
X181243740Y-185464757D01*
X181243740Y-185464757D02*
X181386598Y-185393328D01*
X181386598Y-185393328D02*
X181672312Y-185393328D01*
X181672312Y-185393328D02*
X181815169Y-185464757D01*
X181815169Y-185464757D02*
X181886598Y-185607614D01*
X181886598Y-185607614D02*
X181886598Y-185750471D01*
X181886598Y-185750471D02*
X181172312Y-185893328D01*
X182529454Y-186250471D02*
X182600883Y-186321900D01*
X182600883Y-186321900D02*
X182529454Y-186393328D01*
X182529454Y-186393328D02*
X182458026Y-186321900D01*
X182458026Y-186321900D02*
X182529454Y-186250471D01*
X182529454Y-186250471D02*
X182529454Y-186393328D01*
X182529454Y-185464757D02*
X182600883Y-185536185D01*
X182600883Y-185536185D02*
X182529454Y-185607614D01*
X182529454Y-185607614D02*
X182458026Y-185536185D01*
X182458026Y-185536185D02*
X182529454Y-185464757D01*
X182529454Y-185464757D02*
X182529454Y-185607614D01*
X185029455Y-185393328D02*
X185029455Y-186393328D01*
X184386597Y-185393328D02*
X184386597Y-186179042D01*
X184386597Y-186179042D02*
X184458026Y-186321900D01*
X184458026Y-186321900D02*
X184600883Y-186393328D01*
X184600883Y-186393328D02*
X184815169Y-186393328D01*
X184815169Y-186393328D02*
X184958026Y-186321900D01*
X184958026Y-186321900D02*
X185029455Y-186250471D01*
X185672312Y-186321900D02*
X185815169Y-186393328D01*
X185815169Y-186393328D02*
X186100883Y-186393328D01*
X186100883Y-186393328D02*
X186243740Y-186321900D01*
X186243740Y-186321900D02*
X186315169Y-186179042D01*
X186315169Y-186179042D02*
X186315169Y-186107614D01*
X186315169Y-186107614D02*
X186243740Y-185964757D01*
X186243740Y-185964757D02*
X186100883Y-185893328D01*
X186100883Y-185893328D02*
X185886598Y-185893328D01*
X185886598Y-185893328D02*
X185743740Y-185821900D01*
X185743740Y-185821900D02*
X185672312Y-185679042D01*
X185672312Y-185679042D02*
X185672312Y-185607614D01*
X185672312Y-185607614D02*
X185743740Y-185464757D01*
X185743740Y-185464757D02*
X185886598Y-185393328D01*
X185886598Y-185393328D02*
X186100883Y-185393328D01*
X186100883Y-185393328D02*
X186243740Y-185464757D01*
X186958026Y-186393328D02*
X186958026Y-184893328D01*
X186958026Y-185464757D02*
X187100884Y-185393328D01*
X187100884Y-185393328D02*
X187386598Y-185393328D01*
X187386598Y-185393328D02*
X187529455Y-185464757D01*
X187529455Y-185464757D02*
X187600884Y-185536185D01*
X187600884Y-185536185D02*
X187672312Y-185679042D01*
X187672312Y-185679042D02*
X187672312Y-186107614D01*
X187672312Y-186107614D02*
X187600884Y-186250471D01*
X187600884Y-186250471D02*
X187529455Y-186321900D01*
X187529455Y-186321900D02*
X187386598Y-186393328D01*
X187386598Y-186393328D02*
X187100884Y-186393328D01*
X187100884Y-186393328D02*
X186958026Y-186321900D01*
X188172312Y-184893328D02*
X189100884Y-184893328D01*
X189100884Y-184893328D02*
X188600884Y-185464757D01*
X188600884Y-185464757D02*
X188815169Y-185464757D01*
X188815169Y-185464757D02*
X188958027Y-185536185D01*
X188958027Y-185536185D02*
X189029455Y-185607614D01*
X189029455Y-185607614D02*
X189100884Y-185750471D01*
X189100884Y-185750471D02*
X189100884Y-186107614D01*
X189100884Y-186107614D02*
X189029455Y-186250471D01*
X189029455Y-186250471D02*
X188958027Y-186321900D01*
X188958027Y-186321900D02*
X188815169Y-186393328D01*
X188815169Y-186393328D02*
X188386598Y-186393328D01*
X188386598Y-186393328D02*
X188243741Y-186321900D01*
X188243741Y-186321900D02*
X188172312Y-186250471D01*
X189743740Y-185821900D02*
X190886598Y-185821900D01*
X192243741Y-185393328D02*
X192243741Y-186607614D01*
X192243741Y-186607614D02*
X192172312Y-186750471D01*
X192172312Y-186750471D02*
X192100883Y-186821900D01*
X192100883Y-186821900D02*
X191958026Y-186893328D01*
X191958026Y-186893328D02*
X191743741Y-186893328D01*
X191743741Y-186893328D02*
X191600883Y-186821900D01*
X192243741Y-186321900D02*
X192100883Y-186393328D01*
X192100883Y-186393328D02*
X191815169Y-186393328D01*
X191815169Y-186393328D02*
X191672312Y-186321900D01*
X191672312Y-186321900D02*
X191600883Y-186250471D01*
X191600883Y-186250471D02*
X191529455Y-186107614D01*
X191529455Y-186107614D02*
X191529455Y-185679042D01*
X191529455Y-185679042D02*
X191600883Y-185536185D01*
X191600883Y-185536185D02*
X191672312Y-185464757D01*
X191672312Y-185464757D02*
X191815169Y-185393328D01*
X191815169Y-185393328D02*
X192100883Y-185393328D01*
X192100883Y-185393328D02*
X192243741Y-185464757D01*
X192958026Y-186393328D02*
X192958026Y-185393328D01*
X192958026Y-185536185D02*
X193029455Y-185464757D01*
X193029455Y-185464757D02*
X193172312Y-185393328D01*
X193172312Y-185393328D02*
X193386598Y-185393328D01*
X193386598Y-185393328D02*
X193529455Y-185464757D01*
X193529455Y-185464757D02*
X193600884Y-185607614D01*
X193600884Y-185607614D02*
X193600884Y-186393328D01*
X193600884Y-185607614D02*
X193672312Y-185464757D01*
X193672312Y-185464757D02*
X193815169Y-185393328D01*
X193815169Y-185393328D02*
X194029455Y-185393328D01*
X194029455Y-185393328D02*
X194172312Y-185464757D01*
X194172312Y-185464757D02*
X194243741Y-185607614D01*
X194243741Y-185607614D02*
X194243741Y-186393328D01*
X194958026Y-186393328D02*
X194958026Y-185393328D01*
X194958026Y-185536185D02*
X195029455Y-185464757D01*
X195029455Y-185464757D02*
X195172312Y-185393328D01*
X195172312Y-185393328D02*
X195386598Y-185393328D01*
X195386598Y-185393328D02*
X195529455Y-185464757D01*
X195529455Y-185464757D02*
X195600884Y-185607614D01*
X195600884Y-185607614D02*
X195600884Y-186393328D01*
X195600884Y-185607614D02*
X195672312Y-185464757D01*
X195672312Y-185464757D02*
X195815169Y-185393328D01*
X195815169Y-185393328D02*
X196029455Y-185393328D01*
X196029455Y-185393328D02*
X196172312Y-185464757D01*
X196172312Y-185464757D02*
X196243741Y-185607614D01*
X196243741Y-185607614D02*
X196243741Y-186393328D01*
X196815169Y-184893328D02*
X197815169Y-184893328D01*
X197815169Y-184893328D02*
X197172312Y-186393328D01*
X199100883Y-184893328D02*
X198386597Y-184893328D01*
X198386597Y-184893328D02*
X198315169Y-185607614D01*
X198315169Y-185607614D02*
X198386597Y-185536185D01*
X198386597Y-185536185D02*
X198529455Y-185464757D01*
X198529455Y-185464757D02*
X198886597Y-185464757D01*
X198886597Y-185464757D02*
X199029455Y-185536185D01*
X199029455Y-185536185D02*
X199100883Y-185607614D01*
X199100883Y-185607614D02*
X199172312Y-185750471D01*
X199172312Y-185750471D02*
X199172312Y-186107614D01*
X199172312Y-186107614D02*
X199100883Y-186250471D01*
X199100883Y-186250471D02*
X199029455Y-186321900D01*
X199029455Y-186321900D02*
X198886597Y-186393328D01*
X198886597Y-186393328D02*
X198529455Y-186393328D01*
X198529455Y-186393328D02*
X198386597Y-186321900D01*
X198386597Y-186321900D02*
X198315169Y-186250471D01*
X200529454Y-184893328D02*
X199815168Y-184893328D01*
X199815168Y-184893328D02*
X199743740Y-185607614D01*
X199743740Y-185607614D02*
X199815168Y-185536185D01*
X199815168Y-185536185D02*
X199958026Y-185464757D01*
X199958026Y-185464757D02*
X200315168Y-185464757D01*
X200315168Y-185464757D02*
X200458026Y-185536185D01*
X200458026Y-185536185D02*
X200529454Y-185607614D01*
X200529454Y-185607614D02*
X200600883Y-185750471D01*
X200600883Y-185750471D02*
X200600883Y-186107614D01*
X200600883Y-186107614D02*
X200529454Y-186250471D01*
X200529454Y-186250471D02*
X200458026Y-186321900D01*
X200458026Y-186321900D02*
X200315168Y-186393328D01*
X200315168Y-186393328D02*
X199958026Y-186393328D01*
X199958026Y-186393328D02*
X199815168Y-186321900D01*
X199815168Y-186321900D02*
X199743740Y-186250471D01*
X201529454Y-184893328D02*
X201672311Y-184893328D01*
X201672311Y-184893328D02*
X201815168Y-184964757D01*
X201815168Y-184964757D02*
X201886597Y-185036185D01*
X201886597Y-185036185D02*
X201958025Y-185179042D01*
X201958025Y-185179042D02*
X202029454Y-185464757D01*
X202029454Y-185464757D02*
X202029454Y-185821900D01*
X202029454Y-185821900D02*
X201958025Y-186107614D01*
X201958025Y-186107614D02*
X201886597Y-186250471D01*
X201886597Y-186250471D02*
X201815168Y-186321900D01*
X201815168Y-186321900D02*
X201672311Y-186393328D01*
X201672311Y-186393328D02*
X201529454Y-186393328D01*
X201529454Y-186393328D02*
X201386597Y-186321900D01*
X201386597Y-186321900D02*
X201315168Y-186250471D01*
X201315168Y-186250471D02*
X201243739Y-186107614D01*
X201243739Y-186107614D02*
X201172311Y-185821900D01*
X201172311Y-185821900D02*
X201172311Y-185464757D01*
X201172311Y-185464757D02*
X201243739Y-185179042D01*
X201243739Y-185179042D02*
X201315168Y-185036185D01*
X201315168Y-185036185D02*
X201386597Y-184964757D01*
X201386597Y-184964757D02*
X201529454Y-184893328D01*
X202672310Y-186250471D02*
X202743739Y-186321900D01*
X202743739Y-186321900D02*
X202672310Y-186393328D01*
X202672310Y-186393328D02*
X202600882Y-186321900D01*
X202600882Y-186321900D02*
X202672310Y-186250471D01*
X202672310Y-186250471D02*
X202672310Y-186393328D01*
X203386596Y-186393328D02*
X203386596Y-184893328D01*
X203529454Y-185821900D02*
X203958025Y-186393328D01*
X203958025Y-185393328D02*
X203386596Y-185964757D01*
X204600882Y-186393328D02*
X204600882Y-185393328D01*
X204600882Y-184893328D02*
X204529454Y-184964757D01*
X204529454Y-184964757D02*
X204600882Y-185036185D01*
X204600882Y-185036185D02*
X204672311Y-184964757D01*
X204672311Y-184964757D02*
X204600882Y-184893328D01*
X204600882Y-184893328D02*
X204600882Y-185036185D01*
X205958026Y-186321900D02*
X205815168Y-186393328D01*
X205815168Y-186393328D02*
X205529454Y-186393328D01*
X205529454Y-186393328D02*
X205386597Y-186321900D01*
X205386597Y-186321900D02*
X205315168Y-186250471D01*
X205315168Y-186250471D02*
X205243740Y-186107614D01*
X205243740Y-186107614D02*
X205243740Y-185679042D01*
X205243740Y-185679042D02*
X205315168Y-185536185D01*
X205315168Y-185536185D02*
X205386597Y-185464757D01*
X205386597Y-185464757D02*
X205529454Y-185393328D01*
X205529454Y-185393328D02*
X205815168Y-185393328D01*
X205815168Y-185393328D02*
X205958026Y-185464757D01*
X207243740Y-186393328D02*
X207243740Y-185607614D01*
X207243740Y-185607614D02*
X207172311Y-185464757D01*
X207172311Y-185464757D02*
X207029454Y-185393328D01*
X207029454Y-185393328D02*
X206743740Y-185393328D01*
X206743740Y-185393328D02*
X206600882Y-185464757D01*
X207243740Y-186321900D02*
X207100882Y-186393328D01*
X207100882Y-186393328D02*
X206743740Y-186393328D01*
X206743740Y-186393328D02*
X206600882Y-186321900D01*
X206600882Y-186321900D02*
X206529454Y-186179042D01*
X206529454Y-186179042D02*
X206529454Y-186036185D01*
X206529454Y-186036185D02*
X206600882Y-185893328D01*
X206600882Y-185893328D02*
X206743740Y-185821900D01*
X206743740Y-185821900D02*
X207100882Y-185821900D01*
X207100882Y-185821900D02*
X207243740Y-185750471D01*
X208600883Y-186393328D02*
X208600883Y-184893328D01*
X208600883Y-186321900D02*
X208458025Y-186393328D01*
X208458025Y-186393328D02*
X208172311Y-186393328D01*
X208172311Y-186393328D02*
X208029454Y-186321900D01*
X208029454Y-186321900D02*
X207958025Y-186250471D01*
X207958025Y-186250471D02*
X207886597Y-186107614D01*
X207886597Y-186107614D02*
X207886597Y-185679042D01*
X207886597Y-185679042D02*
X207958025Y-185536185D01*
X207958025Y-185536185D02*
X208029454Y-185464757D01*
X208029454Y-185464757D02*
X208172311Y-185393328D01*
X208172311Y-185393328D02*
X208458025Y-185393328D01*
X208458025Y-185393328D02*
X208600883Y-185464757D01*
X208958026Y-186536185D02*
X210100883Y-186536185D01*
X210458025Y-185393328D02*
X210458025Y-186893328D01*
X210458025Y-185464757D02*
X210600883Y-185393328D01*
X210600883Y-185393328D02*
X210886597Y-185393328D01*
X210886597Y-185393328D02*
X211029454Y-185464757D01*
X211029454Y-185464757D02*
X211100883Y-185536185D01*
X211100883Y-185536185D02*
X211172311Y-185679042D01*
X211172311Y-185679042D02*
X211172311Y-186107614D01*
X211172311Y-186107614D02*
X211100883Y-186250471D01*
X211100883Y-186250471D02*
X211029454Y-186321900D01*
X211029454Y-186321900D02*
X210886597Y-186393328D01*
X210886597Y-186393328D02*
X210600883Y-186393328D01*
X210600883Y-186393328D02*
X210458025Y-186321900D01*
X212458026Y-186321900D02*
X212315168Y-186393328D01*
X212315168Y-186393328D02*
X212029454Y-186393328D01*
X212029454Y-186393328D02*
X211886597Y-186321900D01*
X211886597Y-186321900D02*
X211815168Y-186250471D01*
X211815168Y-186250471D02*
X211743740Y-186107614D01*
X211743740Y-186107614D02*
X211743740Y-185679042D01*
X211743740Y-185679042D02*
X211815168Y-185536185D01*
X211815168Y-185536185D02*
X211886597Y-185464757D01*
X211886597Y-185464757D02*
X212029454Y-185393328D01*
X212029454Y-185393328D02*
X212315168Y-185393328D01*
X212315168Y-185393328D02*
X212458026Y-185464757D01*
X213100882Y-186393328D02*
X213100882Y-184893328D01*
X213100882Y-185464757D02*
X213243740Y-185393328D01*
X213243740Y-185393328D02*
X213529454Y-185393328D01*
X213529454Y-185393328D02*
X213672311Y-185464757D01*
X213672311Y-185464757D02*
X213743740Y-185536185D01*
X213743740Y-185536185D02*
X213815168Y-185679042D01*
X213815168Y-185679042D02*
X213815168Y-186107614D01*
X213815168Y-186107614D02*
X213743740Y-186250471D01*
X213743740Y-186250471D02*
X213672311Y-186321900D01*
X213672311Y-186321900D02*
X213529454Y-186393328D01*
X213529454Y-186393328D02*
X213243740Y-186393328D01*
X213243740Y-186393328D02*
X213100882Y-186321900D01*
D10*
D11*
X177002200Y-181507200D02*
X285002200Y-181507200D01*
D10*
D11*
X178386598Y-183621900D02*
X178600884Y-183693328D01*
X178600884Y-183693328D02*
X178958026Y-183693328D01*
X178958026Y-183693328D02*
X179100884Y-183621900D01*
X179100884Y-183621900D02*
X179172312Y-183550471D01*
X179172312Y-183550471D02*
X179243741Y-183407614D01*
X179243741Y-183407614D02*
X179243741Y-183264757D01*
X179243741Y-183264757D02*
X179172312Y-183121900D01*
X179172312Y-183121900D02*
X179100884Y-183050471D01*
X179100884Y-183050471D02*
X178958026Y-182979042D01*
X178958026Y-182979042D02*
X178672312Y-182907614D01*
X178672312Y-182907614D02*
X178529455Y-182836185D01*
X178529455Y-182836185D02*
X178458026Y-182764757D01*
X178458026Y-182764757D02*
X178386598Y-182621900D01*
X178386598Y-182621900D02*
X178386598Y-182479042D01*
X178386598Y-182479042D02*
X178458026Y-182336185D01*
X178458026Y-182336185D02*
X178529455Y-182264757D01*
X178529455Y-182264757D02*
X178672312Y-182193328D01*
X178672312Y-182193328D02*
X179029455Y-182193328D01*
X179029455Y-182193328D02*
X179243741Y-182264757D01*
X179886597Y-183693328D02*
X179886597Y-182193328D01*
X180529455Y-183693328D02*
X180529455Y-182907614D01*
X180529455Y-182907614D02*
X180458026Y-182764757D01*
X180458026Y-182764757D02*
X180315169Y-182693328D01*
X180315169Y-182693328D02*
X180100883Y-182693328D01*
X180100883Y-182693328D02*
X179958026Y-182764757D01*
X179958026Y-182764757D02*
X179886597Y-182836185D01*
X181815169Y-183621900D02*
X181672312Y-183693328D01*
X181672312Y-183693328D02*
X181386598Y-183693328D01*
X181386598Y-183693328D02*
X181243740Y-183621900D01*
X181243740Y-183621900D02*
X181172312Y-183479042D01*
X181172312Y-183479042D02*
X181172312Y-182907614D01*
X181172312Y-182907614D02*
X181243740Y-182764757D01*
X181243740Y-182764757D02*
X181386598Y-182693328D01*
X181386598Y-182693328D02*
X181672312Y-182693328D01*
X181672312Y-182693328D02*
X181815169Y-182764757D01*
X181815169Y-182764757D02*
X181886598Y-182907614D01*
X181886598Y-182907614D02*
X181886598Y-183050471D01*
X181886598Y-183050471D02*
X181172312Y-183193328D01*
X183100883Y-183621900D02*
X182958026Y-183693328D01*
X182958026Y-183693328D02*
X182672312Y-183693328D01*
X182672312Y-183693328D02*
X182529454Y-183621900D01*
X182529454Y-183621900D02*
X182458026Y-183479042D01*
X182458026Y-183479042D02*
X182458026Y-182907614D01*
X182458026Y-182907614D02*
X182529454Y-182764757D01*
X182529454Y-182764757D02*
X182672312Y-182693328D01*
X182672312Y-182693328D02*
X182958026Y-182693328D01*
X182958026Y-182693328D02*
X183100883Y-182764757D01*
X183100883Y-182764757D02*
X183172312Y-182907614D01*
X183172312Y-182907614D02*
X183172312Y-183050471D01*
X183172312Y-183050471D02*
X182458026Y-183193328D01*
X183600883Y-182693328D02*
X184172311Y-182693328D01*
X183815168Y-182193328D02*
X183815168Y-183479042D01*
X183815168Y-183479042D02*
X183886597Y-183621900D01*
X183886597Y-183621900D02*
X184029454Y-183693328D01*
X184029454Y-183693328D02*
X184172311Y-183693328D01*
X184672311Y-183550471D02*
X184743740Y-183621900D01*
X184743740Y-183621900D02*
X184672311Y-183693328D01*
X184672311Y-183693328D02*
X184600883Y-183621900D01*
X184600883Y-183621900D02*
X184672311Y-183550471D01*
X184672311Y-183550471D02*
X184672311Y-183693328D01*
X184672311Y-182764757D02*
X184743740Y-182836185D01*
X184743740Y-182836185D02*
X184672311Y-182907614D01*
X184672311Y-182907614D02*
X184600883Y-182836185D01*
X184600883Y-182836185D02*
X184672311Y-182764757D01*
X184672311Y-182764757D02*
X184672311Y-182907614D01*
D10*
D12*
X179413853Y-180542671D02*
X179342425Y-180614100D01*
X179342425Y-180614100D02*
X179128139Y-180685528D01*
X179128139Y-180685528D02*
X178985282Y-180685528D01*
X178985282Y-180685528D02*
X178770996Y-180614100D01*
X178770996Y-180614100D02*
X178628139Y-180471242D01*
X178628139Y-180471242D02*
X178556710Y-180328385D01*
X178556710Y-180328385D02*
X178485282Y-180042671D01*
X178485282Y-180042671D02*
X178485282Y-179828385D01*
X178485282Y-179828385D02*
X178556710Y-179542671D01*
X178556710Y-179542671D02*
X178628139Y-179399814D01*
X178628139Y-179399814D02*
X178770996Y-179256957D01*
X178770996Y-179256957D02*
X178985282Y-179185528D01*
X178985282Y-179185528D02*
X179128139Y-179185528D01*
X179128139Y-179185528D02*
X179342425Y-179256957D01*
X179342425Y-179256957D02*
X179413853Y-179328385D01*
X180270996Y-180685528D02*
X180128139Y-180614100D01*
X180128139Y-180614100D02*
X180056710Y-180542671D01*
X180056710Y-180542671D02*
X179985282Y-180399814D01*
X179985282Y-180399814D02*
X179985282Y-179971242D01*
X179985282Y-179971242D02*
X180056710Y-179828385D01*
X180056710Y-179828385D02*
X180128139Y-179756957D01*
X180128139Y-179756957D02*
X180270996Y-179685528D01*
X180270996Y-179685528D02*
X180485282Y-179685528D01*
X180485282Y-179685528D02*
X180628139Y-179756957D01*
X180628139Y-179756957D02*
X180699568Y-179828385D01*
X180699568Y-179828385D02*
X180770996Y-179971242D01*
X180770996Y-179971242D02*
X180770996Y-180399814D01*
X180770996Y-180399814D02*
X180699568Y-180542671D01*
X180699568Y-180542671D02*
X180628139Y-180614100D01*
X180628139Y-180614100D02*
X180485282Y-180685528D01*
X180485282Y-180685528D02*
X180270996Y-180685528D01*
X181413853Y-179685528D02*
X181413853Y-181185528D01*
X181413853Y-179756957D02*
X181556711Y-179685528D01*
X181556711Y-179685528D02*
X181842425Y-179685528D01*
X181842425Y-179685528D02*
X181985282Y-179756957D01*
X181985282Y-179756957D02*
X182056711Y-179828385D01*
X182056711Y-179828385D02*
X182128139Y-179971242D01*
X182128139Y-179971242D02*
X182128139Y-180399814D01*
X182128139Y-180399814D02*
X182056711Y-180542671D01*
X182056711Y-180542671D02*
X181985282Y-180614100D01*
X181985282Y-180614100D02*
X181842425Y-180685528D01*
X181842425Y-180685528D02*
X181556711Y-180685528D01*
X181556711Y-180685528D02*
X181413853Y-180614100D01*
X182628139Y-179685528D02*
X182985282Y-180685528D01*
X183342425Y-179685528D02*
X182985282Y-180685528D01*
X182985282Y-180685528D02*
X182842425Y-181042671D01*
X182842425Y-181042671D02*
X182770996Y-181114100D01*
X182770996Y-181114100D02*
X182628139Y-181185528D01*
X183913853Y-180685528D02*
X183913853Y-179685528D01*
X183913853Y-179971242D02*
X183985282Y-179828385D01*
X183985282Y-179828385D02*
X184056711Y-179756957D01*
X184056711Y-179756957D02*
X184199568Y-179685528D01*
X184199568Y-179685528D02*
X184342425Y-179685528D01*
X184842424Y-180685528D02*
X184842424Y-179685528D01*
X184842424Y-179185528D02*
X184770996Y-179256957D01*
X184770996Y-179256957D02*
X184842424Y-179328385D01*
X184842424Y-179328385D02*
X184913853Y-179256957D01*
X184913853Y-179256957D02*
X184842424Y-179185528D01*
X184842424Y-179185528D02*
X184842424Y-179328385D01*
X186199568Y-179685528D02*
X186199568Y-180899814D01*
X186199568Y-180899814D02*
X186128139Y-181042671D01*
X186128139Y-181042671D02*
X186056710Y-181114100D01*
X186056710Y-181114100D02*
X185913853Y-181185528D01*
X185913853Y-181185528D02*
X185699568Y-181185528D01*
X185699568Y-181185528D02*
X185556710Y-181114100D01*
X186199568Y-180614100D02*
X186056710Y-180685528D01*
X186056710Y-180685528D02*
X185770996Y-180685528D01*
X185770996Y-180685528D02*
X185628139Y-180614100D01*
X185628139Y-180614100D02*
X185556710Y-180542671D01*
X185556710Y-180542671D02*
X185485282Y-180399814D01*
X185485282Y-180399814D02*
X185485282Y-179971242D01*
X185485282Y-179971242D02*
X185556710Y-179828385D01*
X185556710Y-179828385D02*
X185628139Y-179756957D01*
X185628139Y-179756957D02*
X185770996Y-179685528D01*
X185770996Y-179685528D02*
X186056710Y-179685528D01*
X186056710Y-179685528D02*
X186199568Y-179756957D01*
X186913853Y-180685528D02*
X186913853Y-179185528D01*
X187556711Y-180685528D02*
X187556711Y-179899814D01*
X187556711Y-179899814D02*
X187485282Y-179756957D01*
X187485282Y-179756957D02*
X187342425Y-179685528D01*
X187342425Y-179685528D02*
X187128139Y-179685528D01*
X187128139Y-179685528D02*
X186985282Y-179756957D01*
X186985282Y-179756957D02*
X186913853Y-179828385D01*
X188056711Y-179685528D02*
X188628139Y-179685528D01*
X188270996Y-179185528D02*
X188270996Y-180471242D01*
X188270996Y-180471242D02*
X188342425Y-180614100D01*
X188342425Y-180614100D02*
X188485282Y-180685528D01*
X188485282Y-180685528D02*
X188628139Y-180685528D01*
X190699568Y-181256957D02*
X190628139Y-181185528D01*
X190628139Y-181185528D02*
X190485282Y-180971242D01*
X190485282Y-180971242D02*
X190413854Y-180828385D01*
X190413854Y-180828385D02*
X190342425Y-180614100D01*
X190342425Y-180614100D02*
X190270996Y-180256957D01*
X190270996Y-180256957D02*
X190270996Y-179971242D01*
X190270996Y-179971242D02*
X190342425Y-179614100D01*
X190342425Y-179614100D02*
X190413854Y-179399814D01*
X190413854Y-179399814D02*
X190485282Y-179256957D01*
X190485282Y-179256957D02*
X190628139Y-179042671D01*
X190628139Y-179042671D02*
X190699568Y-178971242D01*
X191913854Y-180614100D02*
X191770996Y-180685528D01*
X191770996Y-180685528D02*
X191485282Y-180685528D01*
X191485282Y-180685528D02*
X191342425Y-180614100D01*
X191342425Y-180614100D02*
X191270996Y-180542671D01*
X191270996Y-180542671D02*
X191199568Y-180399814D01*
X191199568Y-180399814D02*
X191199568Y-179971242D01*
X191199568Y-179971242D02*
X191270996Y-179828385D01*
X191270996Y-179828385D02*
X191342425Y-179756957D01*
X191342425Y-179756957D02*
X191485282Y-179685528D01*
X191485282Y-179685528D02*
X191770996Y-179685528D01*
X191770996Y-179685528D02*
X191913854Y-179756957D01*
X192413853Y-181256957D02*
X192485282Y-181185528D01*
X192485282Y-181185528D02*
X192628139Y-180971242D01*
X192628139Y-180971242D02*
X192699568Y-180828385D01*
X192699568Y-180828385D02*
X192770996Y-180614100D01*
X192770996Y-180614100D02*
X192842425Y-180256957D01*
X192842425Y-180256957D02*
X192842425Y-179971242D01*
X192842425Y-179971242D02*
X192770996Y-179614100D01*
X192770996Y-179614100D02*
X192699568Y-179399814D01*
X192699568Y-179399814D02*
X192628139Y-179256957D01*
X192628139Y-179256957D02*
X192485282Y-179042671D01*
X192485282Y-179042671D02*
X192413853Y-178971242D01*
X194628139Y-179328385D02*
X194699567Y-179256957D01*
X194699567Y-179256957D02*
X194842425Y-179185528D01*
X194842425Y-179185528D02*
X195199567Y-179185528D01*
X195199567Y-179185528D02*
X195342425Y-179256957D01*
X195342425Y-179256957D02*
X195413853Y-179328385D01*
X195413853Y-179328385D02*
X195485282Y-179471242D01*
X195485282Y-179471242D02*
X195485282Y-179614100D01*
X195485282Y-179614100D02*
X195413853Y-179828385D01*
X195413853Y-179828385D02*
X194556710Y-180685528D01*
X194556710Y-180685528D02*
X195485282Y-180685528D01*
X196413853Y-179185528D02*
X196556710Y-179185528D01*
X196556710Y-179185528D02*
X196699567Y-179256957D01*
X196699567Y-179256957D02*
X196770996Y-179328385D01*
X196770996Y-179328385D02*
X196842424Y-179471242D01*
X196842424Y-179471242D02*
X196913853Y-179756957D01*
X196913853Y-179756957D02*
X196913853Y-180114100D01*
X196913853Y-180114100D02*
X196842424Y-180399814D01*
X196842424Y-180399814D02*
X196770996Y-180542671D01*
X196770996Y-180542671D02*
X196699567Y-180614100D01*
X196699567Y-180614100D02*
X196556710Y-180685528D01*
X196556710Y-180685528D02*
X196413853Y-180685528D01*
X196413853Y-180685528D02*
X196270996Y-180614100D01*
X196270996Y-180614100D02*
X196199567Y-180542671D01*
X196199567Y-180542671D02*
X196128138Y-180399814D01*
X196128138Y-180399814D02*
X196056710Y-180114100D01*
X196056710Y-180114100D02*
X196056710Y-179756957D01*
X196056710Y-179756957D02*
X196128138Y-179471242D01*
X196128138Y-179471242D02*
X196199567Y-179328385D01*
X196199567Y-179328385D02*
X196270996Y-179256957D01*
X196270996Y-179256957D02*
X196413853Y-179185528D01*
X197485281Y-179328385D02*
X197556709Y-179256957D01*
X197556709Y-179256957D02*
X197699567Y-179185528D01*
X197699567Y-179185528D02*
X198056709Y-179185528D01*
X198056709Y-179185528D02*
X198199567Y-179256957D01*
X198199567Y-179256957D02*
X198270995Y-179328385D01*
X198270995Y-179328385D02*
X198342424Y-179471242D01*
X198342424Y-179471242D02*
X198342424Y-179614100D01*
X198342424Y-179614100D02*
X198270995Y-179828385D01*
X198270995Y-179828385D02*
X197413852Y-180685528D01*
X197413852Y-180685528D02*
X198342424Y-180685528D01*
X199699566Y-179185528D02*
X198985280Y-179185528D01*
X198985280Y-179185528D02*
X198913852Y-179899814D01*
X198913852Y-179899814D02*
X198985280Y-179828385D01*
X198985280Y-179828385D02*
X199128138Y-179756957D01*
X199128138Y-179756957D02*
X199485280Y-179756957D01*
X199485280Y-179756957D02*
X199628138Y-179828385D01*
X199628138Y-179828385D02*
X199699566Y-179899814D01*
X199699566Y-179899814D02*
X199770995Y-180042671D01*
X199770995Y-180042671D02*
X199770995Y-180399814D01*
X199770995Y-180399814D02*
X199699566Y-180542671D01*
X199699566Y-180542671D02*
X199628138Y-180614100D01*
X199628138Y-180614100D02*
X199485280Y-180685528D01*
X199485280Y-180685528D02*
X199128138Y-180685528D01*
X199128138Y-180685528D02*
X198985280Y-180614100D01*
X198985280Y-180614100D02*
X198913852Y-180542671D01*
X201485280Y-180256957D02*
X202199566Y-180256957D01*
X201342423Y-180685528D02*
X201842423Y-179185528D01*
X201842423Y-179185528D02*
X202342423Y-180685528D01*
X202842422Y-179685528D02*
X202842422Y-180685528D01*
X202842422Y-179828385D02*
X202913851Y-179756957D01*
X202913851Y-179756957D02*
X203056708Y-179685528D01*
X203056708Y-179685528D02*
X203270994Y-179685528D01*
X203270994Y-179685528D02*
X203413851Y-179756957D01*
X203413851Y-179756957D02*
X203485280Y-179899814D01*
X203485280Y-179899814D02*
X203485280Y-180685528D01*
X203985280Y-179685528D02*
X204556708Y-179685528D01*
X204199565Y-179185528D02*
X204199565Y-180471242D01*
X204199565Y-180471242D02*
X204270994Y-180614100D01*
X204270994Y-180614100D02*
X204413851Y-180685528D01*
X204413851Y-180685528D02*
X204556708Y-180685528D01*
X205270994Y-180685528D02*
X205128137Y-180614100D01*
X205128137Y-180614100D02*
X205056708Y-180542671D01*
X205056708Y-180542671D02*
X204985280Y-180399814D01*
X204985280Y-180399814D02*
X204985280Y-179971242D01*
X204985280Y-179971242D02*
X205056708Y-179828385D01*
X205056708Y-179828385D02*
X205128137Y-179756957D01*
X205128137Y-179756957D02*
X205270994Y-179685528D01*
X205270994Y-179685528D02*
X205485280Y-179685528D01*
X205485280Y-179685528D02*
X205628137Y-179756957D01*
X205628137Y-179756957D02*
X205699566Y-179828385D01*
X205699566Y-179828385D02*
X205770994Y-179971242D01*
X205770994Y-179971242D02*
X205770994Y-180399814D01*
X205770994Y-180399814D02*
X205699566Y-180542671D01*
X205699566Y-180542671D02*
X205628137Y-180614100D01*
X205628137Y-180614100D02*
X205485280Y-180685528D01*
X205485280Y-180685528D02*
X205270994Y-180685528D01*
X206413851Y-179685528D02*
X206413851Y-180685528D01*
X206413851Y-179828385D02*
X206485280Y-179756957D01*
X206485280Y-179756957D02*
X206628137Y-179685528D01*
X206628137Y-179685528D02*
X206842423Y-179685528D01*
X206842423Y-179685528D02*
X206985280Y-179756957D01*
X206985280Y-179756957D02*
X207056709Y-179899814D01*
X207056709Y-179899814D02*
X207056709Y-180685528D01*
X208913851Y-180685528D02*
X208913851Y-179185528D01*
X209770994Y-180685528D02*
X209128137Y-179828385D01*
X209770994Y-179185528D02*
X208913851Y-180042671D01*
X211056709Y-179685528D02*
X211056709Y-180685528D01*
X210413851Y-179685528D02*
X210413851Y-180471242D01*
X210413851Y-180471242D02*
X210485280Y-180614100D01*
X210485280Y-180614100D02*
X210628137Y-180685528D01*
X210628137Y-180685528D02*
X210842423Y-180685528D01*
X210842423Y-180685528D02*
X210985280Y-180614100D01*
X210985280Y-180614100D02*
X211056709Y-180542671D01*
X211628137Y-179685528D02*
X212413852Y-179685528D01*
X212413852Y-179685528D02*
X211628137Y-180685528D01*
X211628137Y-180685528D02*
X212413852Y-180685528D01*
X212985280Y-180685528D02*
X212985280Y-179685528D01*
X212985280Y-179828385D02*
X213056709Y-179756957D01*
X213056709Y-179756957D02*
X213199566Y-179685528D01*
X213199566Y-179685528D02*
X213413852Y-179685528D01*
X213413852Y-179685528D02*
X213556709Y-179756957D01*
X213556709Y-179756957D02*
X213628138Y-179899814D01*
X213628138Y-179899814D02*
X213628138Y-180685528D01*
X213628138Y-179899814D02*
X213699566Y-179756957D01*
X213699566Y-179756957D02*
X213842423Y-179685528D01*
X213842423Y-179685528D02*
X214056709Y-179685528D01*
X214056709Y-179685528D02*
X214199566Y-179756957D01*
X214199566Y-179756957D02*
X214270995Y-179899814D01*
X214270995Y-179899814D02*
X214270995Y-180685528D01*
X214985280Y-180685528D02*
X214985280Y-179685528D01*
X214985280Y-179185528D02*
X214913852Y-179256957D01*
X214913852Y-179256957D02*
X214985280Y-179328385D01*
X214985280Y-179328385D02*
X215056709Y-179256957D01*
X215056709Y-179256957D02*
X214985280Y-179185528D01*
X214985280Y-179185528D02*
X214985280Y-179328385D01*
X215699566Y-179685528D02*
X215699566Y-180685528D01*
X215699566Y-179828385D02*
X215770995Y-179756957D01*
X215770995Y-179756957D02*
X215913852Y-179685528D01*
X215913852Y-179685528D02*
X216128138Y-179685528D01*
X216128138Y-179685528D02*
X216270995Y-179756957D01*
X216270995Y-179756957D02*
X216342424Y-179899814D01*
X216342424Y-179899814D02*
X216342424Y-180685528D01*
X219342424Y-179685528D02*
X218199566Y-180114100D01*
X218199566Y-180114100D02*
X219342424Y-180542671D01*
X220699567Y-180685528D02*
X220699567Y-179899814D01*
X220699567Y-179899814D02*
X220628138Y-179756957D01*
X220628138Y-179756957D02*
X220485281Y-179685528D01*
X220485281Y-179685528D02*
X220199567Y-179685528D01*
X220199567Y-179685528D02*
X220056709Y-179756957D01*
X220699567Y-180614100D02*
X220556709Y-180685528D01*
X220556709Y-180685528D02*
X220199567Y-180685528D01*
X220199567Y-180685528D02*
X220056709Y-180614100D01*
X220056709Y-180614100D02*
X219985281Y-180471242D01*
X219985281Y-180471242D02*
X219985281Y-180328385D01*
X219985281Y-180328385D02*
X220056709Y-180185528D01*
X220056709Y-180185528D02*
X220199567Y-180114100D01*
X220199567Y-180114100D02*
X220556709Y-180114100D01*
X220556709Y-180114100D02*
X220699567Y-180042671D01*
X221413852Y-180685528D02*
X221413852Y-179185528D01*
X221556710Y-180114100D02*
X221985281Y-180685528D01*
X221985281Y-179685528D02*
X221413852Y-180256957D01*
X223556710Y-179971242D02*
X223485281Y-179899814D01*
X223485281Y-179899814D02*
X223342424Y-179828385D01*
X223342424Y-179828385D02*
X223199567Y-179828385D01*
X223199567Y-179828385D02*
X223056710Y-179899814D01*
X223056710Y-179899814D02*
X222985281Y-179971242D01*
X222985281Y-179971242D02*
X222913853Y-180114100D01*
X222913853Y-180114100D02*
X222913853Y-180256957D01*
X222913853Y-180256957D02*
X222985281Y-180399814D01*
X222985281Y-180399814D02*
X223056710Y-180471242D01*
X223056710Y-180471242D02*
X223199567Y-180542671D01*
X223199567Y-180542671D02*
X223342424Y-180542671D01*
X223342424Y-180542671D02*
X223485281Y-180471242D01*
X223485281Y-180471242D02*
X223556710Y-180399814D01*
X223556710Y-179828385D02*
X223556710Y-180399814D01*
X223556710Y-180399814D02*
X223628138Y-180471242D01*
X223628138Y-180471242D02*
X223699567Y-180471242D01*
X223699567Y-180471242D02*
X223842424Y-180399814D01*
X223842424Y-180399814D02*
X223913853Y-180256957D01*
X223913853Y-180256957D02*
X223913853Y-179899814D01*
X223913853Y-179899814D02*
X223770996Y-179685528D01*
X223770996Y-179685528D02*
X223556710Y-179542671D01*
X223556710Y-179542671D02*
X223270996Y-179471242D01*
X223270996Y-179471242D02*
X222985281Y-179542671D01*
X222985281Y-179542671D02*
X222770996Y-179685528D01*
X222770996Y-179685528D02*
X222628138Y-179899814D01*
X222628138Y-179899814D02*
X222556710Y-180185528D01*
X222556710Y-180185528D02*
X222628138Y-180471242D01*
X222628138Y-180471242D02*
X222770996Y-180685528D01*
X222770996Y-180685528D02*
X222985281Y-180828385D01*
X222985281Y-180828385D02*
X223270996Y-180899814D01*
X223270996Y-180899814D02*
X223556710Y-180828385D01*
X223556710Y-180828385D02*
X223770996Y-180685528D01*
X225199567Y-179685528D02*
X225199567Y-180899814D01*
X225199567Y-180899814D02*
X225128138Y-181042671D01*
X225128138Y-181042671D02*
X225056709Y-181114100D01*
X225056709Y-181114100D02*
X224913852Y-181185528D01*
X224913852Y-181185528D02*
X224699567Y-181185528D01*
X224699567Y-181185528D02*
X224556709Y-181114100D01*
X225199567Y-180614100D02*
X225056709Y-180685528D01*
X225056709Y-180685528D02*
X224770995Y-180685528D01*
X224770995Y-180685528D02*
X224628138Y-180614100D01*
X224628138Y-180614100D02*
X224556709Y-180542671D01*
X224556709Y-180542671D02*
X224485281Y-180399814D01*
X224485281Y-180399814D02*
X224485281Y-179971242D01*
X224485281Y-179971242D02*
X224556709Y-179828385D01*
X224556709Y-179828385D02*
X224628138Y-179756957D01*
X224628138Y-179756957D02*
X224770995Y-179685528D01*
X224770995Y-179685528D02*
X225056709Y-179685528D01*
X225056709Y-179685528D02*
X225199567Y-179756957D01*
X225913852Y-180685528D02*
X225913852Y-179685528D01*
X225913852Y-179828385D02*
X225985281Y-179756957D01*
X225985281Y-179756957D02*
X226128138Y-179685528D01*
X226128138Y-179685528D02*
X226342424Y-179685528D01*
X226342424Y-179685528D02*
X226485281Y-179756957D01*
X226485281Y-179756957D02*
X226556710Y-179899814D01*
X226556710Y-179899814D02*
X226556710Y-180685528D01*
X226556710Y-179899814D02*
X226628138Y-179756957D01*
X226628138Y-179756957D02*
X226770995Y-179685528D01*
X226770995Y-179685528D02*
X226985281Y-179685528D01*
X226985281Y-179685528D02*
X227128138Y-179756957D01*
X227128138Y-179756957D02*
X227199567Y-179899814D01*
X227199567Y-179899814D02*
X227199567Y-180685528D01*
X227913852Y-180685528D02*
X227913852Y-179685528D01*
X227913852Y-179828385D02*
X227985281Y-179756957D01*
X227985281Y-179756957D02*
X228128138Y-179685528D01*
X228128138Y-179685528D02*
X228342424Y-179685528D01*
X228342424Y-179685528D02*
X228485281Y-179756957D01*
X228485281Y-179756957D02*
X228556710Y-179899814D01*
X228556710Y-179899814D02*
X228556710Y-180685528D01*
X228556710Y-179899814D02*
X228628138Y-179756957D01*
X228628138Y-179756957D02*
X228770995Y-179685528D01*
X228770995Y-179685528D02*
X228985281Y-179685528D01*
X228985281Y-179685528D02*
X229128138Y-179756957D01*
X229128138Y-179756957D02*
X229199567Y-179899814D01*
X229199567Y-179899814D02*
X229199567Y-180685528D01*
X229770995Y-179185528D02*
X230770995Y-179185528D01*
X230770995Y-179185528D02*
X230128138Y-180685528D01*
X232056709Y-179185528D02*
X231342423Y-179185528D01*
X231342423Y-179185528D02*
X231270995Y-179899814D01*
X231270995Y-179899814D02*
X231342423Y-179828385D01*
X231342423Y-179828385D02*
X231485281Y-179756957D01*
X231485281Y-179756957D02*
X231842423Y-179756957D01*
X231842423Y-179756957D02*
X231985281Y-179828385D01*
X231985281Y-179828385D02*
X232056709Y-179899814D01*
X232056709Y-179899814D02*
X232128138Y-180042671D01*
X232128138Y-180042671D02*
X232128138Y-180399814D01*
X232128138Y-180399814D02*
X232056709Y-180542671D01*
X232056709Y-180542671D02*
X231985281Y-180614100D01*
X231985281Y-180614100D02*
X231842423Y-180685528D01*
X231842423Y-180685528D02*
X231485281Y-180685528D01*
X231485281Y-180685528D02*
X231342423Y-180614100D01*
X231342423Y-180614100D02*
X231270995Y-180542671D01*
X233485280Y-179185528D02*
X232770994Y-179185528D01*
X232770994Y-179185528D02*
X232699566Y-179899814D01*
X232699566Y-179899814D02*
X232770994Y-179828385D01*
X232770994Y-179828385D02*
X232913852Y-179756957D01*
X232913852Y-179756957D02*
X233270994Y-179756957D01*
X233270994Y-179756957D02*
X233413852Y-179828385D01*
X233413852Y-179828385D02*
X233485280Y-179899814D01*
X233485280Y-179899814D02*
X233556709Y-180042671D01*
X233556709Y-180042671D02*
X233556709Y-180399814D01*
X233556709Y-180399814D02*
X233485280Y-180542671D01*
X233485280Y-180542671D02*
X233413852Y-180614100D01*
X233413852Y-180614100D02*
X233270994Y-180685528D01*
X233270994Y-180685528D02*
X232913852Y-180685528D01*
X232913852Y-180685528D02*
X232770994Y-180614100D01*
X232770994Y-180614100D02*
X232699566Y-180542671D01*
X234485280Y-179185528D02*
X234628137Y-179185528D01*
X234628137Y-179185528D02*
X234770994Y-179256957D01*
X234770994Y-179256957D02*
X234842423Y-179328385D01*
X234842423Y-179328385D02*
X234913851Y-179471242D01*
X234913851Y-179471242D02*
X234985280Y-179756957D01*
X234985280Y-179756957D02*
X234985280Y-180114100D01*
X234985280Y-180114100D02*
X234913851Y-180399814D01*
X234913851Y-180399814D02*
X234842423Y-180542671D01*
X234842423Y-180542671D02*
X234770994Y-180614100D01*
X234770994Y-180614100D02*
X234628137Y-180685528D01*
X234628137Y-180685528D02*
X234485280Y-180685528D01*
X234485280Y-180685528D02*
X234342423Y-180614100D01*
X234342423Y-180614100D02*
X234270994Y-180542671D01*
X234270994Y-180542671D02*
X234199565Y-180399814D01*
X234199565Y-180399814D02*
X234128137Y-180114100D01*
X234128137Y-180114100D02*
X234128137Y-179756957D01*
X234128137Y-179756957D02*
X234199565Y-179471242D01*
X234199565Y-179471242D02*
X234270994Y-179328385D01*
X234270994Y-179328385D02*
X234342423Y-179256957D01*
X234342423Y-179256957D02*
X234485280Y-179185528D01*
X235628136Y-180542671D02*
X235699565Y-180614100D01*
X235699565Y-180614100D02*
X235628136Y-180685528D01*
X235628136Y-180685528D02*
X235556708Y-180614100D01*
X235556708Y-180614100D02*
X235628136Y-180542671D01*
X235628136Y-180542671D02*
X235628136Y-180685528D01*
X236985280Y-180685528D02*
X236985280Y-179185528D01*
X236985280Y-180614100D02*
X236842422Y-180685528D01*
X236842422Y-180685528D02*
X236556708Y-180685528D01*
X236556708Y-180685528D02*
X236413851Y-180614100D01*
X236413851Y-180614100D02*
X236342422Y-180542671D01*
X236342422Y-180542671D02*
X236270994Y-180399814D01*
X236270994Y-180399814D02*
X236270994Y-179971242D01*
X236270994Y-179971242D02*
X236342422Y-179828385D01*
X236342422Y-179828385D02*
X236413851Y-179756957D01*
X236413851Y-179756957D02*
X236556708Y-179685528D01*
X236556708Y-179685528D02*
X236842422Y-179685528D01*
X236842422Y-179685528D02*
X236985280Y-179756957D01*
X238270994Y-180614100D02*
X238128137Y-180685528D01*
X238128137Y-180685528D02*
X237842423Y-180685528D01*
X237842423Y-180685528D02*
X237699565Y-180614100D01*
X237699565Y-180614100D02*
X237628137Y-180471242D01*
X237628137Y-180471242D02*
X237628137Y-179899814D01*
X237628137Y-179899814D02*
X237699565Y-179756957D01*
X237699565Y-179756957D02*
X237842423Y-179685528D01*
X237842423Y-179685528D02*
X238128137Y-179685528D01*
X238128137Y-179685528D02*
X238270994Y-179756957D01*
X238270994Y-179756957D02*
X238342423Y-179899814D01*
X238342423Y-179899814D02*
X238342423Y-180042671D01*
X238342423Y-180042671D02*
X237628137Y-180185528D01*
X238842422Y-179685528D02*
X239199565Y-180685528D01*
X239199565Y-180685528D02*
X239556708Y-179685528D01*
X240128136Y-179685528D02*
X241270994Y-180114100D01*
X241270994Y-180114100D02*
X240128136Y-180542671D01*
D10*
D11*
X179100884Y-177693328D02*
X179100884Y-176907614D01*
X179100884Y-176907614D02*
X179029455Y-176764757D01*
X179029455Y-176764757D02*
X178886598Y-176693328D01*
X178886598Y-176693328D02*
X178600884Y-176693328D01*
X178600884Y-176693328D02*
X178458026Y-176764757D01*
X179100884Y-177621900D02*
X178958026Y-177693328D01*
X178958026Y-177693328D02*
X178600884Y-177693328D01*
X178600884Y-177693328D02*
X178458026Y-177621900D01*
X178458026Y-177621900D02*
X178386598Y-177479042D01*
X178386598Y-177479042D02*
X178386598Y-177336185D01*
X178386598Y-177336185D02*
X178458026Y-177193328D01*
X178458026Y-177193328D02*
X178600884Y-177121900D01*
X178600884Y-177121900D02*
X178958026Y-177121900D01*
X178958026Y-177121900D02*
X179100884Y-177050471D01*
X180743741Y-176693328D02*
X181315169Y-176693328D01*
X180958026Y-177693328D02*
X180958026Y-176407614D01*
X180958026Y-176407614D02*
X181029455Y-176264757D01*
X181029455Y-176264757D02*
X181172312Y-176193328D01*
X181172312Y-176193328D02*
X181315169Y-176193328D01*
X182458027Y-176693328D02*
X182458027Y-177693328D01*
X181815169Y-176693328D02*
X181815169Y-177479042D01*
X181815169Y-177479042D02*
X181886598Y-177621900D01*
X181886598Y-177621900D02*
X182029455Y-177693328D01*
X182029455Y-177693328D02*
X182243741Y-177693328D01*
X182243741Y-177693328D02*
X182386598Y-177621900D01*
X182386598Y-177621900D02*
X182458027Y-177550471D01*
X183172312Y-176693328D02*
X183172312Y-177693328D01*
X183172312Y-176836185D02*
X183243741Y-176764757D01*
X183243741Y-176764757D02*
X183386598Y-176693328D01*
X183386598Y-176693328D02*
X183600884Y-176693328D01*
X183600884Y-176693328D02*
X183743741Y-176764757D01*
X183743741Y-176764757D02*
X183815170Y-176907614D01*
X183815170Y-176907614D02*
X183815170Y-177693328D01*
X185172313Y-177693328D02*
X185172313Y-176193328D01*
X185172313Y-177621900D02*
X185029455Y-177693328D01*
X185029455Y-177693328D02*
X184743741Y-177693328D01*
X184743741Y-177693328D02*
X184600884Y-177621900D01*
X184600884Y-177621900D02*
X184529455Y-177550471D01*
X184529455Y-177550471D02*
X184458027Y-177407614D01*
X184458027Y-177407614D02*
X184458027Y-176979042D01*
X184458027Y-176979042D02*
X184529455Y-176836185D01*
X184529455Y-176836185D02*
X184600884Y-176764757D01*
X184600884Y-176764757D02*
X184743741Y-176693328D01*
X184743741Y-176693328D02*
X185029455Y-176693328D01*
X185029455Y-176693328D02*
X185172313Y-176764757D01*
X187600884Y-177621900D02*
X187458027Y-177693328D01*
X187458027Y-177693328D02*
X187172313Y-177693328D01*
X187172313Y-177693328D02*
X187029455Y-177621900D01*
X187029455Y-177621900D02*
X186958027Y-177479042D01*
X186958027Y-177479042D02*
X186958027Y-176907614D01*
X186958027Y-176907614D02*
X187029455Y-176764757D01*
X187029455Y-176764757D02*
X187172313Y-176693328D01*
X187172313Y-176693328D02*
X187458027Y-176693328D01*
X187458027Y-176693328D02*
X187600884Y-176764757D01*
X187600884Y-176764757D02*
X187672313Y-176907614D01*
X187672313Y-176907614D02*
X187672313Y-177050471D01*
X187672313Y-177050471D02*
X186958027Y-177193328D01*
X188243741Y-177621900D02*
X188386598Y-177693328D01*
X188386598Y-177693328D02*
X188672312Y-177693328D01*
X188672312Y-177693328D02*
X188815169Y-177621900D01*
X188815169Y-177621900D02*
X188886598Y-177479042D01*
X188886598Y-177479042D02*
X188886598Y-177407614D01*
X188886598Y-177407614D02*
X188815169Y-177264757D01*
X188815169Y-177264757D02*
X188672312Y-177193328D01*
X188672312Y-177193328D02*
X188458027Y-177193328D01*
X188458027Y-177193328D02*
X188315169Y-177121900D01*
X188315169Y-177121900D02*
X188243741Y-176979042D01*
X188243741Y-176979042D02*
X188243741Y-176907614D01*
X188243741Y-176907614D02*
X188315169Y-176764757D01*
X188315169Y-176764757D02*
X188458027Y-176693328D01*
X188458027Y-176693328D02*
X188672312Y-176693328D01*
X188672312Y-176693328D02*
X188815169Y-176764757D01*
X189315170Y-176693328D02*
X189886598Y-176693328D01*
X189529455Y-176193328D02*
X189529455Y-177479042D01*
X189529455Y-177479042D02*
X189600884Y-177621900D01*
X189600884Y-177621900D02*
X189743741Y-177693328D01*
X189743741Y-177693328D02*
X189886598Y-177693328D01*
X191029456Y-177693328D02*
X191029456Y-176907614D01*
X191029456Y-176907614D02*
X190958027Y-176764757D01*
X190958027Y-176764757D02*
X190815170Y-176693328D01*
X190815170Y-176693328D02*
X190529456Y-176693328D01*
X190529456Y-176693328D02*
X190386598Y-176764757D01*
X191029456Y-177621900D02*
X190886598Y-177693328D01*
X190886598Y-177693328D02*
X190529456Y-177693328D01*
X190529456Y-177693328D02*
X190386598Y-177621900D01*
X190386598Y-177621900D02*
X190315170Y-177479042D01*
X190315170Y-177479042D02*
X190315170Y-177336185D01*
X190315170Y-177336185D02*
X190386598Y-177193328D01*
X190386598Y-177193328D02*
X190529456Y-177121900D01*
X190529456Y-177121900D02*
X190886598Y-177121900D01*
X190886598Y-177121900D02*
X191029456Y-177050471D01*
X191743741Y-177693328D02*
X191743741Y-176193328D01*
X191743741Y-176764757D02*
X191886599Y-176693328D01*
X191886599Y-176693328D02*
X192172313Y-176693328D01*
X192172313Y-176693328D02*
X192315170Y-176764757D01*
X192315170Y-176764757D02*
X192386599Y-176836185D01*
X192386599Y-176836185D02*
X192458027Y-176979042D01*
X192458027Y-176979042D02*
X192458027Y-177407614D01*
X192458027Y-177407614D02*
X192386599Y-177550471D01*
X192386599Y-177550471D02*
X192315170Y-177621900D01*
X192315170Y-177621900D02*
X192172313Y-177693328D01*
X192172313Y-177693328D02*
X191886599Y-177693328D01*
X191886599Y-177693328D02*
X191743741Y-177621900D01*
X193315170Y-177693328D02*
X193172313Y-177621900D01*
X193172313Y-177621900D02*
X193100884Y-177479042D01*
X193100884Y-177479042D02*
X193100884Y-176193328D01*
X193886598Y-177693328D02*
X193886598Y-176693328D01*
X193886598Y-176193328D02*
X193815170Y-176264757D01*
X193815170Y-176264757D02*
X193886598Y-176336185D01*
X193886598Y-176336185D02*
X193958027Y-176264757D01*
X193958027Y-176264757D02*
X193886598Y-176193328D01*
X193886598Y-176193328D02*
X193886598Y-176336185D01*
X194529456Y-177621900D02*
X194672313Y-177693328D01*
X194672313Y-177693328D02*
X194958027Y-177693328D01*
X194958027Y-177693328D02*
X195100884Y-177621900D01*
X195100884Y-177621900D02*
X195172313Y-177479042D01*
X195172313Y-177479042D02*
X195172313Y-177407614D01*
X195172313Y-177407614D02*
X195100884Y-177264757D01*
X195100884Y-177264757D02*
X194958027Y-177193328D01*
X194958027Y-177193328D02*
X194743742Y-177193328D01*
X194743742Y-177193328D02*
X194600884Y-177121900D01*
X194600884Y-177121900D02*
X194529456Y-176979042D01*
X194529456Y-176979042D02*
X194529456Y-176907614D01*
X194529456Y-176907614D02*
X194600884Y-176764757D01*
X194600884Y-176764757D02*
X194743742Y-176693328D01*
X194743742Y-176693328D02*
X194958027Y-176693328D01*
X194958027Y-176693328D02*
X195100884Y-176764757D01*
X195815170Y-177693328D02*
X195815170Y-176193328D01*
X196458028Y-177693328D02*
X196458028Y-176907614D01*
X196458028Y-176907614D02*
X196386599Y-176764757D01*
X196386599Y-176764757D02*
X196243742Y-176693328D01*
X196243742Y-176693328D02*
X196029456Y-176693328D01*
X196029456Y-176693328D02*
X195886599Y-176764757D01*
X195886599Y-176764757D02*
X195815170Y-176836185D01*
X197743742Y-177621900D02*
X197600885Y-177693328D01*
X197600885Y-177693328D02*
X197315171Y-177693328D01*
X197315171Y-177693328D02*
X197172313Y-177621900D01*
X197172313Y-177621900D02*
X197100885Y-177479042D01*
X197100885Y-177479042D02*
X197100885Y-176907614D01*
X197100885Y-176907614D02*
X197172313Y-176764757D01*
X197172313Y-176764757D02*
X197315171Y-176693328D01*
X197315171Y-176693328D02*
X197600885Y-176693328D01*
X197600885Y-176693328D02*
X197743742Y-176764757D01*
X197743742Y-176764757D02*
X197815171Y-176907614D01*
X197815171Y-176907614D02*
X197815171Y-177050471D01*
X197815171Y-177050471D02*
X197100885Y-177193328D01*
X199100885Y-177693328D02*
X199100885Y-176193328D01*
X199100885Y-177621900D02*
X198958027Y-177693328D01*
X198958027Y-177693328D02*
X198672313Y-177693328D01*
X198672313Y-177693328D02*
X198529456Y-177621900D01*
X198529456Y-177621900D02*
X198458027Y-177550471D01*
X198458027Y-177550471D02*
X198386599Y-177407614D01*
X198386599Y-177407614D02*
X198386599Y-176979042D01*
X198386599Y-176979042D02*
X198458027Y-176836185D01*
X198458027Y-176836185D02*
X198529456Y-176764757D01*
X198529456Y-176764757D02*
X198672313Y-176693328D01*
X198672313Y-176693328D02*
X198958027Y-176693328D01*
X198958027Y-176693328D02*
X199100885Y-176764757D01*
X200958027Y-177693328D02*
X200958027Y-176193328D01*
X200958027Y-176764757D02*
X201100885Y-176693328D01*
X201100885Y-176693328D02*
X201386599Y-176693328D01*
X201386599Y-176693328D02*
X201529456Y-176764757D01*
X201529456Y-176764757D02*
X201600885Y-176836185D01*
X201600885Y-176836185D02*
X201672313Y-176979042D01*
X201672313Y-176979042D02*
X201672313Y-177407614D01*
X201672313Y-177407614D02*
X201600885Y-177550471D01*
X201600885Y-177550471D02*
X201529456Y-177621900D01*
X201529456Y-177621900D02*
X201386599Y-177693328D01*
X201386599Y-177693328D02*
X201100885Y-177693328D01*
X201100885Y-177693328D02*
X200958027Y-177621900D01*
X202172313Y-176693328D02*
X202529456Y-177693328D01*
X202886599Y-176693328D02*
X202529456Y-177693328D01*
X202529456Y-177693328D02*
X202386599Y-178050471D01*
X202386599Y-178050471D02*
X202315170Y-178121900D01*
X202315170Y-178121900D02*
X202172313Y-178193328D01*
X204600884Y-177693328D02*
X204600884Y-176193328D01*
X204600884Y-176193328D02*
X205458027Y-177693328D01*
X205458027Y-177693328D02*
X205458027Y-176193328D01*
X206886599Y-177693328D02*
X206172313Y-177693328D01*
X206172313Y-177693328D02*
X206172313Y-176193328D01*
X207386599Y-176693328D02*
X207386599Y-177693328D01*
X207386599Y-176836185D02*
X207458028Y-176764757D01*
X207458028Y-176764757D02*
X207600885Y-176693328D01*
X207600885Y-176693328D02*
X207815171Y-176693328D01*
X207815171Y-176693328D02*
X207958028Y-176764757D01*
X207958028Y-176764757D02*
X208029457Y-176907614D01*
X208029457Y-176907614D02*
X208029457Y-177693328D01*
X209315171Y-177621900D02*
X209172314Y-177693328D01*
X209172314Y-177693328D02*
X208886600Y-177693328D01*
X208886600Y-177693328D02*
X208743742Y-177621900D01*
X208743742Y-177621900D02*
X208672314Y-177479042D01*
X208672314Y-177479042D02*
X208672314Y-176907614D01*
X208672314Y-176907614D02*
X208743742Y-176764757D01*
X208743742Y-176764757D02*
X208886600Y-176693328D01*
X208886600Y-176693328D02*
X209172314Y-176693328D01*
X209172314Y-176693328D02*
X209315171Y-176764757D01*
X209315171Y-176764757D02*
X209386600Y-176907614D01*
X209386600Y-176907614D02*
X209386600Y-177050471D01*
X209386600Y-177050471D02*
X208672314Y-177193328D01*
X209815171Y-176693328D02*
X210386599Y-176693328D01*
X210029456Y-176193328D02*
X210029456Y-177479042D01*
X210029456Y-177479042D02*
X210100885Y-177621900D01*
X210100885Y-177621900D02*
X210243742Y-177693328D01*
X210243742Y-177693328D02*
X210386599Y-177693328D01*
X211815171Y-176693328D02*
X212386599Y-176693328D01*
X212029456Y-177693328D02*
X212029456Y-176407614D01*
X212029456Y-176407614D02*
X212100885Y-176264757D01*
X212100885Y-176264757D02*
X212243742Y-176193328D01*
X212243742Y-176193328D02*
X212386599Y-176193328D01*
X213100885Y-177693328D02*
X212958028Y-177621900D01*
X212958028Y-177621900D02*
X212886599Y-177550471D01*
X212886599Y-177550471D02*
X212815171Y-177407614D01*
X212815171Y-177407614D02*
X212815171Y-176979042D01*
X212815171Y-176979042D02*
X212886599Y-176836185D01*
X212886599Y-176836185D02*
X212958028Y-176764757D01*
X212958028Y-176764757D02*
X213100885Y-176693328D01*
X213100885Y-176693328D02*
X213315171Y-176693328D01*
X213315171Y-176693328D02*
X213458028Y-176764757D01*
X213458028Y-176764757D02*
X213529457Y-176836185D01*
X213529457Y-176836185D02*
X213600885Y-176979042D01*
X213600885Y-176979042D02*
X213600885Y-177407614D01*
X213600885Y-177407614D02*
X213529457Y-177550471D01*
X213529457Y-177550471D02*
X213458028Y-177621900D01*
X213458028Y-177621900D02*
X213315171Y-177693328D01*
X213315171Y-177693328D02*
X213100885Y-177693328D01*
X214886600Y-176693328D02*
X214886600Y-177693328D01*
X214243742Y-176693328D02*
X214243742Y-177479042D01*
X214243742Y-177479042D02*
X214315171Y-177621900D01*
X214315171Y-177621900D02*
X214458028Y-177693328D01*
X214458028Y-177693328D02*
X214672314Y-177693328D01*
X214672314Y-177693328D02*
X214815171Y-177621900D01*
X214815171Y-177621900D02*
X214886600Y-177550471D01*
X215600885Y-176693328D02*
X215600885Y-177693328D01*
X215600885Y-176836185D02*
X215672314Y-176764757D01*
X215672314Y-176764757D02*
X215815171Y-176693328D01*
X215815171Y-176693328D02*
X216029457Y-176693328D01*
X216029457Y-176693328D02*
X216172314Y-176764757D01*
X216172314Y-176764757D02*
X216243743Y-176907614D01*
X216243743Y-176907614D02*
X216243743Y-177693328D01*
X217600886Y-177693328D02*
X217600886Y-176193328D01*
X217600886Y-177621900D02*
X217458028Y-177693328D01*
X217458028Y-177693328D02*
X217172314Y-177693328D01*
X217172314Y-177693328D02*
X217029457Y-177621900D01*
X217029457Y-177621900D02*
X216958028Y-177550471D01*
X216958028Y-177550471D02*
X216886600Y-177407614D01*
X216886600Y-177407614D02*
X216886600Y-176979042D01*
X216886600Y-176979042D02*
X216958028Y-176836185D01*
X216958028Y-176836185D02*
X217029457Y-176764757D01*
X217029457Y-176764757D02*
X217172314Y-176693328D01*
X217172314Y-176693328D02*
X217458028Y-176693328D01*
X217458028Y-176693328D02*
X217600886Y-176764757D01*
X218958029Y-177693328D02*
X218958029Y-176907614D01*
X218958029Y-176907614D02*
X218886600Y-176764757D01*
X218886600Y-176764757D02*
X218743743Y-176693328D01*
X218743743Y-176693328D02*
X218458029Y-176693328D01*
X218458029Y-176693328D02*
X218315171Y-176764757D01*
X218958029Y-177621900D02*
X218815171Y-177693328D01*
X218815171Y-177693328D02*
X218458029Y-177693328D01*
X218458029Y-177693328D02*
X218315171Y-177621900D01*
X218315171Y-177621900D02*
X218243743Y-177479042D01*
X218243743Y-177479042D02*
X218243743Y-177336185D01*
X218243743Y-177336185D02*
X218315171Y-177193328D01*
X218315171Y-177193328D02*
X218458029Y-177121900D01*
X218458029Y-177121900D02*
X218815171Y-177121900D01*
X218815171Y-177121900D02*
X218958029Y-177050471D01*
X219458029Y-176693328D02*
X220029457Y-176693328D01*
X219672314Y-176193328D02*
X219672314Y-177479042D01*
X219672314Y-177479042D02*
X219743743Y-177621900D01*
X219743743Y-177621900D02*
X219886600Y-177693328D01*
X219886600Y-177693328D02*
X220029457Y-177693328D01*
X220529457Y-177693328D02*
X220529457Y-176693328D01*
X220529457Y-176193328D02*
X220458029Y-176264757D01*
X220458029Y-176264757D02*
X220529457Y-176336185D01*
X220529457Y-176336185D02*
X220600886Y-176264757D01*
X220600886Y-176264757D02*
X220529457Y-176193328D01*
X220529457Y-176193328D02*
X220529457Y-176336185D01*
X221458029Y-177693328D02*
X221315172Y-177621900D01*
X221315172Y-177621900D02*
X221243743Y-177550471D01*
X221243743Y-177550471D02*
X221172315Y-177407614D01*
X221172315Y-177407614D02*
X221172315Y-176979042D01*
X221172315Y-176979042D02*
X221243743Y-176836185D01*
X221243743Y-176836185D02*
X221315172Y-176764757D01*
X221315172Y-176764757D02*
X221458029Y-176693328D01*
X221458029Y-176693328D02*
X221672315Y-176693328D01*
X221672315Y-176693328D02*
X221815172Y-176764757D01*
X221815172Y-176764757D02*
X221886601Y-176836185D01*
X221886601Y-176836185D02*
X221958029Y-176979042D01*
X221958029Y-176979042D02*
X221958029Y-177407614D01*
X221958029Y-177407614D02*
X221886601Y-177550471D01*
X221886601Y-177550471D02*
X221815172Y-177621900D01*
X221815172Y-177621900D02*
X221672315Y-177693328D01*
X221672315Y-177693328D02*
X221458029Y-177693328D01*
X222600886Y-176693328D02*
X222600886Y-177693328D01*
X222600886Y-176836185D02*
X222672315Y-176764757D01*
X222672315Y-176764757D02*
X222815172Y-176693328D01*
X222815172Y-176693328D02*
X223029458Y-176693328D01*
X223029458Y-176693328D02*
X223172315Y-176764757D01*
X223172315Y-176764757D02*
X223243744Y-176907614D01*
X223243744Y-176907614D02*
X223243744Y-177693328D01*
X223958029Y-177550471D02*
X224029458Y-177621900D01*
X224029458Y-177621900D02*
X223958029Y-177693328D01*
X223958029Y-177693328D02*
X223886601Y-177621900D01*
X223886601Y-177621900D02*
X223958029Y-177550471D01*
X223958029Y-177550471D02*
X223958029Y-177693328D01*
D10*
D11*
X178243741Y-173193328D02*
X179100884Y-173193328D01*
X178672312Y-174693328D02*
X178672312Y-173193328D01*
X179600883Y-174693328D02*
X179600883Y-173193328D01*
X180243741Y-174693328D02*
X180243741Y-173907614D01*
X180243741Y-173907614D02*
X180172312Y-173764757D01*
X180172312Y-173764757D02*
X180029455Y-173693328D01*
X180029455Y-173693328D02*
X179815169Y-173693328D01*
X179815169Y-173693328D02*
X179672312Y-173764757D01*
X179672312Y-173764757D02*
X179600883Y-173836185D01*
X180958026Y-174693328D02*
X180958026Y-173693328D01*
X180958026Y-173193328D02*
X180886598Y-173264757D01*
X180886598Y-173264757D02*
X180958026Y-173336185D01*
X180958026Y-173336185D02*
X181029455Y-173264757D01*
X181029455Y-173264757D02*
X180958026Y-173193328D01*
X180958026Y-173193328D02*
X180958026Y-173336185D01*
X181600884Y-174621900D02*
X181743741Y-174693328D01*
X181743741Y-174693328D02*
X182029455Y-174693328D01*
X182029455Y-174693328D02*
X182172312Y-174621900D01*
X182172312Y-174621900D02*
X182243741Y-174479042D01*
X182243741Y-174479042D02*
X182243741Y-174407614D01*
X182243741Y-174407614D02*
X182172312Y-174264757D01*
X182172312Y-174264757D02*
X182029455Y-174193328D01*
X182029455Y-174193328D02*
X181815170Y-174193328D01*
X181815170Y-174193328D02*
X181672312Y-174121900D01*
X181672312Y-174121900D02*
X181600884Y-173979042D01*
X181600884Y-173979042D02*
X181600884Y-173907614D01*
X181600884Y-173907614D02*
X181672312Y-173764757D01*
X181672312Y-173764757D02*
X181815170Y-173693328D01*
X181815170Y-173693328D02*
X182029455Y-173693328D01*
X182029455Y-173693328D02*
X182172312Y-173764757D01*
X184029455Y-173693328D02*
X184029455Y-175193328D01*
X184029455Y-173764757D02*
X184172313Y-173693328D01*
X184172313Y-173693328D02*
X184458027Y-173693328D01*
X184458027Y-173693328D02*
X184600884Y-173764757D01*
X184600884Y-173764757D02*
X184672313Y-173836185D01*
X184672313Y-173836185D02*
X184743741Y-173979042D01*
X184743741Y-173979042D02*
X184743741Y-174407614D01*
X184743741Y-174407614D02*
X184672313Y-174550471D01*
X184672313Y-174550471D02*
X184600884Y-174621900D01*
X184600884Y-174621900D02*
X184458027Y-174693328D01*
X184458027Y-174693328D02*
X184172313Y-174693328D01*
X184172313Y-174693328D02*
X184029455Y-174621900D01*
X185386598Y-174693328D02*
X185386598Y-173693328D01*
X185386598Y-173979042D02*
X185458027Y-173836185D01*
X185458027Y-173836185D02*
X185529456Y-173764757D01*
X185529456Y-173764757D02*
X185672313Y-173693328D01*
X185672313Y-173693328D02*
X185815170Y-173693328D01*
X186529455Y-174693328D02*
X186386598Y-174621900D01*
X186386598Y-174621900D02*
X186315169Y-174550471D01*
X186315169Y-174550471D02*
X186243741Y-174407614D01*
X186243741Y-174407614D02*
X186243741Y-173979042D01*
X186243741Y-173979042D02*
X186315169Y-173836185D01*
X186315169Y-173836185D02*
X186386598Y-173764757D01*
X186386598Y-173764757D02*
X186529455Y-173693328D01*
X186529455Y-173693328D02*
X186743741Y-173693328D01*
X186743741Y-173693328D02*
X186886598Y-173764757D01*
X186886598Y-173764757D02*
X186958027Y-173836185D01*
X186958027Y-173836185D02*
X187029455Y-173979042D01*
X187029455Y-173979042D02*
X187029455Y-174407614D01*
X187029455Y-174407614D02*
X186958027Y-174550471D01*
X186958027Y-174550471D02*
X186886598Y-174621900D01*
X186886598Y-174621900D02*
X186743741Y-174693328D01*
X186743741Y-174693328D02*
X186529455Y-174693328D01*
X187672312Y-173693328D02*
X187672312Y-174979042D01*
X187672312Y-174979042D02*
X187600884Y-175121900D01*
X187600884Y-175121900D02*
X187458027Y-175193328D01*
X187458027Y-175193328D02*
X187386598Y-175193328D01*
X187672312Y-173193328D02*
X187600884Y-173264757D01*
X187600884Y-173264757D02*
X187672312Y-173336185D01*
X187672312Y-173336185D02*
X187743741Y-173264757D01*
X187743741Y-173264757D02*
X187672312Y-173193328D01*
X187672312Y-173193328D02*
X187672312Y-173336185D01*
X188958027Y-174621900D02*
X188815170Y-174693328D01*
X188815170Y-174693328D02*
X188529456Y-174693328D01*
X188529456Y-174693328D02*
X188386598Y-174621900D01*
X188386598Y-174621900D02*
X188315170Y-174479042D01*
X188315170Y-174479042D02*
X188315170Y-173907614D01*
X188315170Y-173907614D02*
X188386598Y-173764757D01*
X188386598Y-173764757D02*
X188529456Y-173693328D01*
X188529456Y-173693328D02*
X188815170Y-173693328D01*
X188815170Y-173693328D02*
X188958027Y-173764757D01*
X188958027Y-173764757D02*
X189029456Y-173907614D01*
X189029456Y-173907614D02*
X189029456Y-174050471D01*
X189029456Y-174050471D02*
X188315170Y-174193328D01*
X190315170Y-174621900D02*
X190172312Y-174693328D01*
X190172312Y-174693328D02*
X189886598Y-174693328D01*
X189886598Y-174693328D02*
X189743741Y-174621900D01*
X189743741Y-174621900D02*
X189672312Y-174550471D01*
X189672312Y-174550471D02*
X189600884Y-174407614D01*
X189600884Y-174407614D02*
X189600884Y-173979042D01*
X189600884Y-173979042D02*
X189672312Y-173836185D01*
X189672312Y-173836185D02*
X189743741Y-173764757D01*
X189743741Y-173764757D02*
X189886598Y-173693328D01*
X189886598Y-173693328D02*
X190172312Y-173693328D01*
X190172312Y-173693328D02*
X190315170Y-173764757D01*
X190743741Y-173693328D02*
X191315169Y-173693328D01*
X190958026Y-173193328D02*
X190958026Y-174479042D01*
X190958026Y-174479042D02*
X191029455Y-174621900D01*
X191029455Y-174621900D02*
X191172312Y-174693328D01*
X191172312Y-174693328D02*
X191315169Y-174693328D01*
X192815169Y-173693328D02*
X193100884Y-174693328D01*
X193100884Y-174693328D02*
X193386598Y-173979042D01*
X193386598Y-173979042D02*
X193672312Y-174693328D01*
X193672312Y-174693328D02*
X193958026Y-173693328D01*
X195172313Y-174693328D02*
X195172313Y-173907614D01*
X195172313Y-173907614D02*
X195100884Y-173764757D01*
X195100884Y-173764757D02*
X194958027Y-173693328D01*
X194958027Y-173693328D02*
X194672313Y-173693328D01*
X194672313Y-173693328D02*
X194529455Y-173764757D01*
X195172313Y-174621900D02*
X195029455Y-174693328D01*
X195029455Y-174693328D02*
X194672313Y-174693328D01*
X194672313Y-174693328D02*
X194529455Y-174621900D01*
X194529455Y-174621900D02*
X194458027Y-174479042D01*
X194458027Y-174479042D02*
X194458027Y-174336185D01*
X194458027Y-174336185D02*
X194529455Y-174193328D01*
X194529455Y-174193328D02*
X194672313Y-174121900D01*
X194672313Y-174121900D02*
X195029455Y-174121900D01*
X195029455Y-174121900D02*
X195172313Y-174050471D01*
X195815170Y-174621900D02*
X195958027Y-174693328D01*
X195958027Y-174693328D02*
X196243741Y-174693328D01*
X196243741Y-174693328D02*
X196386598Y-174621900D01*
X196386598Y-174621900D02*
X196458027Y-174479042D01*
X196458027Y-174479042D02*
X196458027Y-174407614D01*
X196458027Y-174407614D02*
X196386598Y-174264757D01*
X196386598Y-174264757D02*
X196243741Y-174193328D01*
X196243741Y-174193328D02*
X196029456Y-174193328D01*
X196029456Y-174193328D02*
X195886598Y-174121900D01*
X195886598Y-174121900D02*
X195815170Y-173979042D01*
X195815170Y-173979042D02*
X195815170Y-173907614D01*
X195815170Y-173907614D02*
X195886598Y-173764757D01*
X195886598Y-173764757D02*
X196029456Y-173693328D01*
X196029456Y-173693328D02*
X196243741Y-173693328D01*
X196243741Y-173693328D02*
X196386598Y-173764757D01*
X198029456Y-173693328D02*
X198600884Y-173693328D01*
X198243741Y-174693328D02*
X198243741Y-173407614D01*
X198243741Y-173407614D02*
X198315170Y-173264757D01*
X198315170Y-173264757D02*
X198458027Y-173193328D01*
X198458027Y-173193328D02*
X198600884Y-173193328D01*
X199743742Y-173693328D02*
X199743742Y-174693328D01*
X199100884Y-173693328D02*
X199100884Y-174479042D01*
X199100884Y-174479042D02*
X199172313Y-174621900D01*
X199172313Y-174621900D02*
X199315170Y-174693328D01*
X199315170Y-174693328D02*
X199529456Y-174693328D01*
X199529456Y-174693328D02*
X199672313Y-174621900D01*
X199672313Y-174621900D02*
X199743742Y-174550471D01*
X200458027Y-173693328D02*
X200458027Y-174693328D01*
X200458027Y-173836185D02*
X200529456Y-173764757D01*
X200529456Y-173764757D02*
X200672313Y-173693328D01*
X200672313Y-173693328D02*
X200886599Y-173693328D01*
X200886599Y-173693328D02*
X201029456Y-173764757D01*
X201029456Y-173764757D02*
X201100885Y-173907614D01*
X201100885Y-173907614D02*
X201100885Y-174693328D01*
X202458028Y-174693328D02*
X202458028Y-173193328D01*
X202458028Y-174621900D02*
X202315170Y-174693328D01*
X202315170Y-174693328D02*
X202029456Y-174693328D01*
X202029456Y-174693328D02*
X201886599Y-174621900D01*
X201886599Y-174621900D02*
X201815170Y-174550471D01*
X201815170Y-174550471D02*
X201743742Y-174407614D01*
X201743742Y-174407614D02*
X201743742Y-173979042D01*
X201743742Y-173979042D02*
X201815170Y-173836185D01*
X201815170Y-173836185D02*
X201886599Y-173764757D01*
X201886599Y-173764757D02*
X202029456Y-173693328D01*
X202029456Y-173693328D02*
X202315170Y-173693328D01*
X202315170Y-173693328D02*
X202458028Y-173764757D01*
X203743742Y-174621900D02*
X203600885Y-174693328D01*
X203600885Y-174693328D02*
X203315171Y-174693328D01*
X203315171Y-174693328D02*
X203172313Y-174621900D01*
X203172313Y-174621900D02*
X203100885Y-174479042D01*
X203100885Y-174479042D02*
X203100885Y-173907614D01*
X203100885Y-173907614D02*
X203172313Y-173764757D01*
X203172313Y-173764757D02*
X203315171Y-173693328D01*
X203315171Y-173693328D02*
X203600885Y-173693328D01*
X203600885Y-173693328D02*
X203743742Y-173764757D01*
X203743742Y-173764757D02*
X203815171Y-173907614D01*
X203815171Y-173907614D02*
X203815171Y-174050471D01*
X203815171Y-174050471D02*
X203100885Y-174193328D01*
X205100885Y-174693328D02*
X205100885Y-173193328D01*
X205100885Y-174621900D02*
X204958027Y-174693328D01*
X204958027Y-174693328D02*
X204672313Y-174693328D01*
X204672313Y-174693328D02*
X204529456Y-174621900D01*
X204529456Y-174621900D02*
X204458027Y-174550471D01*
X204458027Y-174550471D02*
X204386599Y-174407614D01*
X204386599Y-174407614D02*
X204386599Y-173979042D01*
X204386599Y-173979042D02*
X204458027Y-173836185D01*
X204458027Y-173836185D02*
X204529456Y-173764757D01*
X204529456Y-173764757D02*
X204672313Y-173693328D01*
X204672313Y-173693328D02*
X204958027Y-173693328D01*
X204958027Y-173693328D02*
X205100885Y-173764757D01*
X206743742Y-173693328D02*
X207315170Y-173693328D01*
X206958027Y-173193328D02*
X206958027Y-174479042D01*
X206958027Y-174479042D02*
X207029456Y-174621900D01*
X207029456Y-174621900D02*
X207172313Y-174693328D01*
X207172313Y-174693328D02*
X207315170Y-174693328D01*
X207815170Y-174693328D02*
X207815170Y-173193328D01*
X208458028Y-174693328D02*
X208458028Y-173907614D01*
X208458028Y-173907614D02*
X208386599Y-173764757D01*
X208386599Y-173764757D02*
X208243742Y-173693328D01*
X208243742Y-173693328D02*
X208029456Y-173693328D01*
X208029456Y-173693328D02*
X207886599Y-173764757D01*
X207886599Y-173764757D02*
X207815170Y-173836185D01*
X209172313Y-174693328D02*
X209172313Y-173693328D01*
X209172313Y-173979042D02*
X209243742Y-173836185D01*
X209243742Y-173836185D02*
X209315171Y-173764757D01*
X209315171Y-173764757D02*
X209458028Y-173693328D01*
X209458028Y-173693328D02*
X209600885Y-173693328D01*
X210315170Y-174693328D02*
X210172313Y-174621900D01*
X210172313Y-174621900D02*
X210100884Y-174550471D01*
X210100884Y-174550471D02*
X210029456Y-174407614D01*
X210029456Y-174407614D02*
X210029456Y-173979042D01*
X210029456Y-173979042D02*
X210100884Y-173836185D01*
X210100884Y-173836185D02*
X210172313Y-173764757D01*
X210172313Y-173764757D02*
X210315170Y-173693328D01*
X210315170Y-173693328D02*
X210529456Y-173693328D01*
X210529456Y-173693328D02*
X210672313Y-173764757D01*
X210672313Y-173764757D02*
X210743742Y-173836185D01*
X210743742Y-173836185D02*
X210815170Y-173979042D01*
X210815170Y-173979042D02*
X210815170Y-174407614D01*
X210815170Y-174407614D02*
X210743742Y-174550471D01*
X210743742Y-174550471D02*
X210672313Y-174621900D01*
X210672313Y-174621900D02*
X210529456Y-174693328D01*
X210529456Y-174693328D02*
X210315170Y-174693328D01*
X212100885Y-173693328D02*
X212100885Y-174693328D01*
X211458027Y-173693328D02*
X211458027Y-174479042D01*
X211458027Y-174479042D02*
X211529456Y-174621900D01*
X211529456Y-174621900D02*
X211672313Y-174693328D01*
X211672313Y-174693328D02*
X211886599Y-174693328D01*
X211886599Y-174693328D02*
X212029456Y-174621900D01*
X212029456Y-174621900D02*
X212100885Y-174550471D01*
X213458028Y-173693328D02*
X213458028Y-174907614D01*
X213458028Y-174907614D02*
X213386599Y-175050471D01*
X213386599Y-175050471D02*
X213315170Y-175121900D01*
X213315170Y-175121900D02*
X213172313Y-175193328D01*
X213172313Y-175193328D02*
X212958028Y-175193328D01*
X212958028Y-175193328D02*
X212815170Y-175121900D01*
X213458028Y-174621900D02*
X213315170Y-174693328D01*
X213315170Y-174693328D02*
X213029456Y-174693328D01*
X213029456Y-174693328D02*
X212886599Y-174621900D01*
X212886599Y-174621900D02*
X212815170Y-174550471D01*
X212815170Y-174550471D02*
X212743742Y-174407614D01*
X212743742Y-174407614D02*
X212743742Y-173979042D01*
X212743742Y-173979042D02*
X212815170Y-173836185D01*
X212815170Y-173836185D02*
X212886599Y-173764757D01*
X212886599Y-173764757D02*
X213029456Y-173693328D01*
X213029456Y-173693328D02*
X213315170Y-173693328D01*
X213315170Y-173693328D02*
X213458028Y-173764757D01*
X214172313Y-174693328D02*
X214172313Y-173193328D01*
X214815171Y-174693328D02*
X214815171Y-173907614D01*
X214815171Y-173907614D02*
X214743742Y-173764757D01*
X214743742Y-173764757D02*
X214600885Y-173693328D01*
X214600885Y-173693328D02*
X214386599Y-173693328D01*
X214386599Y-173693328D02*
X214243742Y-173764757D01*
X214243742Y-173764757D02*
X214172313Y-173836185D01*
X216458028Y-173693328D02*
X217029456Y-173693328D01*
X216672313Y-173193328D02*
X216672313Y-174479042D01*
X216672313Y-174479042D02*
X216743742Y-174621900D01*
X216743742Y-174621900D02*
X216886599Y-174693328D01*
X216886599Y-174693328D02*
X217029456Y-174693328D01*
X217529456Y-174693328D02*
X217529456Y-173193328D01*
X218172314Y-174693328D02*
X218172314Y-173907614D01*
X218172314Y-173907614D02*
X218100885Y-173764757D01*
X218100885Y-173764757D02*
X217958028Y-173693328D01*
X217958028Y-173693328D02*
X217743742Y-173693328D01*
X217743742Y-173693328D02*
X217600885Y-173764757D01*
X217600885Y-173764757D02*
X217529456Y-173836185D01*
X219458028Y-174621900D02*
X219315171Y-174693328D01*
X219315171Y-174693328D02*
X219029457Y-174693328D01*
X219029457Y-174693328D02*
X218886599Y-174621900D01*
X218886599Y-174621900D02*
X218815171Y-174479042D01*
X218815171Y-174479042D02*
X218815171Y-173907614D01*
X218815171Y-173907614D02*
X218886599Y-173764757D01*
X218886599Y-173764757D02*
X219029457Y-173693328D01*
X219029457Y-173693328D02*
X219315171Y-173693328D01*
X219315171Y-173693328D02*
X219458028Y-173764757D01*
X219458028Y-173764757D02*
X219529457Y-173907614D01*
X219529457Y-173907614D02*
X219529457Y-174050471D01*
X219529457Y-174050471D02*
X218815171Y-174193328D01*
X221315170Y-174693328D02*
X221315170Y-173193328D01*
X221315170Y-173193328D02*
X222172313Y-174693328D01*
X222172313Y-174693328D02*
X222172313Y-173193328D01*
X223672314Y-173264757D02*
X223529457Y-173193328D01*
X223529457Y-173193328D02*
X223315171Y-173193328D01*
X223315171Y-173193328D02*
X223100885Y-173264757D01*
X223100885Y-173264757D02*
X222958028Y-173407614D01*
X222958028Y-173407614D02*
X222886599Y-173550471D01*
X222886599Y-173550471D02*
X222815171Y-173836185D01*
X222815171Y-173836185D02*
X222815171Y-174050471D01*
X222815171Y-174050471D02*
X222886599Y-174336185D01*
X222886599Y-174336185D02*
X222958028Y-174479042D01*
X222958028Y-174479042D02*
X223100885Y-174621900D01*
X223100885Y-174621900D02*
X223315171Y-174693328D01*
X223315171Y-174693328D02*
X223458028Y-174693328D01*
X223458028Y-174693328D02*
X223672314Y-174621900D01*
X223672314Y-174621900D02*
X223743742Y-174550471D01*
X223743742Y-174550471D02*
X223743742Y-174050471D01*
X223743742Y-174050471D02*
X223458028Y-174050471D01*
X224386599Y-174693328D02*
X224386599Y-173193328D01*
X225386600Y-173193328D02*
X225529457Y-173193328D01*
X225529457Y-173193328D02*
X225672314Y-173264757D01*
X225672314Y-173264757D02*
X225743743Y-173336185D01*
X225743743Y-173336185D02*
X225815171Y-173479042D01*
X225815171Y-173479042D02*
X225886600Y-173764757D01*
X225886600Y-173764757D02*
X225886600Y-174121900D01*
X225886600Y-174121900D02*
X225815171Y-174407614D01*
X225815171Y-174407614D02*
X225743743Y-174550471D01*
X225743743Y-174550471D02*
X225672314Y-174621900D01*
X225672314Y-174621900D02*
X225529457Y-174693328D01*
X225529457Y-174693328D02*
X225386600Y-174693328D01*
X225386600Y-174693328D02*
X225243743Y-174621900D01*
X225243743Y-174621900D02*
X225172314Y-174550471D01*
X225172314Y-174550471D02*
X225100885Y-174407614D01*
X225100885Y-174407614D02*
X225029457Y-174121900D01*
X225029457Y-174121900D02*
X225029457Y-173764757D01*
X225029457Y-173764757D02*
X225100885Y-173479042D01*
X225100885Y-173479042D02*
X225172314Y-173336185D01*
X225172314Y-173336185D02*
X225243743Y-173264757D01*
X225243743Y-173264757D02*
X225386600Y-173193328D01*
X228529456Y-174550471D02*
X228458028Y-174621900D01*
X228458028Y-174621900D02*
X228243742Y-174693328D01*
X228243742Y-174693328D02*
X228100885Y-174693328D01*
X228100885Y-174693328D02*
X227886599Y-174621900D01*
X227886599Y-174621900D02*
X227743742Y-174479042D01*
X227743742Y-174479042D02*
X227672313Y-174336185D01*
X227672313Y-174336185D02*
X227600885Y-174050471D01*
X227600885Y-174050471D02*
X227600885Y-173836185D01*
X227600885Y-173836185D02*
X227672313Y-173550471D01*
X227672313Y-173550471D02*
X227743742Y-173407614D01*
X227743742Y-173407614D02*
X227886599Y-173264757D01*
X227886599Y-173264757D02*
X228100885Y-173193328D01*
X228100885Y-173193328D02*
X228243742Y-173193328D01*
X228243742Y-173193328D02*
X228458028Y-173264757D01*
X228458028Y-173264757D02*
X228529456Y-173336185D01*
X229386599Y-174693328D02*
X229243742Y-174621900D01*
X229243742Y-174621900D02*
X229172313Y-174550471D01*
X229172313Y-174550471D02*
X229100885Y-174407614D01*
X229100885Y-174407614D02*
X229100885Y-173979042D01*
X229100885Y-173979042D02*
X229172313Y-173836185D01*
X229172313Y-173836185D02*
X229243742Y-173764757D01*
X229243742Y-173764757D02*
X229386599Y-173693328D01*
X229386599Y-173693328D02*
X229600885Y-173693328D01*
X229600885Y-173693328D02*
X229743742Y-173764757D01*
X229743742Y-173764757D02*
X229815171Y-173836185D01*
X229815171Y-173836185D02*
X229886599Y-173979042D01*
X229886599Y-173979042D02*
X229886599Y-174407614D01*
X229886599Y-174407614D02*
X229815171Y-174550471D01*
X229815171Y-174550471D02*
X229743742Y-174621900D01*
X229743742Y-174621900D02*
X229600885Y-174693328D01*
X229600885Y-174693328D02*
X229386599Y-174693328D01*
X230529456Y-174693328D02*
X230529456Y-173693328D01*
X230529456Y-173836185D02*
X230600885Y-173764757D01*
X230600885Y-173764757D02*
X230743742Y-173693328D01*
X230743742Y-173693328D02*
X230958028Y-173693328D01*
X230958028Y-173693328D02*
X231100885Y-173764757D01*
X231100885Y-173764757D02*
X231172314Y-173907614D01*
X231172314Y-173907614D02*
X231172314Y-174693328D01*
X231172314Y-173907614D02*
X231243742Y-173764757D01*
X231243742Y-173764757D02*
X231386599Y-173693328D01*
X231386599Y-173693328D02*
X231600885Y-173693328D01*
X231600885Y-173693328D02*
X231743742Y-173764757D01*
X231743742Y-173764757D02*
X231815171Y-173907614D01*
X231815171Y-173907614D02*
X231815171Y-174693328D01*
X232529456Y-174693328D02*
X232529456Y-173693328D01*
X232529456Y-173836185D02*
X232600885Y-173764757D01*
X232600885Y-173764757D02*
X232743742Y-173693328D01*
X232743742Y-173693328D02*
X232958028Y-173693328D01*
X232958028Y-173693328D02*
X233100885Y-173764757D01*
X233100885Y-173764757D02*
X233172314Y-173907614D01*
X233172314Y-173907614D02*
X233172314Y-174693328D01*
X233172314Y-173907614D02*
X233243742Y-173764757D01*
X233243742Y-173764757D02*
X233386599Y-173693328D01*
X233386599Y-173693328D02*
X233600885Y-173693328D01*
X233600885Y-173693328D02*
X233743742Y-173764757D01*
X233743742Y-173764757D02*
X233815171Y-173907614D01*
X233815171Y-173907614D02*
X233815171Y-174693328D01*
X234743742Y-174693328D02*
X234600885Y-174621900D01*
X234600885Y-174621900D02*
X234529456Y-174550471D01*
X234529456Y-174550471D02*
X234458028Y-174407614D01*
X234458028Y-174407614D02*
X234458028Y-173979042D01*
X234458028Y-173979042D02*
X234529456Y-173836185D01*
X234529456Y-173836185D02*
X234600885Y-173764757D01*
X234600885Y-173764757D02*
X234743742Y-173693328D01*
X234743742Y-173693328D02*
X234958028Y-173693328D01*
X234958028Y-173693328D02*
X235100885Y-173764757D01*
X235100885Y-173764757D02*
X235172314Y-173836185D01*
X235172314Y-173836185D02*
X235243742Y-173979042D01*
X235243742Y-173979042D02*
X235243742Y-174407614D01*
X235243742Y-174407614D02*
X235172314Y-174550471D01*
X235172314Y-174550471D02*
X235100885Y-174621900D01*
X235100885Y-174621900D02*
X234958028Y-174693328D01*
X234958028Y-174693328D02*
X234743742Y-174693328D01*
X235886599Y-173693328D02*
X235886599Y-174693328D01*
X235886599Y-173836185D02*
X235958028Y-173764757D01*
X235958028Y-173764757D02*
X236100885Y-173693328D01*
X236100885Y-173693328D02*
X236315171Y-173693328D01*
X236315171Y-173693328D02*
X236458028Y-173764757D01*
X236458028Y-173764757D02*
X236529457Y-173907614D01*
X236529457Y-173907614D02*
X236529457Y-174693328D01*
X238886599Y-173907614D02*
X238386599Y-173907614D01*
X238386599Y-174693328D02*
X238386599Y-173193328D01*
X238386599Y-173193328D02*
X239100885Y-173193328D01*
X240315171Y-173693328D02*
X240315171Y-174693328D01*
X239672313Y-173693328D02*
X239672313Y-174479042D01*
X239672313Y-174479042D02*
X239743742Y-174621900D01*
X239743742Y-174621900D02*
X239886599Y-174693328D01*
X239886599Y-174693328D02*
X240100885Y-174693328D01*
X240100885Y-174693328D02*
X240243742Y-174621900D01*
X240243742Y-174621900D02*
X240315171Y-174550471D01*
X241029456Y-173693328D02*
X241029456Y-174693328D01*
X241029456Y-173836185D02*
X241100885Y-173764757D01*
X241100885Y-173764757D02*
X241243742Y-173693328D01*
X241243742Y-173693328D02*
X241458028Y-173693328D01*
X241458028Y-173693328D02*
X241600885Y-173764757D01*
X241600885Y-173764757D02*
X241672314Y-173907614D01*
X241672314Y-173907614D02*
X241672314Y-174693328D01*
X243029457Y-174693328D02*
X243029457Y-173193328D01*
X243029457Y-174621900D02*
X242886599Y-174693328D01*
X242886599Y-174693328D02*
X242600885Y-174693328D01*
X242600885Y-174693328D02*
X242458028Y-174621900D01*
X242458028Y-174621900D02*
X242386599Y-174550471D01*
X242386599Y-174550471D02*
X242315171Y-174407614D01*
X242315171Y-174407614D02*
X242315171Y-173979042D01*
X242315171Y-173979042D02*
X242386599Y-173836185D01*
X242386599Y-173836185D02*
X242458028Y-173764757D01*
X242458028Y-173764757D02*
X242600885Y-173693328D01*
X242600885Y-173693328D02*
X242886599Y-173693328D01*
X242886599Y-173693328D02*
X243029457Y-173764757D01*
X243815171Y-174621900D02*
X243815171Y-174693328D01*
X243815171Y-174693328D02*
X243743742Y-174836185D01*
X243743742Y-174836185D02*
X243672314Y-174907614D01*
D10*
D11*
X178243741Y-170693328D02*
X178815169Y-170693328D01*
X178458026Y-170193328D02*
X178458026Y-171479042D01*
X178458026Y-171479042D02*
X178529455Y-171621900D01*
X178529455Y-171621900D02*
X178672312Y-171693328D01*
X178672312Y-171693328D02*
X178815169Y-171693328D01*
X179315169Y-171693328D02*
X179315169Y-170193328D01*
X179958027Y-171693328D02*
X179958027Y-170907614D01*
X179958027Y-170907614D02*
X179886598Y-170764757D01*
X179886598Y-170764757D02*
X179743741Y-170693328D01*
X179743741Y-170693328D02*
X179529455Y-170693328D01*
X179529455Y-170693328D02*
X179386598Y-170764757D01*
X179386598Y-170764757D02*
X179315169Y-170836185D01*
X181243741Y-171621900D02*
X181100884Y-171693328D01*
X181100884Y-171693328D02*
X180815170Y-171693328D01*
X180815170Y-171693328D02*
X180672312Y-171621900D01*
X180672312Y-171621900D02*
X180600884Y-171479042D01*
X180600884Y-171479042D02*
X180600884Y-170907614D01*
X180600884Y-170907614D02*
X180672312Y-170764757D01*
X180672312Y-170764757D02*
X180815170Y-170693328D01*
X180815170Y-170693328D02*
X181100884Y-170693328D01*
X181100884Y-170693328D02*
X181243741Y-170764757D01*
X181243741Y-170764757D02*
X181315170Y-170907614D01*
X181315170Y-170907614D02*
X181315170Y-171050471D01*
X181315170Y-171050471D02*
X180600884Y-171193328D01*
X183958026Y-171550471D02*
X183886598Y-171621900D01*
X183886598Y-171621900D02*
X183672312Y-171693328D01*
X183672312Y-171693328D02*
X183529455Y-171693328D01*
X183529455Y-171693328D02*
X183315169Y-171621900D01*
X183315169Y-171621900D02*
X183172312Y-171479042D01*
X183172312Y-171479042D02*
X183100883Y-171336185D01*
X183100883Y-171336185D02*
X183029455Y-171050471D01*
X183029455Y-171050471D02*
X183029455Y-170836185D01*
X183029455Y-170836185D02*
X183100883Y-170550471D01*
X183100883Y-170550471D02*
X183172312Y-170407614D01*
X183172312Y-170407614D02*
X183315169Y-170264757D01*
X183315169Y-170264757D02*
X183529455Y-170193328D01*
X183529455Y-170193328D02*
X183672312Y-170193328D01*
X183672312Y-170193328D02*
X183886598Y-170264757D01*
X183886598Y-170264757D02*
X183958026Y-170336185D01*
X184600883Y-170907614D02*
X185100883Y-170907614D01*
X185315169Y-171693328D02*
X184600883Y-171693328D01*
X184600883Y-171693328D02*
X184600883Y-170193328D01*
X184600883Y-170193328D02*
X185315169Y-170193328D01*
X186815169Y-171693328D02*
X186315169Y-170979042D01*
X185958026Y-171693328D02*
X185958026Y-170193328D01*
X185958026Y-170193328D02*
X186529455Y-170193328D01*
X186529455Y-170193328D02*
X186672312Y-170264757D01*
X186672312Y-170264757D02*
X186743741Y-170336185D01*
X186743741Y-170336185D02*
X186815169Y-170479042D01*
X186815169Y-170479042D02*
X186815169Y-170693328D01*
X186815169Y-170693328D02*
X186743741Y-170836185D01*
X186743741Y-170836185D02*
X186672312Y-170907614D01*
X186672312Y-170907614D02*
X186529455Y-170979042D01*
X186529455Y-170979042D02*
X185958026Y-170979042D01*
X187458026Y-171693328D02*
X187458026Y-170193328D01*
X187458026Y-170193328D02*
X188315169Y-171693328D01*
X188315169Y-171693328D02*
X188315169Y-170193328D01*
X189029455Y-171121900D02*
X190172313Y-171121900D01*
X191172313Y-170193328D02*
X191458027Y-170193328D01*
X191458027Y-170193328D02*
X191600884Y-170264757D01*
X191600884Y-170264757D02*
X191743741Y-170407614D01*
X191743741Y-170407614D02*
X191815170Y-170693328D01*
X191815170Y-170693328D02*
X191815170Y-171193328D01*
X191815170Y-171193328D02*
X191743741Y-171479042D01*
X191743741Y-171479042D02*
X191600884Y-171621900D01*
X191600884Y-171621900D02*
X191458027Y-171693328D01*
X191458027Y-171693328D02*
X191172313Y-171693328D01*
X191172313Y-171693328D02*
X191029456Y-171621900D01*
X191029456Y-171621900D02*
X190886598Y-171479042D01*
X190886598Y-171479042D02*
X190815170Y-171193328D01*
X190815170Y-171193328D02*
X190815170Y-170693328D01*
X190815170Y-170693328D02*
X190886598Y-170407614D01*
X190886598Y-170407614D02*
X191029456Y-170264757D01*
X191029456Y-170264757D02*
X191172313Y-170193328D01*
X192458027Y-171693328D02*
X192458027Y-170193328D01*
X192458027Y-170907614D02*
X193315170Y-170907614D01*
X193315170Y-171693328D02*
X193315170Y-170193328D01*
X194743742Y-171693328D02*
X194029456Y-171693328D01*
X194029456Y-171693328D02*
X194029456Y-170193328D01*
X195243742Y-171121900D02*
X196386600Y-171121900D01*
X197100885Y-171693328D02*
X197100885Y-170193328D01*
X197100885Y-170193328D02*
X197672314Y-170193328D01*
X197672314Y-170193328D02*
X197815171Y-170264757D01*
X197815171Y-170264757D02*
X197886600Y-170336185D01*
X197886600Y-170336185D02*
X197958028Y-170479042D01*
X197958028Y-170479042D02*
X197958028Y-170693328D01*
X197958028Y-170693328D02*
X197886600Y-170836185D01*
X197886600Y-170836185D02*
X197815171Y-170907614D01*
X197815171Y-170907614D02*
X197672314Y-170979042D01*
X197672314Y-170979042D02*
X197100885Y-170979042D01*
X199600885Y-170693328D02*
X199958028Y-171693328D01*
X199958028Y-171693328D02*
X200315171Y-170693328D01*
X200815171Y-170336185D02*
X200886599Y-170264757D01*
X200886599Y-170264757D02*
X201029457Y-170193328D01*
X201029457Y-170193328D02*
X201386599Y-170193328D01*
X201386599Y-170193328D02*
X201529457Y-170264757D01*
X201529457Y-170264757D02*
X201600885Y-170336185D01*
X201600885Y-170336185D02*
X201672314Y-170479042D01*
X201672314Y-170479042D02*
X201672314Y-170621900D01*
X201672314Y-170621900D02*
X201600885Y-170836185D01*
X201600885Y-170836185D02*
X200743742Y-171693328D01*
X200743742Y-171693328D02*
X201672314Y-171693328D01*
X203886599Y-172264757D02*
X203815170Y-172193328D01*
X203815170Y-172193328D02*
X203672313Y-171979042D01*
X203672313Y-171979042D02*
X203600885Y-171836185D01*
X203600885Y-171836185D02*
X203529456Y-171621900D01*
X203529456Y-171621900D02*
X203458027Y-171264757D01*
X203458027Y-171264757D02*
X203458027Y-170979042D01*
X203458027Y-170979042D02*
X203529456Y-170621900D01*
X203529456Y-170621900D02*
X203600885Y-170407614D01*
X203600885Y-170407614D02*
X203672313Y-170264757D01*
X203672313Y-170264757D02*
X203815170Y-170050471D01*
X203815170Y-170050471D02*
X203886599Y-169979042D01*
X204458027Y-171693328D02*
X204458027Y-170193328D01*
X205100885Y-171693328D02*
X205100885Y-170907614D01*
X205100885Y-170907614D02*
X205029456Y-170764757D01*
X205029456Y-170764757D02*
X204886599Y-170693328D01*
X204886599Y-170693328D02*
X204672313Y-170693328D01*
X204672313Y-170693328D02*
X204529456Y-170764757D01*
X204529456Y-170764757D02*
X204458027Y-170836185D01*
X205600885Y-170693328D02*
X206172313Y-170693328D01*
X205815170Y-170193328D02*
X205815170Y-171479042D01*
X205815170Y-171479042D02*
X205886599Y-171621900D01*
X205886599Y-171621900D02*
X206029456Y-171693328D01*
X206029456Y-171693328D02*
X206172313Y-171693328D01*
X206458028Y-170693328D02*
X207029456Y-170693328D01*
X206672313Y-170193328D02*
X206672313Y-171479042D01*
X206672313Y-171479042D02*
X206743742Y-171621900D01*
X206743742Y-171621900D02*
X206886599Y-171693328D01*
X206886599Y-171693328D02*
X207029456Y-171693328D01*
X207529456Y-170693328D02*
X207529456Y-172193328D01*
X207529456Y-170764757D02*
X207672314Y-170693328D01*
X207672314Y-170693328D02*
X207958028Y-170693328D01*
X207958028Y-170693328D02*
X208100885Y-170764757D01*
X208100885Y-170764757D02*
X208172314Y-170836185D01*
X208172314Y-170836185D02*
X208243742Y-170979042D01*
X208243742Y-170979042D02*
X208243742Y-171407614D01*
X208243742Y-171407614D02*
X208172314Y-171550471D01*
X208172314Y-171550471D02*
X208100885Y-171621900D01*
X208100885Y-171621900D02*
X207958028Y-171693328D01*
X207958028Y-171693328D02*
X207672314Y-171693328D01*
X207672314Y-171693328D02*
X207529456Y-171621900D01*
X208815171Y-171621900D02*
X208958028Y-171693328D01*
X208958028Y-171693328D02*
X209243742Y-171693328D01*
X209243742Y-171693328D02*
X209386599Y-171621900D01*
X209386599Y-171621900D02*
X209458028Y-171479042D01*
X209458028Y-171479042D02*
X209458028Y-171407614D01*
X209458028Y-171407614D02*
X209386599Y-171264757D01*
X209386599Y-171264757D02*
X209243742Y-171193328D01*
X209243742Y-171193328D02*
X209029457Y-171193328D01*
X209029457Y-171193328D02*
X208886599Y-171121900D01*
X208886599Y-171121900D02*
X208815171Y-170979042D01*
X208815171Y-170979042D02*
X208815171Y-170907614D01*
X208815171Y-170907614D02*
X208886599Y-170764757D01*
X208886599Y-170764757D02*
X209029457Y-170693328D01*
X209029457Y-170693328D02*
X209243742Y-170693328D01*
X209243742Y-170693328D02*
X209386599Y-170764757D01*
X210100885Y-171550471D02*
X210172314Y-171621900D01*
X210172314Y-171621900D02*
X210100885Y-171693328D01*
X210100885Y-171693328D02*
X210029457Y-171621900D01*
X210029457Y-171621900D02*
X210100885Y-171550471D01*
X210100885Y-171550471D02*
X210100885Y-171693328D01*
X210100885Y-170764757D02*
X210172314Y-170836185D01*
X210172314Y-170836185D02*
X210100885Y-170907614D01*
X210100885Y-170907614D02*
X210029457Y-170836185D01*
X210029457Y-170836185D02*
X210100885Y-170764757D01*
X210100885Y-170764757D02*
X210100885Y-170907614D01*
X211886600Y-170121900D02*
X210600886Y-172050471D01*
X213458029Y-170121900D02*
X212172315Y-172050471D01*
X214600887Y-171621900D02*
X214458029Y-171693328D01*
X214458029Y-171693328D02*
X214172315Y-171693328D01*
X214172315Y-171693328D02*
X214029458Y-171621900D01*
X214029458Y-171621900D02*
X213958029Y-171550471D01*
X213958029Y-171550471D02*
X213886601Y-171407614D01*
X213886601Y-171407614D02*
X213886601Y-170979042D01*
X213886601Y-170979042D02*
X213958029Y-170836185D01*
X213958029Y-170836185D02*
X214029458Y-170764757D01*
X214029458Y-170764757D02*
X214172315Y-170693328D01*
X214172315Y-170693328D02*
X214458029Y-170693328D01*
X214458029Y-170693328D02*
X214600887Y-170764757D01*
X215815172Y-171621900D02*
X215672315Y-171693328D01*
X215672315Y-171693328D02*
X215386601Y-171693328D01*
X215386601Y-171693328D02*
X215243743Y-171621900D01*
X215243743Y-171621900D02*
X215172315Y-171479042D01*
X215172315Y-171479042D02*
X215172315Y-170907614D01*
X215172315Y-170907614D02*
X215243743Y-170764757D01*
X215243743Y-170764757D02*
X215386601Y-170693328D01*
X215386601Y-170693328D02*
X215672315Y-170693328D01*
X215672315Y-170693328D02*
X215815172Y-170764757D01*
X215815172Y-170764757D02*
X215886601Y-170907614D01*
X215886601Y-170907614D02*
X215886601Y-171050471D01*
X215886601Y-171050471D02*
X215172315Y-171193328D01*
X216529457Y-171693328D02*
X216529457Y-170693328D01*
X216529457Y-170979042D02*
X216600886Y-170836185D01*
X216600886Y-170836185D02*
X216672315Y-170764757D01*
X216672315Y-170764757D02*
X216815172Y-170693328D01*
X216815172Y-170693328D02*
X216958029Y-170693328D01*
X217458028Y-170693328D02*
X217458028Y-171693328D01*
X217458028Y-170836185D02*
X217529457Y-170764757D01*
X217529457Y-170764757D02*
X217672314Y-170693328D01*
X217672314Y-170693328D02*
X217886600Y-170693328D01*
X217886600Y-170693328D02*
X218029457Y-170764757D01*
X218029457Y-170764757D02*
X218100886Y-170907614D01*
X218100886Y-170907614D02*
X218100886Y-171693328D01*
X218815171Y-171550471D02*
X218886600Y-171621900D01*
X218886600Y-171621900D02*
X218815171Y-171693328D01*
X218815171Y-171693328D02*
X218743743Y-171621900D01*
X218743743Y-171621900D02*
X218815171Y-171550471D01*
X218815171Y-171550471D02*
X218815171Y-171693328D01*
X220172315Y-171621900D02*
X220029457Y-171693328D01*
X220029457Y-171693328D02*
X219743743Y-171693328D01*
X219743743Y-171693328D02*
X219600886Y-171621900D01*
X219600886Y-171621900D02*
X219529457Y-171550471D01*
X219529457Y-171550471D02*
X219458029Y-171407614D01*
X219458029Y-171407614D02*
X219458029Y-170979042D01*
X219458029Y-170979042D02*
X219529457Y-170836185D01*
X219529457Y-170836185D02*
X219600886Y-170764757D01*
X219600886Y-170764757D02*
X219743743Y-170693328D01*
X219743743Y-170693328D02*
X220029457Y-170693328D01*
X220029457Y-170693328D02*
X220172315Y-170764757D01*
X220815171Y-171693328D02*
X220815171Y-170193328D01*
X221458029Y-171693328D02*
X221458029Y-170907614D01*
X221458029Y-170907614D02*
X221386600Y-170764757D01*
X221386600Y-170764757D02*
X221243743Y-170693328D01*
X221243743Y-170693328D02*
X221029457Y-170693328D01*
X221029457Y-170693328D02*
X220886600Y-170764757D01*
X220886600Y-170764757D02*
X220815171Y-170836185D01*
X223243743Y-170121900D02*
X221958029Y-172050471D01*
X224386601Y-171621900D02*
X224243743Y-171693328D01*
X224243743Y-171693328D02*
X223958029Y-171693328D01*
X223958029Y-171693328D02*
X223815172Y-171621900D01*
X223815172Y-171621900D02*
X223743743Y-171550471D01*
X223743743Y-171550471D02*
X223672315Y-171407614D01*
X223672315Y-171407614D02*
X223672315Y-170979042D01*
X223672315Y-170979042D02*
X223743743Y-170836185D01*
X223743743Y-170836185D02*
X223815172Y-170764757D01*
X223815172Y-170764757D02*
X223958029Y-170693328D01*
X223958029Y-170693328D02*
X224243743Y-170693328D01*
X224243743Y-170693328D02*
X224386601Y-170764757D01*
X225600886Y-171621900D02*
X225458029Y-171693328D01*
X225458029Y-171693328D02*
X225172315Y-171693328D01*
X225172315Y-171693328D02*
X225029457Y-171621900D01*
X225029457Y-171621900D02*
X224958029Y-171479042D01*
X224958029Y-171479042D02*
X224958029Y-170907614D01*
X224958029Y-170907614D02*
X225029457Y-170764757D01*
X225029457Y-170764757D02*
X225172315Y-170693328D01*
X225172315Y-170693328D02*
X225458029Y-170693328D01*
X225458029Y-170693328D02*
X225600886Y-170764757D01*
X225600886Y-170764757D02*
X225672315Y-170907614D01*
X225672315Y-170907614D02*
X225672315Y-171050471D01*
X225672315Y-171050471D02*
X224958029Y-171193328D01*
X226315171Y-171693328D02*
X226315171Y-170693328D01*
X226315171Y-170979042D02*
X226386600Y-170836185D01*
X226386600Y-170836185D02*
X226458029Y-170764757D01*
X226458029Y-170764757D02*
X226600886Y-170693328D01*
X226600886Y-170693328D02*
X226743743Y-170693328D01*
X227243742Y-170693328D02*
X227243742Y-171693328D01*
X227243742Y-170836185D02*
X227315171Y-170764757D01*
X227315171Y-170764757D02*
X227458028Y-170693328D01*
X227458028Y-170693328D02*
X227672314Y-170693328D01*
X227672314Y-170693328D02*
X227815171Y-170764757D01*
X227815171Y-170764757D02*
X227886600Y-170907614D01*
X227886600Y-170907614D02*
X227886600Y-171693328D01*
X228600885Y-171121900D02*
X229743743Y-171121900D01*
X230672314Y-171693328D02*
X230529457Y-171621900D01*
X230529457Y-171621900D02*
X230458028Y-171550471D01*
X230458028Y-171550471D02*
X230386600Y-171407614D01*
X230386600Y-171407614D02*
X230386600Y-170979042D01*
X230386600Y-170979042D02*
X230458028Y-170836185D01*
X230458028Y-170836185D02*
X230529457Y-170764757D01*
X230529457Y-170764757D02*
X230672314Y-170693328D01*
X230672314Y-170693328D02*
X230886600Y-170693328D01*
X230886600Y-170693328D02*
X231029457Y-170764757D01*
X231029457Y-170764757D02*
X231100886Y-170836185D01*
X231100886Y-170836185D02*
X231172314Y-170979042D01*
X231172314Y-170979042D02*
X231172314Y-171407614D01*
X231172314Y-171407614D02*
X231100886Y-171550471D01*
X231100886Y-171550471D02*
X231029457Y-171621900D01*
X231029457Y-171621900D02*
X230886600Y-171693328D01*
X230886600Y-171693328D02*
X230672314Y-171693328D01*
X231815171Y-171693328D02*
X231815171Y-170193328D01*
X232458029Y-171693328D02*
X232458029Y-170907614D01*
X232458029Y-170907614D02*
X232386600Y-170764757D01*
X232386600Y-170764757D02*
X232243743Y-170693328D01*
X232243743Y-170693328D02*
X232029457Y-170693328D01*
X232029457Y-170693328D02*
X231886600Y-170764757D01*
X231886600Y-170764757D02*
X231815171Y-170836185D01*
X233386600Y-171693328D02*
X233243743Y-171621900D01*
X233243743Y-171621900D02*
X233172314Y-171479042D01*
X233172314Y-171479042D02*
X233172314Y-170193328D01*
X233815171Y-172264757D02*
X233886600Y-172193328D01*
X233886600Y-172193328D02*
X234029457Y-171979042D01*
X234029457Y-171979042D02*
X234100886Y-171836185D01*
X234100886Y-171836185D02*
X234172314Y-171621900D01*
X234172314Y-171621900D02*
X234243743Y-171264757D01*
X234243743Y-171264757D02*
X234243743Y-170979042D01*
X234243743Y-170979042D02*
X234172314Y-170621900D01*
X234172314Y-170621900D02*
X234100886Y-170407614D01*
X234100886Y-170407614D02*
X234029457Y-170264757D01*
X234029457Y-170264757D02*
X233886600Y-170050471D01*
X233886600Y-170050471D02*
X233815171Y-169979042D01*
X234958028Y-171550471D02*
X235029457Y-171621900D01*
X235029457Y-171621900D02*
X234958028Y-171693328D01*
X234958028Y-171693328D02*
X234886600Y-171621900D01*
X234886600Y-171621900D02*
X234958028Y-171550471D01*
X234958028Y-171550471D02*
X234958028Y-171693328D01*
D10*
D11*
X178243741Y-167193328D02*
X179100884Y-167193328D01*
X178672312Y-168693328D02*
X178672312Y-167193328D01*
X179600883Y-168693328D02*
X179600883Y-167193328D01*
X180243741Y-168693328D02*
X180243741Y-167907614D01*
X180243741Y-167907614D02*
X180172312Y-167764757D01*
X180172312Y-167764757D02*
X180029455Y-167693328D01*
X180029455Y-167693328D02*
X179815169Y-167693328D01*
X179815169Y-167693328D02*
X179672312Y-167764757D01*
X179672312Y-167764757D02*
X179600883Y-167836185D01*
X180958026Y-168693328D02*
X180958026Y-167693328D01*
X180958026Y-167193328D02*
X180886598Y-167264757D01*
X180886598Y-167264757D02*
X180958026Y-167336185D01*
X180958026Y-167336185D02*
X181029455Y-167264757D01*
X181029455Y-167264757D02*
X180958026Y-167193328D01*
X180958026Y-167193328D02*
X180958026Y-167336185D01*
X181600884Y-168621900D02*
X181743741Y-168693328D01*
X181743741Y-168693328D02*
X182029455Y-168693328D01*
X182029455Y-168693328D02*
X182172312Y-168621900D01*
X182172312Y-168621900D02*
X182243741Y-168479042D01*
X182243741Y-168479042D02*
X182243741Y-168407614D01*
X182243741Y-168407614D02*
X182172312Y-168264757D01*
X182172312Y-168264757D02*
X182029455Y-168193328D01*
X182029455Y-168193328D02*
X181815170Y-168193328D01*
X181815170Y-168193328D02*
X181672312Y-168121900D01*
X181672312Y-168121900D02*
X181600884Y-167979042D01*
X181600884Y-167979042D02*
X181600884Y-167907614D01*
X181600884Y-167907614D02*
X181672312Y-167764757D01*
X181672312Y-167764757D02*
X181815170Y-167693328D01*
X181815170Y-167693328D02*
X182029455Y-167693328D01*
X182029455Y-167693328D02*
X182172312Y-167764757D01*
X184672313Y-168693328D02*
X184672313Y-167193328D01*
X184672313Y-168621900D02*
X184529455Y-168693328D01*
X184529455Y-168693328D02*
X184243741Y-168693328D01*
X184243741Y-168693328D02*
X184100884Y-168621900D01*
X184100884Y-168621900D02*
X184029455Y-168550471D01*
X184029455Y-168550471D02*
X183958027Y-168407614D01*
X183958027Y-168407614D02*
X183958027Y-167979042D01*
X183958027Y-167979042D02*
X184029455Y-167836185D01*
X184029455Y-167836185D02*
X184100884Y-167764757D01*
X184100884Y-167764757D02*
X184243741Y-167693328D01*
X184243741Y-167693328D02*
X184529455Y-167693328D01*
X184529455Y-167693328D02*
X184672313Y-167764757D01*
X185600884Y-168693328D02*
X185458027Y-168621900D01*
X185458027Y-168621900D02*
X185386598Y-168550471D01*
X185386598Y-168550471D02*
X185315170Y-168407614D01*
X185315170Y-168407614D02*
X185315170Y-167979042D01*
X185315170Y-167979042D02*
X185386598Y-167836185D01*
X185386598Y-167836185D02*
X185458027Y-167764757D01*
X185458027Y-167764757D02*
X185600884Y-167693328D01*
X185600884Y-167693328D02*
X185815170Y-167693328D01*
X185815170Y-167693328D02*
X185958027Y-167764757D01*
X185958027Y-167764757D02*
X186029456Y-167836185D01*
X186029456Y-167836185D02*
X186100884Y-167979042D01*
X186100884Y-167979042D02*
X186100884Y-168407614D01*
X186100884Y-168407614D02*
X186029456Y-168550471D01*
X186029456Y-168550471D02*
X185958027Y-168621900D01*
X185958027Y-168621900D02*
X185815170Y-168693328D01*
X185815170Y-168693328D02*
X185600884Y-168693328D01*
X187386599Y-168621900D02*
X187243741Y-168693328D01*
X187243741Y-168693328D02*
X186958027Y-168693328D01*
X186958027Y-168693328D02*
X186815170Y-168621900D01*
X186815170Y-168621900D02*
X186743741Y-168550471D01*
X186743741Y-168550471D02*
X186672313Y-168407614D01*
X186672313Y-168407614D02*
X186672313Y-167979042D01*
X186672313Y-167979042D02*
X186743741Y-167836185D01*
X186743741Y-167836185D02*
X186815170Y-167764757D01*
X186815170Y-167764757D02*
X186958027Y-167693328D01*
X186958027Y-167693328D02*
X187243741Y-167693328D01*
X187243741Y-167693328D02*
X187386599Y-167764757D01*
X188672313Y-167693328D02*
X188672313Y-168693328D01*
X188029455Y-167693328D02*
X188029455Y-168479042D01*
X188029455Y-168479042D02*
X188100884Y-168621900D01*
X188100884Y-168621900D02*
X188243741Y-168693328D01*
X188243741Y-168693328D02*
X188458027Y-168693328D01*
X188458027Y-168693328D02*
X188600884Y-168621900D01*
X188600884Y-168621900D02*
X188672313Y-168550471D01*
X189386598Y-168693328D02*
X189386598Y-167693328D01*
X189386598Y-167836185D02*
X189458027Y-167764757D01*
X189458027Y-167764757D02*
X189600884Y-167693328D01*
X189600884Y-167693328D02*
X189815170Y-167693328D01*
X189815170Y-167693328D02*
X189958027Y-167764757D01*
X189958027Y-167764757D02*
X190029456Y-167907614D01*
X190029456Y-167907614D02*
X190029456Y-168693328D01*
X190029456Y-167907614D02*
X190100884Y-167764757D01*
X190100884Y-167764757D02*
X190243741Y-167693328D01*
X190243741Y-167693328D02*
X190458027Y-167693328D01*
X190458027Y-167693328D02*
X190600884Y-167764757D01*
X190600884Y-167764757D02*
X190672313Y-167907614D01*
X190672313Y-167907614D02*
X190672313Y-168693328D01*
X191958027Y-168621900D02*
X191815170Y-168693328D01*
X191815170Y-168693328D02*
X191529456Y-168693328D01*
X191529456Y-168693328D02*
X191386598Y-168621900D01*
X191386598Y-168621900D02*
X191315170Y-168479042D01*
X191315170Y-168479042D02*
X191315170Y-167907614D01*
X191315170Y-167907614D02*
X191386598Y-167764757D01*
X191386598Y-167764757D02*
X191529456Y-167693328D01*
X191529456Y-167693328D02*
X191815170Y-167693328D01*
X191815170Y-167693328D02*
X191958027Y-167764757D01*
X191958027Y-167764757D02*
X192029456Y-167907614D01*
X192029456Y-167907614D02*
X192029456Y-168050471D01*
X192029456Y-168050471D02*
X191315170Y-168193328D01*
X192672312Y-167693328D02*
X192672312Y-168693328D01*
X192672312Y-167836185D02*
X192743741Y-167764757D01*
X192743741Y-167764757D02*
X192886598Y-167693328D01*
X192886598Y-167693328D02*
X193100884Y-167693328D01*
X193100884Y-167693328D02*
X193243741Y-167764757D01*
X193243741Y-167764757D02*
X193315170Y-167907614D01*
X193315170Y-167907614D02*
X193315170Y-168693328D01*
X193815170Y-167693328D02*
X194386598Y-167693328D01*
X194029455Y-167193328D02*
X194029455Y-168479042D01*
X194029455Y-168479042D02*
X194100884Y-168621900D01*
X194100884Y-168621900D02*
X194243741Y-168693328D01*
X194243741Y-168693328D02*
X194386598Y-168693328D01*
X195529456Y-168693328D02*
X195529456Y-167907614D01*
X195529456Y-167907614D02*
X195458027Y-167764757D01*
X195458027Y-167764757D02*
X195315170Y-167693328D01*
X195315170Y-167693328D02*
X195029456Y-167693328D01*
X195029456Y-167693328D02*
X194886598Y-167764757D01*
X195529456Y-168621900D02*
X195386598Y-168693328D01*
X195386598Y-168693328D02*
X195029456Y-168693328D01*
X195029456Y-168693328D02*
X194886598Y-168621900D01*
X194886598Y-168621900D02*
X194815170Y-168479042D01*
X194815170Y-168479042D02*
X194815170Y-168336185D01*
X194815170Y-168336185D02*
X194886598Y-168193328D01*
X194886598Y-168193328D02*
X195029456Y-168121900D01*
X195029456Y-168121900D02*
X195386598Y-168121900D01*
X195386598Y-168121900D02*
X195529456Y-168050471D01*
X196029456Y-167693328D02*
X196600884Y-167693328D01*
X196243741Y-167193328D02*
X196243741Y-168479042D01*
X196243741Y-168479042D02*
X196315170Y-168621900D01*
X196315170Y-168621900D02*
X196458027Y-168693328D01*
X196458027Y-168693328D02*
X196600884Y-168693328D01*
X197100884Y-168693328D02*
X197100884Y-167693328D01*
X197100884Y-167193328D02*
X197029456Y-167264757D01*
X197029456Y-167264757D02*
X197100884Y-167336185D01*
X197100884Y-167336185D02*
X197172313Y-167264757D01*
X197172313Y-167264757D02*
X197100884Y-167193328D01*
X197100884Y-167193328D02*
X197100884Y-167336185D01*
X198029456Y-168693328D02*
X197886599Y-168621900D01*
X197886599Y-168621900D02*
X197815170Y-168550471D01*
X197815170Y-168550471D02*
X197743742Y-168407614D01*
X197743742Y-168407614D02*
X197743742Y-167979042D01*
X197743742Y-167979042D02*
X197815170Y-167836185D01*
X197815170Y-167836185D02*
X197886599Y-167764757D01*
X197886599Y-167764757D02*
X198029456Y-167693328D01*
X198029456Y-167693328D02*
X198243742Y-167693328D01*
X198243742Y-167693328D02*
X198386599Y-167764757D01*
X198386599Y-167764757D02*
X198458028Y-167836185D01*
X198458028Y-167836185D02*
X198529456Y-167979042D01*
X198529456Y-167979042D02*
X198529456Y-168407614D01*
X198529456Y-168407614D02*
X198458028Y-168550471D01*
X198458028Y-168550471D02*
X198386599Y-168621900D01*
X198386599Y-168621900D02*
X198243742Y-168693328D01*
X198243742Y-168693328D02*
X198029456Y-168693328D01*
X199172313Y-167693328D02*
X199172313Y-168693328D01*
X199172313Y-167836185D02*
X199243742Y-167764757D01*
X199243742Y-167764757D02*
X199386599Y-167693328D01*
X199386599Y-167693328D02*
X199600885Y-167693328D01*
X199600885Y-167693328D02*
X199743742Y-167764757D01*
X199743742Y-167764757D02*
X199815171Y-167907614D01*
X199815171Y-167907614D02*
X199815171Y-168693328D01*
X201672313Y-168693328D02*
X201672313Y-167693328D01*
X201672313Y-167193328D02*
X201600885Y-167264757D01*
X201600885Y-167264757D02*
X201672313Y-167336185D01*
X201672313Y-167336185D02*
X201743742Y-167264757D01*
X201743742Y-167264757D02*
X201672313Y-167193328D01*
X201672313Y-167193328D02*
X201672313Y-167336185D01*
X202315171Y-168621900D02*
X202458028Y-168693328D01*
X202458028Y-168693328D02*
X202743742Y-168693328D01*
X202743742Y-168693328D02*
X202886599Y-168621900D01*
X202886599Y-168621900D02*
X202958028Y-168479042D01*
X202958028Y-168479042D02*
X202958028Y-168407614D01*
X202958028Y-168407614D02*
X202886599Y-168264757D01*
X202886599Y-168264757D02*
X202743742Y-168193328D01*
X202743742Y-168193328D02*
X202529457Y-168193328D01*
X202529457Y-168193328D02*
X202386599Y-168121900D01*
X202386599Y-168121900D02*
X202315171Y-167979042D01*
X202315171Y-167979042D02*
X202315171Y-167907614D01*
X202315171Y-167907614D02*
X202386599Y-167764757D01*
X202386599Y-167764757D02*
X202529457Y-167693328D01*
X202529457Y-167693328D02*
X202743742Y-167693328D01*
X202743742Y-167693328D02*
X202886599Y-167764757D01*
X205386600Y-168693328D02*
X205386600Y-167193328D01*
X205386600Y-168621900D02*
X205243742Y-168693328D01*
X205243742Y-168693328D02*
X204958028Y-168693328D01*
X204958028Y-168693328D02*
X204815171Y-168621900D01*
X204815171Y-168621900D02*
X204743742Y-168550471D01*
X204743742Y-168550471D02*
X204672314Y-168407614D01*
X204672314Y-168407614D02*
X204672314Y-167979042D01*
X204672314Y-167979042D02*
X204743742Y-167836185D01*
X204743742Y-167836185D02*
X204815171Y-167764757D01*
X204815171Y-167764757D02*
X204958028Y-167693328D01*
X204958028Y-167693328D02*
X205243742Y-167693328D01*
X205243742Y-167693328D02*
X205386600Y-167764757D01*
X206100885Y-168693328D02*
X206100885Y-167693328D01*
X206100885Y-167193328D02*
X206029457Y-167264757D01*
X206029457Y-167264757D02*
X206100885Y-167336185D01*
X206100885Y-167336185D02*
X206172314Y-167264757D01*
X206172314Y-167264757D02*
X206100885Y-167193328D01*
X206100885Y-167193328D02*
X206100885Y-167336185D01*
X206743743Y-168621900D02*
X206886600Y-168693328D01*
X206886600Y-168693328D02*
X207172314Y-168693328D01*
X207172314Y-168693328D02*
X207315171Y-168621900D01*
X207315171Y-168621900D02*
X207386600Y-168479042D01*
X207386600Y-168479042D02*
X207386600Y-168407614D01*
X207386600Y-168407614D02*
X207315171Y-168264757D01*
X207315171Y-168264757D02*
X207172314Y-168193328D01*
X207172314Y-168193328D02*
X206958029Y-168193328D01*
X206958029Y-168193328D02*
X206815171Y-168121900D01*
X206815171Y-168121900D02*
X206743743Y-167979042D01*
X206743743Y-167979042D02*
X206743743Y-167907614D01*
X206743743Y-167907614D02*
X206815171Y-167764757D01*
X206815171Y-167764757D02*
X206958029Y-167693328D01*
X206958029Y-167693328D02*
X207172314Y-167693328D01*
X207172314Y-167693328D02*
X207315171Y-167764757D01*
X207815172Y-167693328D02*
X208386600Y-167693328D01*
X208029457Y-167193328D02*
X208029457Y-168479042D01*
X208029457Y-168479042D02*
X208100886Y-168621900D01*
X208100886Y-168621900D02*
X208243743Y-168693328D01*
X208243743Y-168693328D02*
X208386600Y-168693328D01*
X208886600Y-168693328D02*
X208886600Y-167693328D01*
X208886600Y-167979042D02*
X208958029Y-167836185D01*
X208958029Y-167836185D02*
X209029458Y-167764757D01*
X209029458Y-167764757D02*
X209172315Y-167693328D01*
X209172315Y-167693328D02*
X209315172Y-167693328D01*
X209815171Y-168693328D02*
X209815171Y-167693328D01*
X209815171Y-167193328D02*
X209743743Y-167264757D01*
X209743743Y-167264757D02*
X209815171Y-167336185D01*
X209815171Y-167336185D02*
X209886600Y-167264757D01*
X209886600Y-167264757D02*
X209815171Y-167193328D01*
X209815171Y-167193328D02*
X209815171Y-167336185D01*
X210529457Y-168693328D02*
X210529457Y-167193328D01*
X210529457Y-167764757D02*
X210672315Y-167693328D01*
X210672315Y-167693328D02*
X210958029Y-167693328D01*
X210958029Y-167693328D02*
X211100886Y-167764757D01*
X211100886Y-167764757D02*
X211172315Y-167836185D01*
X211172315Y-167836185D02*
X211243743Y-167979042D01*
X211243743Y-167979042D02*
X211243743Y-168407614D01*
X211243743Y-168407614D02*
X211172315Y-168550471D01*
X211172315Y-168550471D02*
X211100886Y-168621900D01*
X211100886Y-168621900D02*
X210958029Y-168693328D01*
X210958029Y-168693328D02*
X210672315Y-168693328D01*
X210672315Y-168693328D02*
X210529457Y-168621900D01*
X212529458Y-167693328D02*
X212529458Y-168693328D01*
X211886600Y-167693328D02*
X211886600Y-168479042D01*
X211886600Y-168479042D02*
X211958029Y-168621900D01*
X211958029Y-168621900D02*
X212100886Y-168693328D01*
X212100886Y-168693328D02*
X212315172Y-168693328D01*
X212315172Y-168693328D02*
X212458029Y-168621900D01*
X212458029Y-168621900D02*
X212529458Y-168550471D01*
X213029458Y-167693328D02*
X213600886Y-167693328D01*
X213243743Y-167193328D02*
X213243743Y-168479042D01*
X213243743Y-168479042D02*
X213315172Y-168621900D01*
X213315172Y-168621900D02*
X213458029Y-168693328D01*
X213458029Y-168693328D02*
X213600886Y-168693328D01*
X214672315Y-168621900D02*
X214529458Y-168693328D01*
X214529458Y-168693328D02*
X214243744Y-168693328D01*
X214243744Y-168693328D02*
X214100886Y-168621900D01*
X214100886Y-168621900D02*
X214029458Y-168479042D01*
X214029458Y-168479042D02*
X214029458Y-167907614D01*
X214029458Y-167907614D02*
X214100886Y-167764757D01*
X214100886Y-167764757D02*
X214243744Y-167693328D01*
X214243744Y-167693328D02*
X214529458Y-167693328D01*
X214529458Y-167693328D02*
X214672315Y-167764757D01*
X214672315Y-167764757D02*
X214743744Y-167907614D01*
X214743744Y-167907614D02*
X214743744Y-168050471D01*
X214743744Y-168050471D02*
X214029458Y-168193328D01*
X216029458Y-168693328D02*
X216029458Y-167193328D01*
X216029458Y-168621900D02*
X215886600Y-168693328D01*
X215886600Y-168693328D02*
X215600886Y-168693328D01*
X215600886Y-168693328D02*
X215458029Y-168621900D01*
X215458029Y-168621900D02*
X215386600Y-168550471D01*
X215386600Y-168550471D02*
X215315172Y-168407614D01*
X215315172Y-168407614D02*
X215315172Y-167979042D01*
X215315172Y-167979042D02*
X215386600Y-167836185D01*
X215386600Y-167836185D02*
X215458029Y-167764757D01*
X215458029Y-167764757D02*
X215600886Y-167693328D01*
X215600886Y-167693328D02*
X215886600Y-167693328D01*
X215886600Y-167693328D02*
X216029458Y-167764757D01*
X218529458Y-167693328D02*
X218529458Y-168693328D01*
X217886600Y-167693328D02*
X217886600Y-168479042D01*
X217886600Y-168479042D02*
X217958029Y-168621900D01*
X217958029Y-168621900D02*
X218100886Y-168693328D01*
X218100886Y-168693328D02*
X218315172Y-168693328D01*
X218315172Y-168693328D02*
X218458029Y-168621900D01*
X218458029Y-168621900D02*
X218529458Y-168550471D01*
X219243743Y-167693328D02*
X219243743Y-168693328D01*
X219243743Y-167836185D02*
X219315172Y-167764757D01*
X219315172Y-167764757D02*
X219458029Y-167693328D01*
X219458029Y-167693328D02*
X219672315Y-167693328D01*
X219672315Y-167693328D02*
X219815172Y-167764757D01*
X219815172Y-167764757D02*
X219886601Y-167907614D01*
X219886601Y-167907614D02*
X219886601Y-168693328D01*
X221243744Y-168693328D02*
X221243744Y-167193328D01*
X221243744Y-168621900D02*
X221100886Y-168693328D01*
X221100886Y-168693328D02*
X220815172Y-168693328D01*
X220815172Y-168693328D02*
X220672315Y-168621900D01*
X220672315Y-168621900D02*
X220600886Y-168550471D01*
X220600886Y-168550471D02*
X220529458Y-168407614D01*
X220529458Y-168407614D02*
X220529458Y-167979042D01*
X220529458Y-167979042D02*
X220600886Y-167836185D01*
X220600886Y-167836185D02*
X220672315Y-167764757D01*
X220672315Y-167764757D02*
X220815172Y-167693328D01*
X220815172Y-167693328D02*
X221100886Y-167693328D01*
X221100886Y-167693328D02*
X221243744Y-167764757D01*
X222529458Y-168621900D02*
X222386601Y-168693328D01*
X222386601Y-168693328D02*
X222100887Y-168693328D01*
X222100887Y-168693328D02*
X221958029Y-168621900D01*
X221958029Y-168621900D02*
X221886601Y-168479042D01*
X221886601Y-168479042D02*
X221886601Y-167907614D01*
X221886601Y-167907614D02*
X221958029Y-167764757D01*
X221958029Y-167764757D02*
X222100887Y-167693328D01*
X222100887Y-167693328D02*
X222386601Y-167693328D01*
X222386601Y-167693328D02*
X222529458Y-167764757D01*
X222529458Y-167764757D02*
X222600887Y-167907614D01*
X222600887Y-167907614D02*
X222600887Y-168050471D01*
X222600887Y-168050471D02*
X221886601Y-168193328D01*
X223243743Y-168693328D02*
X223243743Y-167693328D01*
X223243743Y-167979042D02*
X223315172Y-167836185D01*
X223315172Y-167836185D02*
X223386601Y-167764757D01*
X223386601Y-167764757D02*
X223529458Y-167693328D01*
X223529458Y-167693328D02*
X223672315Y-167693328D01*
X225100886Y-167693328D02*
X225672314Y-167693328D01*
X225315171Y-167193328D02*
X225315171Y-168479042D01*
X225315171Y-168479042D02*
X225386600Y-168621900D01*
X225386600Y-168621900D02*
X225529457Y-168693328D01*
X225529457Y-168693328D02*
X225672314Y-168693328D01*
X226172314Y-168693328D02*
X226172314Y-167193328D01*
X226815172Y-168693328D02*
X226815172Y-167907614D01*
X226815172Y-167907614D02*
X226743743Y-167764757D01*
X226743743Y-167764757D02*
X226600886Y-167693328D01*
X226600886Y-167693328D02*
X226386600Y-167693328D01*
X226386600Y-167693328D02*
X226243743Y-167764757D01*
X226243743Y-167764757D02*
X226172314Y-167836185D01*
X228100886Y-168621900D02*
X227958029Y-168693328D01*
X227958029Y-168693328D02*
X227672315Y-168693328D01*
X227672315Y-168693328D02*
X227529457Y-168621900D01*
X227529457Y-168621900D02*
X227458029Y-168479042D01*
X227458029Y-168479042D02*
X227458029Y-167907614D01*
X227458029Y-167907614D02*
X227529457Y-167764757D01*
X227529457Y-167764757D02*
X227672315Y-167693328D01*
X227672315Y-167693328D02*
X227958029Y-167693328D01*
X227958029Y-167693328D02*
X228100886Y-167764757D01*
X228100886Y-167764757D02*
X228172315Y-167907614D01*
X228172315Y-167907614D02*
X228172315Y-168050471D01*
X228172315Y-168050471D02*
X227458029Y-168193328D01*
X229743743Y-167693328D02*
X230315171Y-167693328D01*
X229958028Y-167193328D02*
X229958028Y-168479042D01*
X229958028Y-168479042D02*
X230029457Y-168621900D01*
X230029457Y-168621900D02*
X230172314Y-168693328D01*
X230172314Y-168693328D02*
X230315171Y-168693328D01*
X231386600Y-168621900D02*
X231243743Y-168693328D01*
X231243743Y-168693328D02*
X230958029Y-168693328D01*
X230958029Y-168693328D02*
X230815171Y-168621900D01*
X230815171Y-168621900D02*
X230743743Y-168479042D01*
X230743743Y-168479042D02*
X230743743Y-167907614D01*
X230743743Y-167907614D02*
X230815171Y-167764757D01*
X230815171Y-167764757D02*
X230958029Y-167693328D01*
X230958029Y-167693328D02*
X231243743Y-167693328D01*
X231243743Y-167693328D02*
X231386600Y-167764757D01*
X231386600Y-167764757D02*
X231458029Y-167907614D01*
X231458029Y-167907614D02*
X231458029Y-168050471D01*
X231458029Y-168050471D02*
X230743743Y-168193328D01*
X232100885Y-168693328D02*
X232100885Y-167693328D01*
X232100885Y-167979042D02*
X232172314Y-167836185D01*
X232172314Y-167836185D02*
X232243743Y-167764757D01*
X232243743Y-167764757D02*
X232386600Y-167693328D01*
X232386600Y-167693328D02*
X232529457Y-167693328D01*
X233029456Y-168693328D02*
X233029456Y-167693328D01*
X233029456Y-167836185D02*
X233100885Y-167764757D01*
X233100885Y-167764757D02*
X233243742Y-167693328D01*
X233243742Y-167693328D02*
X233458028Y-167693328D01*
X233458028Y-167693328D02*
X233600885Y-167764757D01*
X233600885Y-167764757D02*
X233672314Y-167907614D01*
X233672314Y-167907614D02*
X233672314Y-168693328D01*
X233672314Y-167907614D02*
X233743742Y-167764757D01*
X233743742Y-167764757D02*
X233886599Y-167693328D01*
X233886599Y-167693328D02*
X234100885Y-167693328D01*
X234100885Y-167693328D02*
X234243742Y-167764757D01*
X234243742Y-167764757D02*
X234315171Y-167907614D01*
X234315171Y-167907614D02*
X234315171Y-168693328D01*
X234958028Y-168621900D02*
X235100885Y-168693328D01*
X235100885Y-168693328D02*
X235386599Y-168693328D01*
X235386599Y-168693328D02*
X235529456Y-168621900D01*
X235529456Y-168621900D02*
X235600885Y-168479042D01*
X235600885Y-168479042D02*
X235600885Y-168407614D01*
X235600885Y-168407614D02*
X235529456Y-168264757D01*
X235529456Y-168264757D02*
X235386599Y-168193328D01*
X235386599Y-168193328D02*
X235172314Y-168193328D01*
X235172314Y-168193328D02*
X235029456Y-168121900D01*
X235029456Y-168121900D02*
X234958028Y-167979042D01*
X234958028Y-167979042D02*
X234958028Y-167907614D01*
X234958028Y-167907614D02*
X235029456Y-167764757D01*
X235029456Y-167764757D02*
X235172314Y-167693328D01*
X235172314Y-167693328D02*
X235386599Y-167693328D01*
X235386599Y-167693328D02*
X235529456Y-167764757D01*
X237600885Y-168693328D02*
X237458028Y-168621900D01*
X237458028Y-168621900D02*
X237386599Y-168550471D01*
X237386599Y-168550471D02*
X237315171Y-168407614D01*
X237315171Y-168407614D02*
X237315171Y-167979042D01*
X237315171Y-167979042D02*
X237386599Y-167836185D01*
X237386599Y-167836185D02*
X237458028Y-167764757D01*
X237458028Y-167764757D02*
X237600885Y-167693328D01*
X237600885Y-167693328D02*
X237815171Y-167693328D01*
X237815171Y-167693328D02*
X237958028Y-167764757D01*
X237958028Y-167764757D02*
X238029457Y-167836185D01*
X238029457Y-167836185D02*
X238100885Y-167979042D01*
X238100885Y-167979042D02*
X238100885Y-168407614D01*
X238100885Y-168407614D02*
X238029457Y-168550471D01*
X238029457Y-168550471D02*
X237958028Y-168621900D01*
X237958028Y-168621900D02*
X237815171Y-168693328D01*
X237815171Y-168693328D02*
X237600885Y-168693328D01*
X238529457Y-167693328D02*
X239100885Y-167693328D01*
X238743742Y-168693328D02*
X238743742Y-167407614D01*
X238743742Y-167407614D02*
X238815171Y-167264757D01*
X238815171Y-167264757D02*
X238958028Y-167193328D01*
X238958028Y-167193328D02*
X239100885Y-167193328D01*
D10*
D11*
X197002200Y-191507200D02*
X197002200Y-194507200D01*
D10*
D11*
X261002200Y-191507200D02*
X261002200Y-198007200D01*
D14*
%TO.C,J1*%
X67565000Y-87000000D03*
X67565000Y-87500000D03*
X67565000Y-88000000D03*
X67565000Y-88500000D03*
X67565000Y-89000000D03*
X67565000Y-89500000D03*
X67565000Y-90500000D03*
X67565000Y-91000000D03*
X67565000Y-91500000D03*
X67565000Y-92000000D03*
X67565000Y-92500000D03*
X67565000Y-93000000D03*
D15*
X66265000Y-93100000D03*
D14*
X66265000Y-92250000D03*
X66265000Y-91750000D03*
X66265000Y-91250000D03*
X66265000Y-90750000D03*
X66265000Y-90250000D03*
X66265000Y-89750000D03*
X66265000Y-89250000D03*
X66265000Y-88750000D03*
X66265000Y-88250000D03*
X66265000Y-87750000D03*
D15*
X66265000Y-86900000D03*
D16*
X67155000Y-85680000D03*
D17*
X61795000Y-85680000D03*
D16*
X67155000Y-94320000D03*
D17*
X61795000Y-94320000D03*
%TD*%
D18*
%TO.C,U17*%
X79187500Y-65237500D03*
X79587500Y-65237500D03*
X79987500Y-65237500D03*
X80387500Y-65237500D03*
X80787500Y-65237500D03*
X81187500Y-65237500D03*
X81587500Y-65237500D03*
X81987500Y-65237500D03*
X82387500Y-65237500D03*
X82787500Y-65237500D03*
X83187500Y-65237500D03*
X83587500Y-65237500D03*
X83987500Y-65237500D03*
X84387500Y-65237500D03*
D19*
X85225000Y-64400000D03*
X85225000Y-64000000D03*
X85225000Y-63600000D03*
X85225000Y-63200000D03*
X85225000Y-62800000D03*
X85225000Y-62400000D03*
X85225000Y-62000000D03*
X85225000Y-61600000D03*
X85225000Y-61200000D03*
X85225000Y-60800000D03*
X85225000Y-60400000D03*
X85225000Y-60000000D03*
X85225000Y-59600000D03*
X85225000Y-59200000D03*
D18*
X84387500Y-58362500D03*
X83987500Y-58362500D03*
X83587500Y-58362500D03*
X83187500Y-58362500D03*
X82787500Y-58362500D03*
X82387500Y-58362500D03*
X81987500Y-58362500D03*
X81587500Y-58362500D03*
X81187500Y-58362500D03*
X80787500Y-58362500D03*
X80387500Y-58362500D03*
X79987500Y-58362500D03*
X79587500Y-58362500D03*
X79187500Y-58362500D03*
D19*
X78350000Y-59200000D03*
X78350000Y-59600000D03*
X78350000Y-60000000D03*
X78350000Y-60400000D03*
X78350000Y-60800000D03*
X78350000Y-61200000D03*
X78350000Y-61600000D03*
X78350000Y-62000000D03*
X78350000Y-62400000D03*
X78350000Y-62800000D03*
X78350000Y-63200000D03*
X78350000Y-63600000D03*
X78350000Y-64000000D03*
X78350000Y-64400000D03*
D20*
X81787500Y-61800000D03*
%TD*%
D21*
%TO.C,C53*%
X70800000Y-81690000D03*
X70800000Y-82650000D03*
%TD*%
D22*
%TO.C,D10*%
X86950000Y-99050000D03*
X86950000Y-97475000D03*
%TD*%
D23*
%TO.C,U14*%
X76207500Y-66542500D03*
X76207500Y-66042500D03*
X76207500Y-65542500D03*
X76207500Y-65042500D03*
X73357500Y-65042500D03*
X73357500Y-65542500D03*
X73357500Y-66042500D03*
X73357500Y-66542500D03*
D24*
X74782500Y-65792500D03*
%TD*%
D25*
%TO.C,C34*%
X76730000Y-68500000D03*
X75770000Y-68500000D03*
%TD*%
D26*
%TO.C,C24*%
X81275000Y-56300000D03*
X81275000Y-55340000D03*
%TD*%
D27*
%TO.C,R49*%
X115260000Y-96300000D03*
X114240000Y-96300000D03*
%TD*%
D28*
%TO.C,U3*%
X71337500Y-90300000D03*
X71337500Y-89800000D03*
X71337500Y-89300000D03*
X69962500Y-89300000D03*
X69962500Y-89800000D03*
X69962500Y-90300000D03*
%TD*%
D29*
%TO.C,C9*%
X82420000Y-88920000D03*
X83380000Y-88920000D03*
%TD*%
D30*
%TO.C,Q4*%
X76450000Y-78812500D03*
X74550000Y-78812500D03*
X75500000Y-80687500D03*
%TD*%
D27*
%TO.C,R78*%
X96700000Y-92100000D03*
X95680000Y-92100000D03*
%TD*%
D31*
%TO.C,R80*%
X66390000Y-69750000D03*
X67410000Y-69750000D03*
%TD*%
%TO.C,R55*%
X69540000Y-57650000D03*
X70560000Y-57650000D03*
%TD*%
D27*
%TO.C,R43*%
X99560000Y-84950000D03*
X98540000Y-84950000D03*
%TD*%
D32*
%TO.C,D4*%
X73750000Y-73640000D03*
X75325000Y-73640000D03*
%TD*%
D33*
%TO.C,R34*%
X112550000Y-70490000D03*
X112550000Y-71510000D03*
%TD*%
%TO.C,R84*%
X72550000Y-81690000D03*
X72550000Y-82710000D03*
%TD*%
D34*
%TO.C,FID2*%
X125000000Y-97000000D03*
%TD*%
D31*
%TO.C,R90*%
X98390000Y-77950000D03*
X99410000Y-77950000D03*
%TD*%
%TO.C,R66*%
X75100000Y-57675000D03*
X76120000Y-57675000D03*
%TD*%
D34*
%TO.C,FID1*%
X63000000Y-53000000D03*
%TD*%
D33*
%TO.C,R85*%
X82425000Y-70025000D03*
X82425000Y-71045000D03*
%TD*%
D35*
%TO.C,R72*%
X77950000Y-78810000D03*
X77950000Y-77790000D03*
%TD*%
D36*
%TO.C,C52*%
X71000000Y-67500000D03*
X71000000Y-65600000D03*
%TD*%
D33*
%TO.C,R14*%
X110450000Y-79790000D03*
X110450000Y-80810000D03*
%TD*%
D25*
%TO.C,C18*%
X114880000Y-73530000D03*
X113920000Y-73530000D03*
%TD*%
D37*
%TO.C,MH2*%
X105000000Y-55000000D03*
%TD*%
D31*
%TO.C,R27*%
X122790000Y-67400000D03*
X123810000Y-67400000D03*
%TD*%
D38*
%TO.C,J2*%
X66205000Y-57110000D03*
X66205000Y-62890000D03*
D39*
X67280000Y-56800000D03*
X67280000Y-57600000D03*
D40*
X67280000Y-58750000D03*
X67280000Y-59750000D03*
X67280000Y-60250000D03*
X67280000Y-61250000D03*
D39*
X67280000Y-62400000D03*
X67280000Y-63200000D03*
X67280000Y-63200000D03*
X67280000Y-62400000D03*
D40*
X67280000Y-61750000D03*
X67280000Y-60750000D03*
X67280000Y-59250000D03*
X67280000Y-58250000D03*
D39*
X67280000Y-57600000D03*
X67280000Y-56800000D03*
D41*
X66705000Y-55680000D03*
D42*
X62525000Y-55680000D03*
D41*
X66705000Y-64320000D03*
D42*
X62525000Y-64320000D03*
%TD*%
D27*
%TO.C,R64*%
X88687500Y-62550000D03*
X87667500Y-62550000D03*
%TD*%
D33*
%TO.C,R35*%
X93100000Y-76040000D03*
X93100000Y-77060000D03*
%TD*%
D43*
%TO.C,D12*%
X65650000Y-51312500D03*
X65650000Y-52887500D03*
%TD*%
D44*
%TO.C,D14*%
X71000000Y-77400000D03*
X71000000Y-78800000D03*
%TD*%
D25*
%TO.C,C11*%
X112430000Y-84158701D03*
X111470000Y-84158701D03*
%TD*%
D35*
%TO.C,R28*%
X124100000Y-77010000D03*
X124100000Y-75990000D03*
%TD*%
D27*
%TO.C,R52*%
X82460000Y-72150000D03*
X81440000Y-72150000D03*
%TD*%
D31*
%TO.C,R20*%
X112490000Y-74980000D03*
X113510000Y-74980000D03*
%TD*%
D33*
%TO.C,R25*%
X119000000Y-78600000D03*
X119000000Y-79620000D03*
%TD*%
D26*
%TO.C,C1*%
X112550000Y-74010000D03*
X112550000Y-73050000D03*
%TD*%
D31*
%TO.C,R39*%
X94990000Y-61880000D03*
X96010000Y-61880000D03*
%TD*%
D45*
%TO.C,C27*%
X78225000Y-73850000D03*
X79775000Y-73850000D03*
%TD*%
D46*
%TO.C,U1*%
X70106300Y-86349900D03*
X70106300Y-86749950D03*
X70106300Y-87150000D03*
X70106300Y-87550050D03*
X70106300Y-87950100D03*
X71193700Y-87950100D03*
X71193700Y-87550050D03*
X71193700Y-87150000D03*
X71193700Y-86749950D03*
X71193700Y-86349900D03*
%TD*%
D47*
%TO.C,U9*%
X96787500Y-73350000D03*
X96787500Y-72400000D03*
X96787500Y-71450000D03*
X94512500Y-71450000D03*
X94512500Y-72400000D03*
X94512500Y-73350000D03*
%TD*%
D48*
%TO.C,C20*%
X92775000Y-73550000D03*
X91225000Y-73550000D03*
%TD*%
D37*
%TO.C,MH1*%
X105000000Y-95000000D03*
%TD*%
D35*
%TO.C,R68*%
X67300000Y-53500000D03*
X67300000Y-52480000D03*
%TD*%
%TO.C,R30*%
X76700000Y-72260000D03*
X76700000Y-71240000D03*
%TD*%
D31*
%TO.C,R58*%
X69540000Y-58600000D03*
X70560000Y-58600000D03*
%TD*%
D33*
%TO.C,R69*%
X73700000Y-56650000D03*
X73700000Y-57670000D03*
%TD*%
D34*
%TO.C,FID3*%
X63000000Y-97000000D03*
%TD*%
D27*
%TO.C,R36*%
X77560000Y-75650000D03*
X76540000Y-75650000D03*
%TD*%
D21*
%TO.C,C3*%
X79700000Y-92770000D03*
X79700000Y-93730000D03*
%TD*%
D49*
%TO.C,U19*%
X67062500Y-80750000D03*
X67062500Y-81700000D03*
X67062500Y-82650000D03*
X69337500Y-82650000D03*
X69337500Y-81700000D03*
X69337500Y-80750000D03*
%TD*%
D33*
%TO.C,R33*%
X76700000Y-73140000D03*
X76700000Y-74160000D03*
%TD*%
D50*
%TO.C,D1*%
X64650000Y-82900000D03*
X63250000Y-82900000D03*
%TD*%
D21*
%TO.C,C22*%
X92700000Y-67350000D03*
X92700000Y-68310000D03*
%TD*%
D48*
%TO.C,C29*%
X76725000Y-69850000D03*
X75175000Y-69850000D03*
%TD*%
D21*
%TO.C,C43*%
X89637500Y-61620000D03*
X89637500Y-62580000D03*
%TD*%
D51*
%TO.C,U8*%
X118950000Y-68112500D03*
X119450000Y-68112500D03*
X119950000Y-68112500D03*
X120450000Y-68112500D03*
D52*
X121162500Y-67400000D03*
X121162500Y-66900000D03*
X121162500Y-66400000D03*
X121162500Y-65900000D03*
D51*
X120450000Y-65187500D03*
X119950000Y-65187500D03*
X119450000Y-65187500D03*
X118950000Y-65187500D03*
D52*
X118237500Y-65900000D03*
X118237500Y-66400000D03*
X118237500Y-66900000D03*
X118237500Y-67400000D03*
D53*
X119700000Y-66650000D03*
%TD*%
D26*
%TO.C,C42*%
X89637500Y-65280000D03*
X89637500Y-64320000D03*
%TD*%
D25*
%TO.C,C37*%
X75085000Y-61450000D03*
X74125000Y-61450000D03*
%TD*%
D54*
%TO.C,SW3*%
X94075000Y-99075000D03*
X89925000Y-99075000D03*
X94075000Y-96925000D03*
X89925000Y-96925000D03*
%TD*%
D27*
%TO.C,R60*%
X72885000Y-61100000D03*
X71865000Y-61100000D03*
%TD*%
D54*
%TO.C,SW4*%
X68925000Y-50925000D03*
X73075000Y-50925000D03*
X68925000Y-53075000D03*
X73075000Y-53075000D03*
%TD*%
D25*
%TO.C,C47*%
X75085000Y-63350000D03*
X74125000Y-63350000D03*
%TD*%
D35*
%TO.C,R86*%
X81425000Y-71050000D03*
X81425000Y-70030000D03*
%TD*%
D26*
%TO.C,C36*%
X79125000Y-56300000D03*
X79125000Y-55340000D03*
%TD*%
D27*
%TO.C,R71*%
X96710000Y-91100000D03*
X95690000Y-91100000D03*
%TD*%
D32*
%TO.C,D16*%
X70962500Y-84350000D03*
X72537500Y-84350000D03*
%TD*%
D31*
%TO.C,R3*%
X81990000Y-91500000D03*
X83010000Y-91500000D03*
%TD*%
D21*
%TO.C,C15*%
X121750000Y-78630000D03*
X121750000Y-79590000D03*
%TD*%
D55*
%TO.C,SW6*%
X85100000Y-52985000D03*
X85100000Y-51715000D03*
X78950000Y-51715000D03*
X78950000Y-52985000D03*
%TD*%
D48*
%TO.C,C19*%
X92775000Y-72050000D03*
X91225000Y-72050000D03*
%TD*%
D33*
%TO.C,R13*%
X78700000Y-92740000D03*
X78700000Y-93760000D03*
%TD*%
D56*
%TO.C,C51*%
X64400000Y-68000000D03*
X62500000Y-68000000D03*
%TD*%
D33*
%TO.C,R16*%
X110450000Y-83590000D03*
X110450000Y-84610000D03*
%TD*%
D45*
%TO.C,C30*%
X84275000Y-68150000D03*
X85825000Y-68150000D03*
%TD*%
D31*
%TO.C,R74*%
X74480000Y-84600000D03*
X75500000Y-84600000D03*
%TD*%
D50*
%TO.C,D11*%
X63900000Y-66150000D03*
X62500000Y-66150000D03*
%TD*%
D35*
%TO.C,R41*%
X95550000Y-65410000D03*
X95550000Y-64390000D03*
%TD*%
D26*
%TO.C,C45*%
X78125000Y-56300000D03*
X78125000Y-55340000D03*
%TD*%
D27*
%TO.C,R42*%
X99560000Y-85900000D03*
X98540000Y-85900000D03*
%TD*%
D31*
%TO.C,R12*%
X76690000Y-95200000D03*
X77710000Y-95200000D03*
%TD*%
D22*
%TO.C,D7*%
X82150000Y-99050000D03*
X82150000Y-97475000D03*
%TD*%
D27*
%TO.C,R32*%
X99410000Y-74850000D03*
X98390000Y-74850000D03*
%TD*%
D31*
%TO.C,R4*%
X83890000Y-91500000D03*
X84910000Y-91500000D03*
%TD*%
%TO.C,R83*%
X92590000Y-89000000D03*
X93610000Y-89000000D03*
%TD*%
%TO.C,R57*%
X69540000Y-62850000D03*
X70560000Y-62850000D03*
%TD*%
D21*
%TO.C,C41*%
X82800000Y-67350000D03*
X82800000Y-68310000D03*
%TD*%
D26*
%TO.C,C38*%
X83500000Y-56300000D03*
X83500000Y-55340000D03*
%TD*%
D57*
%TO.C,U18*%
X92550000Y-92350000D03*
X92550000Y-92750000D03*
D58*
X92600000Y-93300000D03*
X93000000Y-93300000D03*
X93400000Y-93300000D03*
X93800000Y-93300000D03*
D57*
X93850000Y-92750000D03*
X93850000Y-92350000D03*
D58*
X93800000Y-91800000D03*
X93400000Y-91800000D03*
X93000000Y-91800000D03*
X92600000Y-91800000D03*
%TD*%
D59*
%TO.C,J4*%
X130000000Y-60900000D03*
D60*
X130000000Y-89100000D03*
D61*
X132200000Y-86600000D03*
X127800000Y-86600000D03*
X132200000Y-85800000D03*
X127800000Y-85800000D03*
X132200000Y-85000000D03*
X127800000Y-85000000D03*
X132200000Y-84200000D03*
X127800000Y-84200000D03*
X132200000Y-83400000D03*
X127800000Y-83400000D03*
X132200000Y-82600000D03*
X127800000Y-82600000D03*
X132200000Y-81800000D03*
X127800000Y-81800000D03*
X132200000Y-81000000D03*
X127800000Y-81000000D03*
X132200000Y-80200000D03*
X127800000Y-80200000D03*
X132200000Y-79400000D03*
X127800000Y-79400000D03*
X132200000Y-78600000D03*
X127800000Y-78600000D03*
X132200000Y-77800000D03*
X127800000Y-77800000D03*
X132200000Y-77000000D03*
X127800000Y-77000000D03*
X132200000Y-76200000D03*
X127800000Y-76200000D03*
X132200000Y-75400000D03*
X127800000Y-75400000D03*
X132200000Y-74600000D03*
X127800000Y-74600000D03*
X132200000Y-73800000D03*
X127800000Y-73800000D03*
X132200000Y-73000000D03*
X127800000Y-73000000D03*
X132200000Y-72200000D03*
X127800000Y-72200000D03*
X132200000Y-71400000D03*
X127800000Y-71400000D03*
X132200000Y-70600000D03*
X127800000Y-70600000D03*
X132200000Y-69800000D03*
X127800000Y-69800000D03*
X132200000Y-69000000D03*
X127800000Y-69000000D03*
X132200000Y-68200000D03*
X127800000Y-68200000D03*
X132200000Y-67400000D03*
X127800000Y-67400000D03*
X132200000Y-66600000D03*
X127800000Y-66600000D03*
X132200000Y-65800000D03*
X127800000Y-65800000D03*
X132200000Y-65000000D03*
X127800000Y-65000000D03*
X132200000Y-64200000D03*
X127800000Y-64200000D03*
X132200000Y-63400000D03*
X127800000Y-63400000D03*
%TD*%
D32*
%TO.C,D5*%
X73750000Y-75170000D03*
X75325000Y-75170000D03*
%TD*%
D31*
%TO.C,R70*%
X68290000Y-84000000D03*
X69310000Y-84000000D03*
%TD*%
D29*
%TO.C,C49*%
X92620000Y-90000000D03*
X93580000Y-90000000D03*
%TD*%
D28*
%TO.C,U15*%
X70525000Y-60750000D03*
X70525000Y-60250000D03*
X70525000Y-59750000D03*
X69150000Y-59750000D03*
X69150000Y-60250000D03*
X69150000Y-60750000D03*
%TD*%
D62*
%TO.C,J3*%
X115550000Y-55275000D03*
X114550000Y-55275000D03*
X113550000Y-55275000D03*
D63*
X116850000Y-51400000D03*
X112250000Y-51400000D03*
%TD*%
D31*
%TO.C,R10*%
X76690000Y-94200000D03*
X77710000Y-94200000D03*
%TD*%
D25*
%TO.C,C56*%
X77570000Y-87410000D03*
X76610000Y-87410000D03*
%TD*%
D56*
%TO.C,C50*%
X64650000Y-81100000D03*
X62750000Y-81100000D03*
%TD*%
D31*
%TO.C,R1*%
X66640000Y-97550000D03*
X67660000Y-97550000D03*
%TD*%
D54*
%TO.C,SW1*%
X97075000Y-53075000D03*
X92925000Y-53075000D03*
X97075000Y-50925000D03*
X92925000Y-50925000D03*
%TD*%
D64*
%TO.C,D2*%
X71771151Y-97699999D03*
X71771151Y-96400001D03*
X69528849Y-97050000D03*
%TD*%
D65*
%TO.C,U12*%
X78250000Y-72137500D03*
X79200000Y-72137500D03*
X80150000Y-72137500D03*
X80150000Y-69862500D03*
X78250000Y-69862500D03*
%TD*%
D27*
%TO.C,R47*%
X115260000Y-94300000D03*
X114240000Y-94300000D03*
%TD*%
D31*
%TO.C,R11*%
X74830000Y-95200000D03*
X75850000Y-95200000D03*
%TD*%
D25*
%TO.C,C33*%
X75085000Y-62400000D03*
X74125000Y-62400000D03*
%TD*%
D27*
%TO.C,R38*%
X96010000Y-62850000D03*
X94990000Y-62850000D03*
%TD*%
D33*
%TO.C,R51*%
X118900000Y-95140000D03*
X118900000Y-96160000D03*
%TD*%
D66*
%TO.C,C25*%
X98800000Y-65020000D03*
X98800000Y-60080000D03*
%TD*%
D33*
%TO.C,R26*%
X121100000Y-62690000D03*
X121100000Y-63710000D03*
%TD*%
D29*
%TO.C,C6*%
X76830000Y-91050000D03*
X77790000Y-91050000D03*
%TD*%
D33*
%TO.C,R15*%
X110450000Y-81690000D03*
X110450000Y-82710000D03*
%TD*%
D22*
%TO.C,D8*%
X83750000Y-99050000D03*
X83750000Y-97475000D03*
%TD*%
D33*
%TO.C,R87*%
X87500000Y-68180000D03*
X87500000Y-69200000D03*
%TD*%
D67*
%TO.C,Q1*%
X82850000Y-78387500D03*
X84750000Y-78387500D03*
X83800000Y-76512500D03*
%TD*%
D31*
%TO.C,R89*%
X98390000Y-77000000D03*
X99410000Y-77000000D03*
%TD*%
D68*
%TO.C,J6*%
X63680000Y-75000000D03*
D69*
X68000000Y-75000000D03*
D70*
X71000000Y-75000000D03*
%TD*%
D25*
%TO.C,C48*%
X76080000Y-58625000D03*
X75120000Y-58625000D03*
%TD*%
D33*
%TO.C,R53*%
X72410000Y-62860000D03*
X72410000Y-63880000D03*
%TD*%
D21*
%TO.C,C39*%
X79200000Y-67370000D03*
X79200000Y-68330000D03*
%TD*%
D33*
%TO.C,R63*%
X113550000Y-57200000D03*
X113550000Y-58220000D03*
%TD*%
D31*
%TO.C,R2*%
X66640000Y-96500000D03*
X67660000Y-96500000D03*
%TD*%
D21*
%TO.C,C21*%
X97250000Y-69132500D03*
X97250000Y-70092500D03*
%TD*%
D71*
%TO.C,U7*%
X122437500Y-75980000D03*
X122437500Y-75480000D03*
X122437500Y-74980000D03*
X122437500Y-74480000D03*
X122437500Y-73980000D03*
X122437500Y-73480000D03*
X122437500Y-72980000D03*
X122437500Y-72480000D03*
D72*
X121750000Y-71792500D03*
X121250000Y-71792500D03*
X120750000Y-71792500D03*
X120250000Y-71792500D03*
X119750000Y-71792500D03*
X119250000Y-71792500D03*
X118750000Y-71792500D03*
X118250000Y-71792500D03*
D71*
X117562500Y-72480000D03*
X117562500Y-72980000D03*
X117562500Y-73480000D03*
X117562500Y-73980000D03*
X117562500Y-74480000D03*
X117562500Y-74980000D03*
X117562500Y-75480000D03*
X117562500Y-75980000D03*
D72*
X118250000Y-76667500D03*
X118750000Y-76667500D03*
X119250000Y-76667500D03*
X119750000Y-76667500D03*
X120250000Y-76667500D03*
X120750000Y-76667500D03*
X121250000Y-76667500D03*
X121750000Y-76667500D03*
D73*
X120000000Y-74230000D03*
D74*
X119000000Y-73230000D03*
%TD*%
D29*
%TO.C,C8*%
X81970000Y-90500000D03*
X82930000Y-90500000D03*
%TD*%
D27*
%TO.C,R17*%
X115410000Y-81950000D03*
X114390000Y-81950000D03*
%TD*%
D22*
%TO.C,D9*%
X85350000Y-99050000D03*
X85350000Y-97475000D03*
%TD*%
D27*
%TO.C,R76*%
X96700000Y-94100000D03*
X95680000Y-94100000D03*
%TD*%
D29*
%TO.C,C4*%
X76050000Y-89350000D03*
X77010000Y-89350000D03*
%TD*%
D27*
%TO.C,R23*%
X124910000Y-70500000D03*
X123890000Y-70500000D03*
%TD*%
D31*
%TO.C,R29*%
X122690000Y-65050000D03*
X123710000Y-65050000D03*
%TD*%
D75*
%TO.C,U20*%
X66402300Y-66999811D03*
X66402300Y-67499937D03*
X66402300Y-68000063D03*
X66402300Y-68500189D03*
X67997700Y-68500189D03*
X67997700Y-68000063D03*
X67997700Y-67499937D03*
X67997700Y-66999811D03*
%TD*%
D25*
%TO.C,C12*%
X112480000Y-80200000D03*
X111520000Y-80200000D03*
%TD*%
D33*
%TO.C,R82*%
X71000000Y-69830000D03*
X71000000Y-70850000D03*
%TD*%
%TO.C,R79*%
X90500000Y-93300000D03*
X90500000Y-94320000D03*
%TD*%
D25*
%TO.C,C2*%
X79580000Y-95200000D03*
X78620000Y-95200000D03*
%TD*%
D29*
%TO.C,C5*%
X76050000Y-88400000D03*
X77010000Y-88400000D03*
%TD*%
D31*
%TO.C,R5*%
X81280000Y-86450000D03*
X82300000Y-86450000D03*
%TD*%
D33*
%TO.C,R65*%
X88050000Y-57850000D03*
X88050000Y-58870000D03*
%TD*%
D76*
%TO.C,R37*%
X98800000Y-69562500D03*
X98800000Y-67737500D03*
%TD*%
D65*
%TO.C,U13*%
X84287500Y-72137500D03*
X85237500Y-72137500D03*
X86187500Y-72137500D03*
X86187500Y-69862500D03*
X84287500Y-69862500D03*
%TD*%
D54*
%TO.C,SW2*%
X79175000Y-99075000D03*
X75025000Y-99075000D03*
X79175000Y-96925000D03*
X75025000Y-96925000D03*
%TD*%
D77*
%TO.C,Y1*%
X92100000Y-60750000D03*
X92100000Y-64450000D03*
%TD*%
D31*
%TO.C,R22*%
X114390000Y-75930000D03*
X115410000Y-75930000D03*
%TD*%
D33*
%TO.C,R81*%
X90500000Y-90940000D03*
X90500000Y-91960000D03*
%TD*%
D35*
%TO.C,R31*%
X92700000Y-70310000D03*
X92700000Y-69290000D03*
%TD*%
D31*
%TO.C,R59*%
X75140000Y-55550000D03*
X76160000Y-55550000D03*
%TD*%
D65*
%TO.C,U11*%
X94000000Y-69637500D03*
X94950000Y-69637500D03*
X95900000Y-69637500D03*
X95900000Y-67362500D03*
X94000000Y-67362500D03*
%TD*%
D33*
%TO.C,R62*%
X115540000Y-57200000D03*
X115540000Y-58220000D03*
%TD*%
D48*
%TO.C,C31*%
X91475000Y-67350000D03*
X89925000Y-67350000D03*
%TD*%
D78*
%TO.C,U6*%
X111722600Y-81449999D03*
D79*
X111722600Y-81950000D03*
X111722600Y-82450000D03*
D78*
X111722600Y-82950001D03*
D80*
X112450000Y-83152444D03*
D78*
X113177400Y-82950001D03*
D79*
X113177400Y-82450000D03*
X113177400Y-81950000D03*
D78*
X113177400Y-81449999D03*
D80*
X112450000Y-81247556D03*
%TD*%
D31*
%TO.C,R67*%
X75090000Y-56700000D03*
X76110000Y-56700000D03*
%TD*%
D26*
%TO.C,C14*%
X116150000Y-66280000D03*
X116150000Y-65320000D03*
%TD*%
D31*
%TO.C,R54*%
X69540000Y-61900000D03*
X70560000Y-61900000D03*
%TD*%
D46*
%TO.C,U2*%
X70106300Y-92049900D03*
X70106300Y-92449950D03*
X70106300Y-92850000D03*
X70106300Y-93250050D03*
X70106300Y-93650100D03*
X71193700Y-93650100D03*
X71193700Y-93250050D03*
X71193700Y-92850000D03*
X71193700Y-92449950D03*
X71193700Y-92049900D03*
%TD*%
D31*
%TO.C,R9*%
X74830000Y-94200000D03*
X75850000Y-94200000D03*
%TD*%
D32*
%TO.C,D3*%
X73750000Y-72100000D03*
X75325000Y-72100000D03*
%TD*%
D29*
%TO.C,C10*%
X82420000Y-87970000D03*
X83380000Y-87970000D03*
%TD*%
D35*
%TO.C,R45*%
X118900000Y-98060000D03*
X118900000Y-97040000D03*
%TD*%
D33*
%TO.C,R88*%
X87500000Y-70100000D03*
X87500000Y-71120000D03*
%TD*%
D31*
%TO.C,R75*%
X74480000Y-82600000D03*
X75500000Y-82600000D03*
%TD*%
D33*
%TO.C,R18*%
X120100000Y-62690000D03*
X120100000Y-63710000D03*
%TD*%
D31*
%TO.C,R7*%
X81280000Y-85450000D03*
X82300000Y-85450000D03*
%TD*%
D29*
%TO.C,C35*%
X73370000Y-67600000D03*
X74330000Y-67600000D03*
%TD*%
D45*
%TO.C,C28*%
X84300000Y-73825000D03*
X85850000Y-73825000D03*
%TD*%
D32*
%TO.C,D6*%
X73750000Y-76700000D03*
X75325000Y-76700000D03*
%TD*%
D27*
%TO.C,R48*%
X115260000Y-95300000D03*
X114240000Y-95300000D03*
%TD*%
D81*
%TO.C,U10*%
X81212500Y-76312500D03*
X80262500Y-76312500D03*
X79312500Y-76312500D03*
X79312500Y-78587500D03*
X81212500Y-78587500D03*
%TD*%
D65*
%TO.C,U4*%
X81100000Y-95187500D03*
X82050000Y-95187500D03*
X83000000Y-95187500D03*
X83000000Y-92912500D03*
X81100000Y-92912500D03*
%TD*%
D25*
%TO.C,C44*%
X76080000Y-59575000D03*
X75120000Y-59575000D03*
%TD*%
D29*
%TO.C,C7*%
X76830000Y-92000000D03*
X77790000Y-92000000D03*
%TD*%
D35*
%TO.C,R44*%
X119900000Y-98060000D03*
X119900000Y-97040000D03*
%TD*%
D82*
%TO.C,Q3*%
X94700000Y-75150000D03*
X94700000Y-77050000D03*
X96575000Y-76100000D03*
%TD*%
D59*
%TO.C,J5*%
X105000000Y-60900000D03*
D60*
X105000000Y-89100000D03*
D61*
X107200000Y-86600000D03*
X102800000Y-86600000D03*
X107200000Y-85800000D03*
X102800000Y-85800000D03*
X107200000Y-85000000D03*
X102800000Y-85000000D03*
X107200000Y-84200000D03*
X102800000Y-84200000D03*
X107200000Y-83400000D03*
X102800000Y-83400000D03*
X107200000Y-82600000D03*
X102800000Y-82600000D03*
X107200000Y-81800000D03*
X102800000Y-81800000D03*
X107200000Y-81000000D03*
X102800000Y-81000000D03*
X107200000Y-80200000D03*
X102800000Y-80200000D03*
X107200000Y-79400000D03*
X102800000Y-79400000D03*
X107200000Y-78600000D03*
X102800000Y-78600000D03*
X107200000Y-77800000D03*
X102800000Y-77800000D03*
X107200000Y-77000000D03*
X102800000Y-77000000D03*
X107200000Y-76200000D03*
X102800000Y-76200000D03*
X107200000Y-75400000D03*
X102800000Y-75400000D03*
X107200000Y-74600000D03*
X102800000Y-74600000D03*
X107200000Y-73800000D03*
X102800000Y-73800000D03*
X107200000Y-73000000D03*
X102800000Y-73000000D03*
X107200000Y-72200000D03*
X102800000Y-72200000D03*
X107200000Y-71400000D03*
X102800000Y-71400000D03*
X107200000Y-70600000D03*
X102800000Y-70600000D03*
X107200000Y-69800000D03*
X102800000Y-69800000D03*
X107200000Y-69000000D03*
X102800000Y-69000000D03*
X107200000Y-68200000D03*
X102800000Y-68200000D03*
X107200000Y-67400000D03*
X102800000Y-67400000D03*
X107200000Y-66600000D03*
X102800000Y-66600000D03*
X107200000Y-65800000D03*
X102800000Y-65800000D03*
X107200000Y-65000000D03*
X102800000Y-65000000D03*
X107200000Y-64200000D03*
X102800000Y-64200000D03*
X107200000Y-63400000D03*
X102800000Y-63400000D03*
%TD*%
D81*
%TO.C,U21*%
X88262500Y-91512500D03*
X87312500Y-91512500D03*
X86362500Y-91512500D03*
X86362500Y-93787500D03*
X88262500Y-93787500D03*
%TD*%
D21*
%TO.C,C16*%
X116150000Y-67220000D03*
X116150000Y-68180000D03*
%TD*%
D83*
%TO.C,Q2*%
X112887500Y-69150000D03*
X112887500Y-67250000D03*
X111012500Y-68200000D03*
%TD*%
D29*
%TO.C,C32*%
X87697500Y-61600000D03*
X88657500Y-61600000D03*
%TD*%
D21*
%TO.C,C13*%
X118150000Y-62720000D03*
X118150000Y-63680000D03*
%TD*%
D31*
%TO.C,R73*%
X74480000Y-83600000D03*
X75500000Y-83600000D03*
%TD*%
D25*
%TO.C,C40*%
X74280000Y-55550000D03*
X73320000Y-55550000D03*
%TD*%
D27*
%TO.C,R46*%
X115260000Y-93300000D03*
X114240000Y-93300000D03*
%TD*%
D33*
%TO.C,R19*%
X119150000Y-62690000D03*
X119150000Y-63710000D03*
%TD*%
D26*
%TO.C,C23*%
X80325000Y-56300000D03*
X80325000Y-55340000D03*
%TD*%
%TO.C,C26*%
X97250000Y-67942500D03*
X97250000Y-66982500D03*
%TD*%
D54*
%TO.C,SW5*%
X86925000Y-50925000D03*
X91075000Y-50925000D03*
X86925000Y-53075000D03*
X91075000Y-53075000D03*
%TD*%
D27*
%TO.C,R24*%
X115410000Y-76880000D03*
X114390000Y-76880000D03*
%TD*%
D84*
%TO.C,D15*%
X96387500Y-89000000D03*
X94812500Y-89000000D03*
%TD*%
D27*
%TO.C,R61*%
X72885000Y-60150000D03*
X71865000Y-60150000D03*
%TD*%
D33*
%TO.C,R50*%
X119900000Y-95140000D03*
X119900000Y-96160000D03*
%TD*%
D35*
%TO.C,R56*%
X78050000Y-67570000D03*
X78050000Y-66550000D03*
%TD*%
D21*
%TO.C,C17*%
X120000000Y-78630000D03*
X120000000Y-79590000D03*
%TD*%
D27*
%TO.C,R21*%
X115410000Y-74980000D03*
X114390000Y-74980000D03*
%TD*%
D31*
%TO.C,R8*%
X83180000Y-85450000D03*
X84200000Y-85450000D03*
%TD*%
%TO.C,R6*%
X83180000Y-86450000D03*
X84200000Y-86450000D03*
%TD*%
D27*
%TO.C,R40*%
X77560000Y-76700000D03*
X76540000Y-76700000D03*
%TD*%
%TO.C,R77*%
X96700000Y-93100000D03*
X95680000Y-93100000D03*
%TD*%
D84*
%TO.C,D13*%
X73747500Y-69830000D03*
X72172500Y-69830000D03*
%TD*%
D83*
%TO.C,U16*%
X76937500Y-53850000D03*
X76937500Y-51950000D03*
X75062500Y-52900000D03*
%TD*%
D29*
%TO.C,C46*%
X87697500Y-60650000D03*
X88657500Y-60650000D03*
%TD*%
D85*
%TO.C,U5*%
X80300000Y-88200000D03*
X79900000Y-88200000D03*
X79500000Y-88200000D03*
X79100000Y-88200000D03*
D86*
X78650000Y-88250000D03*
X78650000Y-88650000D03*
X78650000Y-89050000D03*
X78650000Y-89450000D03*
X78650000Y-89850000D03*
D85*
X79100000Y-89900000D03*
X79500000Y-89900000D03*
X79900000Y-89900000D03*
X80300000Y-89900000D03*
D86*
X80750000Y-89850000D03*
X80750000Y-89450000D03*
X80750000Y-89050000D03*
X80750000Y-88650000D03*
X80750000Y-88250000D03*
D87*
X80150000Y-89050000D03*
D88*
X79700000Y-89050000D03*
D87*
X79250000Y-89050000D03*
%TD*%
D89*
X63000000Y-100000000D02*
G75*
G02*
X60000000Y-97000000I0J3000000D01*
G01*
X60000000Y-53000000D02*
G75*
G02*
X63000000Y-50000000I3000000J0D01*
G01*
X63000000Y-50000000D02*
X125000000Y-50000000D01*
X125000000Y-100000000D02*
X135000000Y-90000000D01*
X60000000Y-53000000D02*
X60000000Y-97000000D01*
X135000000Y-60000000D02*
X135000000Y-90000000D01*
X125000000Y-50000000D02*
X135000000Y-60000000D01*
X63000000Y-100000000D02*
X125000000Y-100000000D01*
M02*
