M48
; DRILL file {KiCad 9.0.3} date 2025-10-16T10:38:22+0200
; FORMAT={-:-/ absolute / metric / decimal}
; #@! TF.CreationDate,2025-10-16T10:38:22+02:00
; #@! TF.GenerationSoftware,Kicad,Pcbnew,9.0.3
; #@! TF.FileFunction,Plated,1,4,PTH
FMAT,2
METRIC
; #@! TA.AperFunction,Plated,PTH,ViaDrill
T1C0.200
; #@! TA.AperFunction,Plated,PTH,ComponentDrill
T2C0.200
; #@! TA.AperFunction,Plated,PTH,ViaDrill
T3C0.300
; #@! TA.AperFunction,Plated,PTH,ComponentDrill
T4C0.600
; #@! TA.AperFunction,Plated,PTH,ComponentDrill
T5C1.020
%
G90
G05
T1
X64.45Y-51.35
X65.9Y-96.5
X65.9Y-97.55
X66.83Y-92.27
X66.84Y-91.75
X66.846Y-90.201
X66.85Y-86.9
X66.85Y-89.25
X66.85Y-93.1
X66.86Y-87.75
X66.86Y-88.27
X66.879Y-90.75
X67.55Y-50.9
X68.23Y-88.5
X68.26Y-91.5
X68.5Y-89.0
X68.5Y-89.8
X68.55Y-91.0
X68.675Y-54.2
X68.829Y-88.34
X68.85Y-91.5
X69.0Y-66.25
X69.03Y-85.68
X69.05Y-86.29
X69.05Y-86.81
X69.06Y-94.35
X69.077Y-93.19
X69.077Y-93.71
X69.25Y-89.3
X69.3Y-84.75
X69.8Y-59.75
X70.1Y-84.3
X70.9Y-53.075
X71.2Y-62.85
X71.3Y-57.65
X71.3Y-58.6
X72.1Y-89.3
X72.1Y-90.85
X72.2Y-87.15
X72.2Y-92.85
X72.4Y-66.3
X72.407Y-65.543
X72.41Y-64.58
X72.43Y-62.17
X72.55Y-89.79
X72.55Y-90.31
X72.7Y-96.4
X72.7Y-97.7
X72.725Y-73.65
X72.725Y-76.7
X72.95Y-89.3
X72.95Y-90.85
X73.325Y-54.825
X73.35Y-61.8
X73.35Y-62.4
X73.35Y-63.35
X73.65Y-82.6
X73.65Y-83.6
X73.65Y-84.6
X74.275Y-54.825
X74.4Y-59.6
X74.425Y-57.67
X74.425Y-58.625
X74.45Y-56.7
X74.8Y-64.45
X75.05Y-67.6
X75.825Y-61.45
X76.013Y-62.887
X76.207Y-64.457
X76.438Y-61.7
X76.69Y-93.57
X76.73Y-63.06
X76.82Y-93.01
X76.888Y-59.787
X77.06Y-62.51
X77.21Y-77.79
X77.35Y-66.543
X77.8Y-93.3
X78.125Y-54.6
X78.3Y-76.7
X78.9Y-90.75
X79.0Y-87.55
X79.125Y-54.6
X79.2Y-57.075
X79.3Y-79.95
X79.75Y-66.45
X80.199Y-66.767
X80.3Y-51.725
X80.3Y-91.55
X80.325Y-54.6
X80.325Y-57.15
X80.55Y-85.45
X80.55Y-97.95
X80.725Y-68.55
X80.775Y-72.138
X80.8Y-60.8
X80.8Y-62.85
X80.9Y-74.725
X80.925Y-57.0
X80.925Y-73.65
X81.05Y-98.4
X81.225Y-79.95
X81.275Y-54.6
X81.325Y-68.6
X81.435Y-66.625
X81.55Y-89.05
X81.787Y-61.8
X81.9Y-66.175
X82.275Y-66.625
X82.425Y-76.3
X82.46Y-72.94
X82.75Y-85.45
X82.85Y-60.8
X82.85Y-62.85
X83.45Y-66.525
X83.475Y-56.975
X83.85Y-52.975
X84.115Y-55.34
X84.15Y-93.8
X84.2Y-84.7
X84.53Y-92.37
X84.6Y-56.65
X84.75Y-79.925
X85.87Y-92.52
X86.05Y-62.8
X86.05Y-63.635
X86.175Y-71.075
X86.438Y-56.237
X86.6Y-51.975
X86.862Y-60.787
X86.875Y-61.6
X86.95Y-63.925
X87.2Y-58.875
X87.223Y-56.023
X87.275Y-57.85
X87.375Y-93.775
X87.5Y-67.35
X87.5Y-71.775
X87.55Y-84.225
X87.725Y-64.625
X87.9Y-50.95
X88.05Y-83.675
X88.1Y-56.075
X88.45Y-96.5
X88.45Y-97.25
X88.45Y-97.9
X88.65Y-83.025
X88.98Y-65.28
X89.1Y-81.25
X89.1Y-82.0
X89.375Y-56.6
X89.475Y-75.5
X90.3Y-61.65
X90.525Y-76.15
X91.225Y-75.4
X91.275Y-78.25
X91.35Y-74.7
X91.395Y-94.32
X91.43Y-90.94
X91.55Y-92.15
X91.55Y-93.0
X91.865Y-70.31
X92.0Y-50.925
X92.575Y-94.325
X93.01Y-91.1
X93.58Y-90.66
X93.665Y-77.06
X94.1Y-79.05
X94.1Y-80.55
X94.15Y-59.275
X94.5Y-79.54
X94.5Y-80.06
X94.775Y-70.725
X94.85Y-91.1
X94.85Y-92.1
X94.9Y-93.1
X94.95Y-79.05
X94.95Y-80.55
X94.99Y-58.65
X95.225Y-82.875
X95.95Y-82.875
X96.15Y-50.9
X96.425Y-84.275
X96.65Y-61.85
X96.667Y-66.983
X97.1Y-83.075
X97.25Y-70.65
X97.425Y-91.1
X97.425Y-92.1
X97.425Y-93.1
X97.575Y-74.85
X97.825Y-85.4
X97.85Y-71.45
X98.575Y-53.075
X99.35Y-98.85
X100.15Y-75.425
X100.275Y-77.0
X101.0Y-69.0
X101.025Y-77.8
X101.2Y-74.59
X101.825Y-90.975
X102.525Y-91.5
X104.362Y-69.562
X104.475Y-74.6
X104.827Y-70.798
X105.15Y-79.54
X105.15Y-80.06
X105.3Y-70.175
X105.45Y-67.4
X105.575Y-72.95
X105.575Y-73.8
X105.575Y-74.6
X105.575Y-75.4
X105.575Y-76.2
X105.65Y-71.4
X108.475Y-57.09
X111.045Y-57.625
X111.06Y-58.62
X111.425Y-70.5
X112.32Y-58.05
X112.85Y-66.45
X113.15Y-93.3
X113.15Y-94.3
X113.15Y-95.3
X113.15Y-96.3
X114.35Y-89.95
X115.38Y-66.28
X116.5Y-72.4
X116.5Y-72.97
X116.5Y-73.49
X117.1Y-67.8
X117.8Y-70.1
X118.15Y-62.05
X118.24Y-70.65
X118.75Y-61.6
X118.76Y-70.65
X118.9Y-94.4
X119.1Y-70.1
X119.365Y-61.606
X119.45Y-69.35
X119.885Y-61.606
X120.185Y-69.885
X120.5Y-61.6
X120.765Y-70.465
X121.84Y-62.69
X122.1Y-65.9
X122.1Y-66.9
X123.05Y-70.5
X123.3Y-75.5
X123.65Y-74.0
X123.68Y-74.98
X123.8Y-66.6
X123.9Y-72.45
X124.05Y-74.45
X124.07Y-73.48
X124.425Y-81.0
X124.425Y-83.25
X129.525Y-80.2
X129.6Y-65.0
X129.975Y-76.2
X130.5Y-66.6
X130.5Y-67.4
X130.5Y-69.0
X130.5Y-69.8
X130.5Y-71.4
X130.5Y-72.2
X130.5Y-75.4
X130.5Y-77.8
X130.5Y-78.6
X130.5Y-81.0
X130.5Y-82.6
X130.5Y-83.4
X130.5Y-85.0
X133.725Y-80.2
T2
X79.25Y-89.05
X80.15Y-89.05
X119.0Y-73.23
X119.0Y-74.23
X119.0Y-75.23
X120.0Y-73.23
X120.0Y-74.23
X120.0Y-75.23
X121.0Y-73.23
X121.0Y-74.23
X121.0Y-75.23
T3
X61.35Y-68.0
X61.5Y-81.1
X61.75Y-66.15
X62.45Y-82.9
X62.5Y-66.9
X62.5Y-69.2
X62.75Y-79.7
X64.0Y-69.2
X64.22Y-94.34
X64.85Y-84.75
X64.85Y-85.5
X64.9Y-66.15
X65.32Y-94.34
X65.45Y-68.0
X65.55Y-58.1
X65.55Y-61.95
X65.65Y-82.9
X65.8Y-80.75
X65.8Y-81.7
X67.0Y-66.05
X67.2Y-67.5
X68.2Y-69.75
X68.4Y-63.2
X68.4Y-64.05
X68.45Y-56.1
X68.45Y-56.8
X68.45Y-97.05
X69.15Y-68.3
X69.15Y-68.975
X69.65Y-67.5
X69.8Y-65.6
X69.8Y-78.8
X70.15Y-77.4
X70.45Y-97.05
X70.8Y-80.75
X71.0Y-64.5
X71.0Y-68.5
X71.65Y-80.75
X71.65Y-81.65
X71.65Y-82.65
X73.75Y-71.1
X74.1Y-80.45
X74.85Y-68.85
X75.96Y-87.41
X76.15Y-99.05
X76.725Y-67.775
X78.05Y-68.3
X78.2Y-74.8
X78.3Y-87.4
X78.62Y-94.55
X79.58Y-94.46
X79.75Y-74.8
X79.95Y-68.325
X80.45Y-93.9
X80.625Y-99.075
X81.1Y-90.85
X81.1Y-91.8
X82.05Y-94.05
X82.075Y-68.325
X82.1Y-67.35
X83.225Y-70.025
X83.3Y-73.85
X83.7Y-90.5
X84.275Y-67.2
X85.825Y-67.2
X85.85Y-74.7
X88.05Y-90.0
X88.45Y-99.05
X89.65Y-60.65
X89.925Y-66.4
X90.15Y-72.05
X90.15Y-73.55
X91.475Y-66.4
X91.7Y-90.0
X91.925Y-68.325
X92.775Y-72.8
X92.8Y-74.7
X93.55Y-72.4
X93.55Y-73.35
X95.05Y-99.1
X97.05Y-60.1
X98.8Y-58.3
X98.8Y-61.7
X100.5Y-78.6
X100.5Y-81.0
X100.65Y-60.1
X101.0Y-67.4
X101.0Y-69.8
X101.0Y-72.2
X101.0Y-76.2
X101.0Y-83.4
X101.0Y-84.2
X101.0Y-86.6
X104.65Y-78.6
X104.65Y-81.0
X105.6Y-78.6
X105.6Y-81.0
X108.9Y-67.4
X108.9Y-69.8
X108.9Y-72.2
X108.9Y-77.0
X108.9Y-78.6
X108.9Y-81.0
X108.9Y-83.4
X108.9Y-84.2
X108.9Y-86.6
X109.55Y-69.05
X110.45Y-78.9
X110.45Y-85.35
X111.45Y-85.0
X111.52Y-79.38
X111.71Y-74.01
X112.4Y-85.0
X112.48Y-79.37
X112.55Y-72.25
X112.7Y-75.95
X113.92Y-72.77
X114.29Y-82.95
X114.4Y-77.65
X114.55Y-56.75
X114.9Y-72.75
X115.35Y-65.3
X115.37Y-67.22
X115.4Y-68.2
X116.35Y-95.3
X116.35Y-96.3
X116.65Y-81.95
X117.125Y-69.3
X119.0Y-80.45
X120.0Y-80.45
X122.5Y-78.6
X122.5Y-79.6
X124.1Y-77.8
X124.9Y-71.282
X126.15Y-63.4
X126.15Y-65.8
X126.15Y-68.2
X126.15Y-70.6
X126.15Y-73.0
X126.15Y-74.6
X126.15Y-77.0
X126.15Y-79.4
X126.15Y-81.8
X126.15Y-84.2
X126.15Y-86.6
X129.35Y-73.8
X133.65Y-63.4
X133.65Y-65.8
X133.65Y-68.2
X133.65Y-70.6
X133.65Y-73.0
X133.68Y-73.8
X133.7Y-74.6
X133.7Y-77.0
X133.7Y-79.4
X133.7Y-81.8
X133.7Y-84.2
X133.7Y-86.6
T5
X68.0Y-75.0
X71.0Y-75.0
T4
G00X62.545Y-85.68
M15
G01X61.045Y-85.68
M16
G05
G00X62.545Y-94.32
M15
G01X61.045Y-94.32
M16
G05
G00X62.925Y-55.68
M15
G01X62.125Y-55.68
M16
G05
G00X62.925Y-64.32
M15
G01X62.125Y-64.32
M16
G05
G00X67.255Y-55.68
M15
G01X66.155Y-55.68
M16
G05
G00X67.255Y-64.32
M15
G01X66.155Y-64.32
M16
G05
G00X67.655Y-85.68
M15
G01X66.655Y-85.68
M16
G05
G00X67.655Y-94.32
M15
G01X66.655Y-94.32
M16
G05
M30
